<?xml  version="1.0" encoding="UTF-8"?>
<!DOCTYPE svg PUBLIC "-//W3C//DTD SVG 1.0//EN" "http://www.w3.org/TR/2001/REC-SVG-20010904/DTD/svg10.dtd" >
<svg xmlns="http://www.w3.org/2000/svg" >
<metadata>
<version>1.0</version>
<id><![CDATA[DIN Next W01 Black]]></id>
<vendor>Monotype Imaging Inc.</vendor>
<credits>
<name>Fonts.com WebFonts</name>
<URL>http://webfonts.fonts.com</URL>
<role>Home of the Web fonts</role>
</credits>
<license>
<URL>http://webfonts.fonts.com/Legal</URL>
</license>
<copyright><![CDATA[Copyright 2009 Monotype Imaging Inc. All rights reserved.]]></copyright>
<trademark><![CDATA[Felbridge! is a trademark of Monotype Imaging Inc. and may be registered in certain jurisdictions.]]></trademark>
<licensee>
<name></name>
</licensee>
</metadata>
<defs >
<font horiz-adv-x="540" id="0c36e45b-5edd-4927-b9ad-2e46a30e5593">
<font-face font-family="" panose-1="2 11 10 3 2 2 3 5 2 3" ascent="850" descent="-350" units-per-em="1000" alphabetic="0">
</font-face>
<missing-glyph horiz-adv-x="240" />

<glyph unicode="&#xA;" />
<glyph unicode="&#xD;" />
<glyph unicode=" " horiz-adv-x="240" />
<glyph unicode="!" horiz-adv-x="320" d="M94 222Q84 222 84 232L60 670Q60 680 70 680H250Q260 680 260 670L236 232Q236 222 226 222H94ZM70 150Q70 160 80 160H240Q250 160 250 150V10Q250 0 240 0H80Q70 0 70 10V150Z"  />
<glyph unicode="&quot;" horiz-adv-x="442" d="M261 436Q251 436 251 446V670Q251 680 261 680H378Q388 680 388 670V446Q388 436 378 436H261ZM64 436Q54 436 54 446V670Q54 680 64 680H181Q191 680 191 670V446Q191 436 181 436H64Z"  />
<glyph unicode="#" horiz-adv-x="652" d="M93 161H34Q24 161 24 171V296Q24 306 34 306H113L123 380H60Q50 380 50 390V515Q50 525 60 525H143L163 670Q165 680 174 680H321Q332 680 330 670L310 525H390L410 670Q412 680 421 680H568Q579 680 577 670L557 525H618Q628 525 628 515V390Q628 380 618 380H537L527 306H592Q602 306 602 296V171Q602 161 592 161H507L487 10Q485 0 476 0H329Q318 0 320 10L341 161H261L240 10Q238 0 229 0H82Q71 0 73 10L93 161ZM360 306L370 380H290L280 306H360Z"  />
<glyph unicode="$" horiz-adv-x="570" d="M34 67Q25 75 32 84L131 204Q137 212 144 206Q167 187 198 174T260 160Q290 160 308 172T326 209Q326 242 277 248L259 250Q159 261 104 315T48 460Q48 543 94 603T223 684V765Q223 775 233 775H339Q349 775 349 765V688Q397 681 435 665T499 632Q509 626 501 615L416 495Q410 487 402 492Q378 507 357 513T311 520Q284 520 267 509T250 478Q250 462 261 454T300 441L324 438Q430 425 479 371T528 227Q528 139 481 78T349 -3V-85Q349 -95 339 -95H233Q223 -95 223 -85V-9Q164 -2 115 19T34 67Z"  />
<glyph unicode="%" horiz-adv-x="891" d="M572 682Q578 692 588 692H710Q715 692 715 689T714 682L319 -2Q313 -12 303 -12H181Q176 -12 176 -9T177 -2L572 682ZM215 330Q158 330 122 353T72 418Q67 432 64 453T60 509Q60 544 63 565T72 600Q86 642 122 665T215 688Q272 688 308 665T358 600Q363 586 366 565T370 509Q370 474 367 453T358 418Q344 376 308 353T215 330ZM215 423Q230 423 234 436Q235 439 235 442T236 452T237 473T237 509Q237 531 237 544T237 564T236 575T234 582Q230 595 215 595Q200 595 196 582Q195 579 195 576T194 565T193 544T193 509Q193 487 193 474T193 453T194 442T196 436Q200 423 215 423ZM533 80Q528 94 525 115T521 171Q521 206 524 227T533 262Q547 304 583 327T676 350Q733 350 769 327T819 262Q824 248 827 227T831 171Q831 136 828 115T819 80Q805 38 769 15T676 -8Q619 -8 583 15T533 80ZM657 98Q661 85 676 85Q691 85 695 98Q696 101 696 104T697 114T698 135T698 171Q698 193 698 206T698 226T697 237T695 244Q691 257 676 257Q661 257 657 244Q656 241 656 238T655 227T654 206T654 171Q654 149 654 136T654 115T655 104T657 98Z"  />
<glyph unicode="&amp;" horiz-adv-x="647" d="M34 176Q34 231 63 275T154 369Q134 393 122 413T101 452T90 486T87 520Q87 557 102 589T145 643T209 679T290 692Q336 692 373 679T437 643T477 589T492 519Q492 496 486 476T467 436T434 396T383 351L435 288L501 359Q508 366 515 360L611 275Q618 269 612 261L533 170L536 167Q544 156 552 153T573 149H588Q598 149 598 139V10Q598 0 588 0H526Q488 0 463 10T413 49Q368 14 328 1T239 -12Q141 -12 88 38T34 176ZM288 468Q308 485 316 498T325 525Q325 543 316 553T292 564Q277 564 268 553T259 525Q259 514 265 503T288 468ZM214 192Q214 173 226 160T259 146Q273 145 286 150T317 168L250 252Q229 234 222 220T214 192Z"  />
<glyph unicode="&apos;" horiz-adv-x="245" d="M64 436Q54 436 54 446V670Q54 680 64 680H181Q191 680 191 670V446Q191 436 181 436H64Z"  />
<glyph unicode="(" horiz-adv-x="351" d="M183 -74Q117 17 86 121T54 328Q54 431 85 535T183 730Q186 735 188 737T196 740H320Q325 740 327 738T327 730Q285 639 263 535T241 328Q241 225 263 121T327 -74Q329 -79 327 -81T320 -84H196Q191 -84 189 -82T183 -74Z"  />
<glyph unicode=")" horiz-adv-x="351" d="M24 -74Q66 17 88 121T110 328Q110 431 88 535T24 730Q22 735 24 737T31 740H155Q160 740 162 738T168 730Q234 639 265 535T297 328Q297 225 266 121T168 -74Q165 -79 163 -81T155 -84H31Q26 -84 24 -82T24 -74Z"  />
<glyph unicode="*" horiz-adv-x="444" d="M181 332Q171 332 171 342L172 420L105 380Q97 375 92 383L51 455Q46 463 54 468L122 506L54 544Q45 549 50 557L92 629Q97 637 105 632L172 592L171 670Q171 680 181 680H263Q273 680 273 670L272 592L339 632Q347 637 352 629L393 557Q398 549 390 544L321 506L390 468Q399 463 394 455L352 383Q347 375 339 380L272 420L273 342Q273 332 263 332H181Z"  />
<glyph unicode="+" horiz-adv-x="570" d="M52 194Q42 194 42 204V348Q42 358 52 358H195Q201 358 201 364V509Q201 519 211 519H359Q369 519 369 509V364Q369 358 375 358H518Q528 358 528 348V204Q528 194 518 194H375Q369 194 369 188V43Q369 33 359 33H211Q201 33 201 43V188Q201 194 195 194H52Z"  />
<glyph unicode="&#x2c;" horiz-adv-x="260" d="M44 170Q44 180 54 180H206Q216 180 216 170V25Q216 14 206 5L74 -94Q63 -102 56 -102Q44 -102 44 -89V170Z"  />
<glyph unicode="-" horiz-adv-x="408" d="M46 179Q36 179 36 189V341Q36 351 46 351H362Q372 351 372 341V189Q372 179 362 179H46Z"  />
<glyph unicode="." horiz-adv-x="268" d="M44 170Q44 180 54 180H214Q224 180 224 170V10Q224 0 214 0H54Q44 0 44 10V170Z"  />
<glyph unicode="/" horiz-adv-x="459" d="M231 682Q234 692 244 692H427Q437 692 434 682L228 -2Q225 -12 215 -12H32Q22 -12 25 -2L231 682Z"  />
<glyph unicode="0" horiz-adv-x="570" d="M54 141Q49 154 46 168T41 203T38 257T37 340Q37 391 38 423T41 476T46 511T54 539Q78 611 136 651T285 692Q375 692 433 652T516 539Q520 525 523 512T529 477T532 423T533 340Q533 289 532 257T529 204T524 168T516 141Q492 69 434 29T285 -12Q195 -12 137 28T54 141ZM245 175Q254 148 285 148Q316 148 325 175Q326 179 327 186T329 209T330 256T331 340Q331 393 331 423T330 470T328 493T325 505Q316 532 285 532Q254 532 245 505Q243 500 242 494T241 471T240 424T239 340Q239 287 239 257T240 210T242 186T245 175Z"  />
<glyph unicode="1" horiz-adv-x="570" d="M218 470H216L95 391Q90 388 86 389T82 397V570Q82 578 89 584L219 674Q228 680 238 680H408Q418 680 418 670V10Q418 0 408 0H228Q218 0 218 10V470Z"  />
<glyph unicode="2" horiz-adv-x="570" d="M48 144Q48 152 53 158L292 407Q311 427 318 443T326 480Q326 532 280 532Q258 532 244 517T226 461Q226 450 215 452L58 473Q49 474 49 484Q51 531 70 569T121 635T196 677T290 692Q340 692 382 677T455 635T503 571T520 489Q520 432 499 390T439 309L299 166V164H510Q520 164 520 154V10Q520 0 510 0H58Q48 0 48 10V144Z"  />
<glyph unicode="3" horiz-adv-x="570" d="M45 169Q43 179 53 181L212 203Q222 204 224 194Q229 173 244 161T282 148Q307 148 321 163T336 208Q336 238 319 253T273 269H246Q236 269 236 279V416Q236 426 246 426H271Q297 426 311 440T325 480Q325 505 312 518T276 532Q255 532 243 520T226 486Q224 476 215 478L56 499Q46 501 48 510Q55 550 73 583T122 641T193 678T288 692Q343 692 386 678T458 638T503 578T519 504Q519 458 498 423T442 365V363Q460 353 476 339T504 306T523 260T530 200Q530 153 513 115T464 48T388 4T289 -12Q184 -12 120 37T45 169Z"  />
<glyph unicode="4" horiz-adv-x="570" d="M40 90Q30 90 30 100V258Q30 265 32 269L199 672Q202 680 214 680H406Q418 680 413 669L241 263V260H302Q308 260 308 266V356Q308 366 318 366H486Q496 366 496 356V266Q496 260 501 260H534Q544 260 544 250V100Q544 90 534 90H502Q496 90 496 84V10Q496 0 486 0H318Q308 0 308 10V84Q308 90 302 90H40Z"  />
<glyph unicode="5" horiz-adv-x="570" d="M55 162Q55 171 64 173L221 194Q231 195 234 185Q239 170 250 159T284 148Q316 148 326 176Q332 192 332 224Q332 255 326 272Q316 300 284 300Q268 300 259 294T244 277Q239 267 230 267H76Q66 267 66 277V670Q66 680 76 680H491Q501 680 501 670V526Q501 516 491 516H236Q230 516 230 510V418H232Q247 435 272 446T340 458Q403 458 447 431T512 344Q519 324 522 297T526 223Q526 194 522 170T511 124Q488 54 430 21T286 -12Q233 -12 192 1T121 37T75 92T55 162Z"  />
<glyph unicode="6" horiz-adv-x="570" d="M34 212Q34 237 37 260T48 306T67 354T94 411L228 672Q232 680 241 680H434Q446 680 441 669L314 425L315 424Q317 425 323 426T339 427Q383 427 419 411T481 367T521 299T536 212Q536 162 518 121T467 51T388 5T285 -12Q229 -12 183 4T103 50T52 121T34 212ZM222 212Q222 184 239 166T285 148Q313 148 330 166T348 212Q348 240 331 258T285 276Q257 276 240 258T222 212Z"  />
<glyph unicode="7" horiz-adv-x="570" d="M325 505V508H237Q231 508 231 502V447Q231 437 221 437H56Q46 437 46 447V670Q46 680 56 680H520Q530 680 530 670V509Q530 505 528 499L332 10Q328 0 318 0H130Q125 0 123 3T122 11L325 505Z"  />
<glyph unicode="8" horiz-adv-x="570" d="M33 202Q33 259 56 295T107 351V353Q84 372 66 405T48 485Q48 527 64 564T110 630T185 675T285 692Q341 692 385 676T459 631T506 565T522 485Q522 438 504 405T463 353V351Q491 331 514 295T537 202Q537 151 517 112T463 45T383 3T285 -12Q233 -12 187 2T107 44T53 111T33 202ZM285 428Q308 428 323 442T338 480Q338 503 323 517T285 532Q262 532 247 518T232 480Q232 457 247 443T285 428ZM221 210Q221 183 239 166T285 148Q312 148 330 165T349 210Q349 237 331 254T285 272Q258 272 240 255T221 210Z"  />
<glyph unicode="9" horiz-adv-x="570" d="M256 255L255 256Q253 255 247 254T231 253Q187 253 151 269T89 313T49 381T34 468Q34 517 52 558T103 629T182 675T285 692Q341 692 387 676T467 630T518 559T536 468Q536 443 533 420T522 374T503 326T476 269L342 8Q338 0 329 0H136Q123 0 129 11L256 255ZM285 404Q313 404 330 422T348 468Q348 496 331 514T285 532Q257 532 240 514T222 468Q222 440 239 422T285 404Z"  />
<glyph unicode=":" horiz-adv-x="288" d="M64 310Q54 310 54 320V480Q54 490 64 490H224Q234 490 234 480V320Q234 310 224 310H64ZM54 170Q54 180 64 180H224Q234 180 234 170V10Q234 0 224 0H64Q54 0 54 10V170Z"  />
<glyph unicode=";" horiz-adv-x="288" d="M64 310Q54 310 54 320V480Q54 490 64 490H224Q234 490 234 480V320Q234 310 224 310H64ZM58 170Q58 180 68 180H220Q230 180 230 170V25Q230 14 220 5L88 -94Q77 -102 70 -102Q58 -102 58 -89V170Z"  />
<glyph unicode="&lt;" horiz-adv-x="570" d="M52 200Q42 203 42 214V338Q42 349 52 352L518 516Q528 519 528 509V356Q528 347 518 343L298 277V275L518 209Q528 205 528 196V43Q528 33 518 36L52 200Z"  />
<glyph unicode="=" horiz-adv-x="570" d="M52 310Q42 310 42 320V464Q42 474 52 474H518Q528 474 528 464V320Q528 310 518 310H52ZM52 78Q42 78 42 88V232Q42 242 52 242H518Q528 242 528 232V88Q528 78 518 78H52Z"  />
<glyph unicode="&gt;" horiz-adv-x="570" d="M42 196Q42 205 52 209L272 275V277L52 343Q42 347 42 356V509Q42 519 52 516L518 352Q528 349 528 338V214Q528 203 518 200L52 36Q42 33 42 43V196Z"  />
<glyph unicode="?" horiz-adv-x="494" d="M159 222Q149 222 149 232V272Q149 322 183 356L231 404Q260 433 270 449T281 483Q281 503 269 515T237 528Q195 528 184 479Q182 468 173 470L21 491Q11 493 13 502Q18 544 35 578T82 638T152 678T241 692Q294 692 336 676T409 633T455 571T472 496Q472 444 451 409T388 333L351 297Q337 283 333 271T329 242V232Q329 222 319 222H159ZM150 150Q150 160 160 160H320Q330 160 330 150V10Q330 0 320 0H160Q150 0 150 10V150Z"  />
<glyph unicode="@" horiz-adv-x="956" d="M38 259Q38 358 70 438T160 574T299 661T479 692Q578 692 659 662T798 576T888 442T920 267Q920 213 903 173T856 105T790 64T711 50Q657 50 618 69T562 118H561Q543 86 513 68T422 50Q311 50 282 141Q274 164 271 192T268 266Q268 311 271 339T282 391Q311 482 407 482Q445 482 472 469T513 433H514V463Q514 472 523 472H666Q674 472 674 463V231Q674 207 686 195T718 182Q744 182 756 205T768 266Q768 333 748 387T691 480T600 539T479 560Q412 560 359 539T268 479T210 384T190 259Q190 193 210 140T267 48T358 -11T479 -32Q534 -32 582 -17T668 21Q677 27 682 19L749 -68Q755 -76 747 -82Q695 -122 625 -143T479 -164Q380 -164 299 -134T160 -48T70 86T38 259ZM432 209Q441 182 471 182Q501 182 510 209Q512 216 513 226T514 266Q514 295 513 305T510 323Q501 350 471 350Q441 350 432 323Q430 316 429 306T428 266Q428 237 429 227T432 209Z"  />
<glyph unicode="A" horiz-adv-x="708" d="M242 670Q245 680 255 680H459Q469 680 472 670L702 10Q705 0 695 0H492Q482 0 479 10L454 99H254L229 10Q226 0 216 0H13Q3 0 6 10L242 670ZM407 270L357 451H354L302 270H407Z"  />
<glyph unicode="B" horiz-adv-x="618" d="M44 670Q44 680 54 680H345Q403 680 446 667T517 630T558 573T572 499Q572 449 550 412T486 352V350Q528 334 556 293T584 193Q584 144 566 108T517 47T441 12T345 0H54Q44 0 44 10V670ZM292 413Q329 413 346 426T364 472Q364 505 347 518T292 531H259Q253 531 253 525V419Q253 413 259 413H292ZM253 156Q253 150 259 150H303Q340 150 357 166T374 217Q374 249 357 266T303 283H259Q253 283 253 277V156Z"  />
<glyph unicode="C" horiz-adv-x="572" d="M51 156Q45 174 41 191T35 230T31 277T30 340Q30 376 31 402T34 450T41 488T51 524Q78 608 143 650T303 692Q399 692 463 651T556 532Q560 522 551 518L390 449Q379 444 375 456Q364 482 349 494T308 506Q263 506 250 465Q248 459 247 452T244 431T243 396T242 340Q242 306 242 285T244 250T246 229T250 215Q263 174 308 174Q334 174 349 186T375 224Q379 236 390 231L551 162Q560 158 556 148Q528 71 464 30T303 -12Q208 -12 143 30T51 156Z"  />
<glyph unicode="D" horiz-adv-x="635" d="M44 670Q44 680 54 680H327Q420 680 486 642T579 522Q585 504 589 486T595 448T599 401T600 340Q600 305 599 279T596 233T589 194T579 158Q552 76 486 38T327 0H54Q44 0 44 10V670ZM254 192Q254 186 260 186H284Q325 186 347 197T379 238Q382 246 383 254T386 273T387 300T388 340Q388 364 388 379T386 406T384 426T379 442Q369 472 347 483T284 494H260Q254 494 254 488V192Z"  />
<glyph unicode="E" horiz-adv-x="549" d="M44 670Q44 680 54 680H509Q519 680 519 670V516Q519 506 509 506H258Q252 506 252 500V434Q252 428 258 428H459Q469 428 469 418V268Q469 258 459 258H258Q252 258 252 252V180Q252 174 258 174H509Q519 174 519 164V10Q519 0 509 0H54Q44 0 44 10V670Z"  />
<glyph unicode="F" horiz-adv-x="546" d="M44 670Q44 680 54 680H509Q519 680 519 670V516Q519 506 509 506H258Q252 506 252 500V424Q252 418 258 418H459Q469 418 469 408V258Q469 248 459 248H258Q252 248 252 242V10Q252 0 242 0H54Q44 0 44 10V670Z"  />
<glyph unicode="G" horiz-adv-x="628" d="M51 157Q44 178 40 197T34 238T31 283T30 340Q30 372 30 396T33 442T40 482T51 523Q65 566 90 597T150 650T226 681T314 692Q407 692 470 655T566 547Q572 535 561 530L405 464Q394 459 388 468Q374 488 358 497T315 506Q264 506 250 462Q247 454 246 444T244 420T243 387T242 340Q242 286 244 260T251 217Q265 174 322 174Q349 174 367 183T390 210Q393 219 393 228Q393 235 387 235H335Q325 235 325 245V376Q325 386 335 386H588Q598 386 598 376V329Q598 275 594 238T579 166Q550 78 481 33T314 -12Q268 -12 227 -2T151 30T91 82T51 157Z"  />
<glyph unicode="H" horiz-adv-x="661" d="M44 670Q44 680 54 680H244Q254 680 254 670V445Q254 439 260 439H401Q407 439 407 445V670Q407 680 417 680H607Q617 680 617 670V10Q617 0 607 0H417Q407 0 407 10V247Q407 253 401 253H260Q254 253 254 247V10Q254 0 244 0H54Q44 0 44 10V670Z"  />
<glyph unicode="I" horiz-adv-x="298" d="M44 670Q44 680 54 680H244Q254 680 254 670V10Q254 0 244 0H54Q44 0 44 10V670Z"  />
<glyph unicode="J" horiz-adv-x="550" d="M15 86Q10 94 16 100L148 208Q155 213 161 207Q175 191 190 183T227 174Q297 174 297 254V670Q297 680 307 680H497Q507 680 507 670V277Q507 130 438 59T233 -12Q162 -12 103 14T15 86Z"  />
<glyph unicode="K" horiz-adv-x="670" d="M44 670Q44 680 54 680H244Q254 680 254 670V442L412 670Q419 680 430 680H642Q649 680 650 676T649 667L449 399L653 11Q655 7 654 4T647 0H429Q416 0 412 10L307 228L254 153V10Q254 0 244 0H54Q44 0 44 10V670Z"  />
<glyph unicode="L" horiz-adv-x="559" d="M44 670Q44 680 54 680H244Q254 680 254 670V192Q254 186 260 186H533Q543 186 543 176V10Q543 0 533 0H54Q44 0 44 10V670Z"  />
<glyph unicode="M" horiz-adv-x="782" d="M44 670Q44 680 54 680H235Q240 680 245 678T252 670L392 353H396L532 670Q534 676 539 678T549 680H728Q738 680 738 670V10Q738 0 728 0H559Q549 0 549 10V322H544L454 106Q450 98 445 96T435 93H347Q343 93 338 95T328 106L238 322H233V10Q233 0 223 0H54Q44 0 44 10V670Z"  />
<glyph unicode="N" horiz-adv-x="650" d="M44 670Q44 680 54 680H233Q238 680 243 678T250 670L412 335H417V670Q417 680 427 680H596Q606 680 606 670V10Q606 0 596 0H417Q412 0 407 2T400 10L239 345H233V10Q233 0 223 0H54Q44 0 44 10V670Z"  />
<glyph unicode="O" horiz-adv-x="628" d="M314 -12Q268 -12 227 -2T151 30T91 82T51 157Q44 178 40 197T34 238T31 283T30 340Q30 372 30 396T33 442T40 482T51 523Q65 566 90 597T150 650T226 681T314 692Q360 692 401 682T477 650T537 598T577 523Q584 502 588 483T594 442T597 397T598 340Q598 308 597 284T594 238T588 198T577 157Q563 114 538 83T478 30T402 -1T314 -12ZM314 174Q337 174 354 185T378 217Q383 233 384 259T386 340Q386 367 386 386T385 420T383 444T378 463Q371 484 354 495T314 506Q291 506 274 495T250 463Q247 455 246 445T244 420T243 387T242 340Q242 286 243 260T250 217Q257 196 274 185T314 174Z"  />
<glyph unicode="P" horiz-adv-x="620" d="M54 0Q44 0 44 10V670Q44 680 54 680H335Q405 680 456 663T540 614T588 539T604 445Q604 395 588 353T539 278T455 228T335 210H259Q253 210 253 204V10Q253 0 243 0H54ZM324 384Q359 384 376 400T394 445Q394 474 377 490T324 506H259Q253 506 253 500V390Q253 384 259 384H324Z"  />
<glyph unicode="Q" horiz-adv-x="636" d="M525 -58Q517 -66 510 -58L447 13Q386 -12 317 -12Q271 -12 230 -2T154 30T94 82T54 157Q47 178 43 197T37 238T34 283T33 340Q33 372 33 396T36 442T43 482T54 523Q68 566 93 597T153 650T229 681T317 692Q363 692 404 682T480 650T540 598T580 523Q587 502 591 483T597 442T600 397T601 340Q601 308 600 284T597 238T591 198T580 158L655 75Q663 67 654 60L525 -58ZM317 174Q340 174 357 185T381 217Q386 233 387 259T389 340Q389 367 389 386T388 420T386 444T381 463Q374 484 357 495T317 506Q294 506 277 495T253 463Q250 455 249 445T247 420T246 387T245 340Q245 286 246 260T253 217Q260 196 277 185T317 174Z"  />
<glyph unicode="R" horiz-adv-x="635" d="M396 0Q385 0 381 10L294 222H259Q253 222 253 216V10Q253 0 243 0H54Q44 0 44 10V670Q44 680 54 680H338Q404 680 453 663T534 616T583 543T600 451Q600 388 575 339T498 260L612 11Q614 7 612 4T605 0H396ZM322 390Q356 390 373 405T390 448Q390 475 373 490T322 506H259Q253 506 253 500V396Q253 390 259 390H322Z"  />
<glyph unicode="S" horiz-adv-x="617" d="M306 -12Q262 -12 219 -4T139 18T70 50T20 88Q17 91 16 96T19 106L125 231Q131 239 138 232Q167 206 211 186T304 166Q344 166 363 178T382 210Q382 224 370 232T318 246L282 251Q164 268 104 321T43 476Q43 524 61 564T114 632T198 676T308 692Q384 692 450 672T565 614Q575 608 567 597L477 469Q471 461 463 466Q430 488 393 501T316 515Q286 515 272 505T258 478Q258 463 272 455T323 441L359 436Q480 419 538 366T597 210Q597 162 578 121T523 51T432 5T306 -12Z"  />
<glyph unicode="T" horiz-adv-x="576" d="M193 0Q183 0 183 10V488Q183 494 177 494H16Q6 494 6 504V670Q6 680 16 680H560Q570 680 570 670V504Q570 494 560 494H399Q393 494 393 488V10Q393 0 383 0H193Z"  />
<glyph unicode="U" horiz-adv-x="650" d="M326 -12Q261 -12 209 5T120 59T63 149T43 277V670Q43 680 53 680H243Q253 680 253 670V259Q253 219 271 197T325 174Q361 174 379 196T397 259V670Q397 680 407 680H597Q607 680 607 670V277Q607 204 588 150T531 59T442 6T326 -12Z"  />
<glyph unicode="V" horiz-adv-x="669" d="M239 0Q228 0 225 10L7 668Q4 680 16 680H218Q229 680 232 670L336 303H339L439 670Q442 680 453 680H653Q665 680 662 668L444 10Q441 0 430 0H239Z"  />
<glyph unicode="W" horiz-adv-x="956" d="M587 0Q576 0 573 10L479 339H477L383 10Q380 0 369 0H215Q204 0 201 10L6 670Q3 680 13 680H219Q230 680 232 670L308 310H310L404 670Q407 680 418 680H539Q550 680 553 670L651 310H653L726 670Q728 680 739 680H943Q953 680 950 670L755 10Q752 0 741 0H587Z"  />
<glyph unicode="X" horiz-adv-x="642" d="M428 0Q416 0 410 10L321 164H318L229 10Q223 0 211 0H9Q4 0 3 3T3 10L207 350L15 670Q13 674 14 677T21 680H223Q235 680 241 670L318 536H321L398 670Q404 680 416 680H618Q623 680 624 677T624 670L432 350L636 10Q638 6 637 3T630 0H428Z"  />
<glyph unicode="Y" horiz-adv-x="641" d="M226 0Q216 0 216 10V254L5 669Q-1 680 12 680H201Q212 680 218 670L322 457H325L426 670Q430 680 443 680H630Q642 680 637 669L426 254V10Q426 0 416 0H226Z"  />
<glyph unicode="Z" horiz-adv-x="580" d="M40 0Q30 0 30 10V172Q30 177 33 182L302 491V494H51Q41 494 41 504V670Q41 680 51 680H540Q550 680 550 670V508Q550 502 547 498L277 189V186H540Q550 186 550 176V10Q550 0 540 0H40Z"  />
<glyph unicode="[" horiz-adv-x="331" d="M60 -84Q50 -84 50 -74V730Q50 740 60 740H299Q309 740 309 730V604Q309 594 299 594H223Q217 594 217 588V68Q217 62 223 62H299Q309 62 309 52V-74Q309 -84 299 -84H60Z"  />
<glyph unicode="\" horiz-adv-x="459" d="M244 -12Q234 -12 231 -2L25 682Q22 692 32 692H215Q225 692 228 682L434 -2Q437 -12 427 -12H244Z"  />
<glyph unicode="]" horiz-adv-x="331" d="M32 -84Q22 -84 22 -74V52Q22 62 32 62H108Q114 62 114 68V588Q114 594 108 594H32Q22 594 22 604V730Q22 740 32 740H271Q281 740 281 730V-74Q281 -84 271 -84H32Z"  />
<glyph unicode="^" horiz-adv-x="570" d="M359 232Q349 232 346 242L286 438H284L224 242Q221 232 211 232H46Q36 232 39 242L201 670Q206 680 215 680H355Q364 680 369 670L531 242Q534 232 524 232H359Z"  />
<glyph unicode="_" horiz-adv-x="584" d="M0 -190V-50H584V-190H0Z"  />
<glyph unicode="`" horiz-adv-x="530" d="M251 540Q242 540 235 550L129 694Q127 697 128 700T134 704H299Q309 704 316 694L399 550Q404 540 394 540H251Z"  />
<glyph unicode="a" horiz-adv-x="537" d="M319 0Q309 0 309 10V34H308Q288 13 258 1T180 -12Q150 -12 122 -4T72 23T37 70T24 139Q24 181 40 212T86 263T154 293T239 303H304Q310 303 310 309V317Q310 335 294 343T224 351Q195 351 167 344T122 326Q113 321 109 329L49 437Q43 448 52 454Q87 477 139 489T252 502Q321 502 368 491T444 456T485 396T498 312V10Q498 0 488 0H319ZM253 124Q284 124 297 132T310 159V185Q310 191 304 191H257Q234 191 222 182T210 156Q210 124 253 124Z"  />
<glyph unicode="b" horiz-adv-x="563" d="M366 -12Q321 -12 290 4T243 46H242V10Q242 0 232 0H52Q42 0 42 10V670Q42 680 52 680H232Q242 680 242 670V444H243Q259 470 290 486T366 502Q429 502 467 472T523 385Q533 355 536 322T540 245Q540 202 537 169T523 105Q505 48 467 18T366 -12ZM290 148Q305 148 316 154T332 176Q335 186 336 200T338 245Q338 276 337 290T332 314Q327 330 316 336T290 342Q275 342 264 336T248 314Q245 304 244 290T242 245Q242 214 243 200T248 176Q253 160 264 154T290 148Z"  />
<glyph unicode="c" horiz-adv-x="504" d="M264 -12Q181 -12 121 24T36 136Q29 156 26 181T23 245Q23 283 26 308T36 354Q60 429 120 465T264 502Q307 502 343 492T408 463T457 420T487 367Q490 358 482 354L341 294Q336 292 331 292T324 298Q315 323 303 332T272 342Q240 342 230 312Q228 305 227 292T225 245Q225 211 226 198T230 178Q240 148 272 148Q291 148 303 157T324 192Q326 198 331 198T341 196L482 136Q490 132 487 123Q477 95 457 71T409 28T344 -1T264 -12Z"  />
<glyph unicode="d" horiz-adv-x="563" d="M331 0Q321 0 321 10V46H320Q304 20 273 4T197 -12Q134 -12 96 18T40 105Q30 135 27 168T23 245Q23 288 26 321T40 385Q58 442 96 472T197 502Q242 502 273 486T320 444H321V670Q321 680 331 680H511Q521 680 521 670V10Q521 0 511 0H331ZM273 148Q288 148 299 154T315 176Q318 186 319 200T321 245Q321 276 320 290T315 314Q310 330 299 336T273 342Q258 342 247 336T231 314Q228 304 227 290T225 245Q225 214 226 200T231 176Q236 160 247 154T273 148Z"  />
<glyph unicode="e" horiz-adv-x="539" d="M281 -12Q184 -12 123 27T38 136Q31 156 27 181T23 245Q23 284 27 309T38 354Q61 426 120 464T268 502Q363 502 420 465T501 357Q508 336 512 302T516 201Q516 191 506 191H221Q215 191 215 185Q215 181 217 175Q224 155 247 144T304 133Q359 133 411 169Q419 174 425 167L503 81Q510 74 501 66Q458 28 402 8T281 -12ZM321 303Q327 303 327 309Q327 324 324 333Q313 367 271 367Q229 367 218 333Q215 324 215 309Q215 303 221 303H321Z"  />
<glyph unicode="f" horiz-adv-x="364" d="M76 0Q66 0 66 10V344Q66 350 60 350H34Q24 350 24 360V480Q24 490 34 490H60Q66 490 66 496V500Q66 549 76 583T110 639T169 670T258 680H336Q346 680 346 670V546Q346 536 336 536H308Q282 536 273 528T264 500V496Q264 490 270 490H334Q344 490 344 480V360Q344 350 334 350H270Q264 350 264 344V10Q264 0 254 0H76Z"  />
<glyph unicode="g" horiz-adv-x="559" d="M240 -192Q208 -192 178 -186T120 -168T73 -143T40 -114Q34 -106 41 -99L139 3Q146 10 154 4Q175 -13 195 -22T244 -32Q283 -32 300 -11T318 58V90H317Q301 64 270 48T194 32Q74 32 36 148Q28 172 24 200T20 267Q20 305 24 333T36 386Q74 502 194 502Q238 502 269 486T317 444H318V480Q318 490 328 490H508Q518 490 518 480V102Q518 20 500 -36T447 -127T360 -177T240 -192ZM270 192Q303 192 313 223Q315 230 316 239T318 267Q318 286 317 295T313 311Q303 342 270 342Q237 342 227 311Q225 304 224 295T222 267Q222 248 223 239T227 223Q237 192 270 192Z"  />
<glyph unicode="h" horiz-adv-x="564" d="M334 0Q324 0 324 10V288Q324 338 283 338Q242 338 242 288V10Q242 0 232 0H52Q42 0 42 10V670Q42 680 52 680H232Q242 680 242 670V444H243Q260 470 291 486T367 502Q410 502 440 489T489 452T516 394T524 319V10Q524 0 514 0H334Z"  />
<glyph unicode="i" horiz-adv-x="284" d="M52 536Q42 536 42 546V670Q42 680 52 680H232Q242 680 242 670V546Q242 536 232 536H52ZM52 0Q42 0 42 10V480Q42 490 52 490H232Q242 490 242 480V10Q242 0 232 0H52Z"  />
<glyph unicode="j" horiz-adv-x="284" d="M52 536Q42 536 42 546V670Q42 680 52 680H232Q242 680 242 670V546Q242 536 232 536H52ZM-22 -180Q-32 -180 -32 -170V-30Q-32 -20 -22 -20H-12Q18 -20 30 -11T42 34V480Q42 490 52 490H232Q242 490 242 480V33Q242 -82 185 -131T21 -180H-22Z"  />
<glyph unicode="k" horiz-adv-x="551" d="M353 0Q343 0 339 10L259 188L240 159V10Q240 0 230 0H52Q42 0 42 10V670Q42 680 52 680H230Q240 680 240 670V357L325 480Q332 490 344 490H525Q530 490 531 487T530 480L394 320L549 10Q551 6 550 3T544 0H353Z"  />
<glyph unicode="l" horiz-adv-x="329" d="M229 -6Q178 -6 142 4T84 36T51 95T40 184V670Q40 680 50 680H230Q240 680 240 670V208Q240 158 281 158H300Q310 158 310 148V4Q310 -6 300 -6H229Z"  />
<glyph unicode="m" horiz-adv-x="846" d="M616 0Q606 0 606 10V288Q606 338 565 338Q524 338 524 288V10Q524 0 514 0H334Q324 0 324 10V288Q324 338 283 338Q242 338 242 288V10Q242 0 232 0H52Q42 0 42 10V480Q42 490 52 490H232Q242 490 242 480V444H243Q260 470 291 486T367 502Q414 502 444 488T494 444H495Q517 470 553 486T640 502Q727 502 766 454T806 319V10Q806 0 796 0H616Z"  />
<glyph unicode="n" horiz-adv-x="564" d="M334 0Q324 0 324 10V288Q324 338 283 338Q242 338 242 288V10Q242 0 232 0H52Q42 0 42 10V480Q42 490 52 490H232Q242 490 242 480V444H243Q260 470 291 486T367 502Q410 502 440 489T489 452T516 394T524 319V10Q524 0 514 0H334Z"  />
<glyph unicode="o" horiz-adv-x="546" d="M273 -12Q189 -12 126 24T38 134Q29 161 26 189T23 245Q23 273 26 301T38 356Q62 430 125 466T273 502Q357 502 420 466T508 356Q517 329 520 301T523 245Q523 217 520 189T508 134Q484 60 421 24T273 -12ZM273 148Q288 148 299 154T315 176Q318 186 319 200T321 245Q321 276 320 290T315 314Q310 330 299 336T273 342Q258 342 247 336T231 314Q228 304 227 290T225 245Q225 214 226 200T231 176Q236 160 247 154T273 148Z"  />
<glyph unicode="p" horiz-adv-x="563" d="M52 -180Q42 -180 42 -170V480Q42 490 52 490H232Q242 490 242 480V444H243Q259 470 290 486T366 502Q429 502 467 472T523 385Q533 355 536 322T540 245Q540 202 537 169T523 105Q505 48 467 18T366 -12Q321 -12 290 4T243 46H242V-170Q242 -180 232 -180H52ZM290 148Q305 148 316 154T332 176Q335 186 336 200T338 245Q338 276 337 290T332 314Q327 330 316 336T290 342Q275 342 264 336T248 314Q245 304 244 290T242 245Q242 214 243 200T248 176Q253 160 264 154T290 148Z"  />
<glyph unicode="q" horiz-adv-x="563" d="M331 -180Q321 -180 321 -170V46H320Q304 20 273 4T197 -12Q134 -12 96 18T40 105Q30 135 27 168T23 245Q23 288 26 321T40 385Q58 442 96 472T197 502Q242 502 273 486T320 444H321V480Q321 490 331 490H511Q521 490 521 480V-170Q521 -180 511 -180H331ZM273 148Q288 148 299 154T315 176Q318 186 319 200T321 245Q321 276 320 290T315 314Q310 330 299 336T273 342Q258 342 247 336T231 314Q228 304 227 290T225 245Q225 214 226 200T231 176Q236 160 247 154T273 148Z"  />
<glyph unicode="r" horiz-adv-x="431" d="M52 0Q42 0 42 10V480Q42 490 52 490H232Q242 490 242 480V436H243Q260 471 294 486T370 502Q399 502 416 497Q425 495 422 484L364 299Q359 293 350 298Q330 309 313 314T279 315Q242 306 242 251V10Q242 0 232 0H52Z"  />
<glyph unicode="s" horiz-adv-x="520" d="M257 -12Q179 -12 117 7T10 62Q3 69 9 76L88 176Q94 182 102 178Q150 151 189 140T270 128Q296 128 306 134T317 150Q317 158 309 162T267 170L211 176Q126 185 79 224T31 337Q31 412 90 457T256 502Q328 502 386 485T482 440Q490 434 483 425L413 332Q407 324 398 329Q368 346 333 356T256 366Q216 366 216 347Q216 340 223 336T259 329L315 323Q368 317 404 303T462 268T493 220T502 161Q500 82 436 35T257 -12Z"  />
<glyph unicode="t" horiz-adv-x="352" d="M261 -6Q206 -6 168 5T105 41T69 106T58 205V344Q58 350 52 350H26Q16 350 16 360V480Q16 490 26 490H52Q58 490 58 496V620Q58 630 68 630H246Q256 630 256 620V496Q256 490 262 490H322Q332 490 332 480V360Q332 350 322 350H262Q256 350 256 344V213Q256 181 265 170T302 158H322Q332 158 332 148V4Q332 -6 322 -6H261Z"  />
<glyph unicode="u" horiz-adv-x="562" d="M330 0Q320 0 320 10V46H319Q302 20 271 4T195 -12Q151 -12 122 1T74 38T47 96T39 171V480Q39 490 49 490H229Q239 490 239 480V202Q239 152 280 152Q320 152 320 202V480Q320 490 330 490H510Q520 490 520 480V10Q520 0 510 0H330Z"  />
<glyph unicode="v" horiz-adv-x="559" d="M193 0Q184 0 181 10L4 480Q1 490 12 490H198Q210 490 213 480L281 251H283L347 480Q350 490 362 490H547Q558 490 555 480L378 10Q375 0 366 0H193Z"  />
<glyph unicode="w" horiz-adv-x="784" d="M470 0Q461 0 458 10L394 225H392L326 10Q323 0 314 0H179Q170 0 167 10L6 479Q2 490 14 490H193Q205 490 208 480L260 260H262L326 480Q329 490 340 490H447Q458 490 461 480L526 260H528L576 480Q579 490 591 490H770Q782 490 778 479L617 10Q614 0 605 0H470Z"  />
<glyph unicode="x" horiz-adv-x="557" d="M351 0Q341 0 336 8L278 105H277L219 8Q214 0 204 0H12Q7 0 6 3T7 10L171 254L20 480Q18 484 19 487T26 490H219Q229 490 234 482L279 405H280L326 482Q331 490 341 490H531Q536 490 537 487T537 480L386 254L550 10Q552 6 551 3T544 0H351Z"  />
<glyph unicode="y" horiz-adv-x="559" d="M99 -180Q89 -180 89 -170V-30Q89 -20 99 -20H129Q150 -20 163 -14T183 12L192 37L4 480Q0 490 11 490H200Q210 490 213 480L283 279H285L349 480Q352 490 362 490H548Q559 490 555 480L326 -71Q312 -103 296 -124T258 -157T207 -175T140 -180H99Z"  />
<glyph unicode="z" horiz-adv-x="499" d="M42 0Q32 0 32 10V139Q32 144 35 149L234 333V336H53Q43 336 43 346V480Q43 490 53 490H459Q469 490 469 480V346Q469 340 466 336L268 157V154H459Q469 154 469 144V10Q469 0 459 0H42Z"  />
<glyph unicode="{" horiz-adv-x="378" d="M260 -84Q188 -84 154 -52T120 46V166Q120 213 103 234T50 256Q40 256 40 266V392Q40 402 50 402Q86 402 103 423T120 491V610Q120 675 154 707T260 740H344Q354 740 354 730V604Q354 594 344 594H324Q303 594 293 582T282 548V462Q282 405 266 376T210 330V328Q249 312 265 282T282 195V108Q282 87 292 75T324 62H344Q354 62 354 52V-74Q354 -84 344 -84H260Z"  />
<glyph unicode="|" horiz-adv-x="336" d="M90 -84Q80 -84 80 -74V730Q80 740 90 740H246Q256 740 256 730V-74Q256 -84 246 -84H90Z"  />
<glyph unicode="}" horiz-adv-x="378" d="M34 -84Q24 -84 24 -74V52Q24 62 34 62H54Q75 62 85 74T96 108V195Q96 252 112 282T168 328V330Q129 346 113 375T96 462V548Q96 569 86 581T54 594H34Q24 594 24 604V730Q24 740 34 740H118Q190 740 224 708T258 610V491Q258 444 275 423T328 402Q338 402 338 392V266Q338 256 328 256Q292 256 275 235T258 166V46Q258 -19 224 -51T118 -84H34Z"  />
<glyph unicode="~" horiz-adv-x="570" d="M376 172Q341 172 319 180T276 203Q259 214 245 221T214 228Q194 228 180 215T156 184Q151 175 142 180L44 243Q36 248 40 257Q51 282 67 304T102 342T145 367T194 377Q229 377 251 369T294 346Q311 335 325 328T356 321Q376 321 390 334T414 365Q419 374 428 369L526 306Q534 301 530 292Q507 242 467 207T376 172Z"  />
<glyph unicode="&#xA0;" horiz-adv-x="240" />
<glyph unicode="&#xA1;" horiz-adv-x="320" d="M226 268Q236 268 236 258L260 -180Q260 -190 250 -190H70Q60 -190 60 -180L84 258Q84 268 94 268H226ZM250 340Q250 330 240 330H80Q70 330 70 340V480Q70 490 80 490H240Q250 490 250 480V340Z"  />
<glyph unicode="&#xA2;" horiz-adv-x="570" d="M257 245Q257 211 259 198T263 178Q273 148 308 148Q327 148 340 157T362 192Q364 198 369 198T379 196L520 136Q528 132 525 123Q508 76 464 41T356 -6V-85Q356 -95 346 -95H240Q230 -95 230 -85V-4Q172 8 130 43T69 136Q62 156 59 181T55 245Q55 283 58 308T69 354Q88 412 130 446T230 494V575Q230 585 240 585H346Q356 585 356 575V496Q420 484 464 449T525 367Q528 358 520 354L379 294Q374 292 369 292T362 298Q353 323 340 332T308 342Q273 342 263 312Q261 305 259 292T257 245Z"  />
<glyph unicode="&#xA3;" horiz-adv-x="570" d="M59 0Q49 0 49 10V149Q49 157 55 163Q72 178 81 194T90 236V250Q90 256 84 256H59Q49 256 49 266V381Q49 391 59 391H84Q90 391 90 397V483Q90 584 149 638T313 692Q359 692 396 680T460 645T502 593T522 529Q524 519 514 517L362 487Q352 485 350 495Q346 516 339 524T317 532Q288 532 288 490V397Q288 391 294 391H423Q433 391 433 381V266Q433 256 423 256H294Q288 256 288 250V241Q288 216 281 197T255 165V163H512Q522 163 522 153V10Q522 0 512 0H59Z"  />
<glyph unicode="&#xA4;" horiz-adv-x="570" d="M443 3Q436 -4 429 3L366 65Q326 49 285 49Q243 49 203 65L142 4Q135 -3 128 4L27 106Q20 113 27 120L89 182Q74 218 74 260Q74 302 89 338L26 401Q19 408 26 415L127 517Q134 524 141 517L203 454Q242 471 285 471Q327 471 366 454L429 517Q436 524 443 517L544 415Q551 408 544 401L481 338Q488 320 492 300T496 260Q496 239 492 220T481 182L544 119Q551 112 544 105L443 3ZM285 187Q316 187 336 208T357 260Q357 291 337 312T285 333Q254 333 234 312T213 260Q213 229 233 208T285 187Z"  />
<glyph unicode="&#xA5;" horiz-adv-x="570" d="M195 0Q185 0 185 10V118Q185 124 179 124H73Q63 124 63 134V197Q63 207 73 207H179Q185 207 185 213V236Q185 242 179 242H73Q63 242 63 252V315Q63 325 73 325H154V327L12 670Q8 680 19 680H208Q220 680 224 670L286 457H289L349 670Q353 680 365 680H551Q562 680 558 670L416 327V325H497Q507 325 507 315V252Q507 242 497 242H391Q385 242 385 236V213Q385 207 391 207H497Q507 207 507 197V134Q507 124 497 124H391Q385 124 385 118V10Q385 0 375 0H195Z"  />
<glyph unicode="&#xA6;" horiz-adv-x="336" d="M90 388Q80 388 80 398V730Q80 740 90 740H246Q256 740 256 730V398Q256 388 246 388H90ZM90 -84Q80 -84 80 -74V262Q80 272 90 272H246Q256 272 256 262V-74Q256 -84 246 -84H90Z"  />
<glyph unicode="&#xA7;" horiz-adv-x="500" d="M246 -196Q198 -196 160 -184T96 -150T54 -99T36 -38Q36 -27 44 -26L192 -6Q202 -4 203 -14Q205 -31 214 -41T243 -51Q281 -51 281 -18Q281 -9 278 -1T265 16T240 31T196 47Q108 73 67 120T26 248Q26 294 46 329T103 392V394Q46 440 46 523Q46 558 60 589T101 644T166 682T253 696Q301 696 338 683T401 648T443 596T461 535Q463 524 453 523L308 504Q299 502 297 512Q291 551 257 551Q239 551 230 542T220 519Q220 502 238 487T304 457Q387 432 430 386T474 256Q474 208 452 172T397 112V110Q455 63 455 -23Q455 -60 441 -91T399 -146T334 -183T246 -196ZM250 196Q274 196 287 212T300 252Q300 276 287 292T250 308Q226 308 213 292T200 252Q200 228 213 212T250 196Z"  />
<glyph unicode="&#xA8;" horiz-adv-x="530" d="M307 536Q297 536 297 546V670Q297 680 307 680H433Q443 680 443 670V546Q443 536 433 536H307ZM97 536Q87 536 87 546V670Q87 680 97 680H223Q233 680 233 670V546Q233 536 223 536H97Z"  />
<glyph unicode="&#xA9;" horiz-adv-x="774" d="M387 -14Q311 -14 247 12T135 86T61 197T34 339Q34 415 60 480T134 592T246 665T387 692Q463 692 527 666T639 592T713 480T740 339Q740 262 714 198T640 86T528 13T387 -14ZM387 74Q445 74 494 93T577 148T631 232T651 339Q651 397 632 445T578 529T494 584T387 604Q328 604 280 584T197 529T143 446T123 339Q123 281 142 233T196 149T279 94T387 74ZM392 146Q329 146 280 174T212 261Q207 276 205 294T202 341Q202 369 204 387T212 421Q231 479 280 507T392 536Q458 536 504 507T567 436Q571 426 561 423L452 378Q443 373 439 383Q432 400 422 406T398 413Q372 413 364 390Q362 383 361 374T360 341Q360 317 361 308T364 292Q372 269 398 269Q412 269 422 275T439 299Q443 309 452 304L561 259Q571 256 567 246Q551 204 505 175T392 146Z"  />
<glyph unicode="&#xAA;" horiz-adv-x="383" d="M228 392Q218 392 218 402V416H217Q193 386 138 386Q118 386 100 391T67 407T45 434T36 475Q36 520 71 545T169 571H212Q218 571 218 577V581Q218 592 207 597T165 603Q147 603 128 598T96 584Q87 578 82 588L49 644Q44 653 53 658Q103 689 179 689Q261 689 300 664T339 579V402Q339 392 329 392H228ZM178 464Q218 464 218 487V498Q218 504 212 504H178Q151 504 151 484Q151 464 178 464Z"  />
<glyph unicode="&#xAB;" horiz-adv-x="612" d="M295 257Q288 264 295 271L550 522Q553 525 556 524T560 518V356Q560 348 550 338L479 268Q475 264 479 260L550 190Q560 180 560 172V10Q560 5 557 4T550 6L295 257ZM15 257Q8 264 15 271L270 522Q273 525 276 524T280 518V356Q280 348 270 338L199 268Q195 264 199 260L270 190Q280 180 280 172V10Q280 5 277 4T270 6L15 257Z"  />
<glyph unicode="&#xAC;" horiz-adv-x="570" d="M370 66Q360 66 360 76V188Q360 194 354 194H52Q42 194 42 204V348Q42 358 52 358H518Q528 358 528 348V76Q528 66 518 66H370Z"  />
<glyph unicode="&#xAD;" horiz-adv-x="408" d="M46 179Q36 179 36 189V341Q36 351 46 351H362Q372 351 372 341V189Q372 179 362 179H46Z"  />
<glyph unicode="&#xAE;" horiz-adv-x="431" d="M216 301Q174 301 139 315T77 355T36 416T21 493Q21 534 36 569T77 629T138 669T216 684Q257 684 292 670T354 630T395 569T410 493Q410 452 395 417T354 356T293 316T216 301ZM216 343Q248 343 275 354T321 384T352 432T363 493Q363 526 352 553T322 600T275 631T216 642Q183 642 156 631T110 601T79 554T68 493Q68 460 79 432T109 385T156 354T216 343ZM134 388Q127 388 127 395V593Q127 600 134 600H233Q276 600 297 580T318 528Q318 484 283 466L316 395Q318 393 317 391T311 388H247Q240 388 237 395L211 455H204Q200 455 200 451V395Q200 388 193 388H134ZM223 509Q244 509 244 527Q244 545 223 545H204Q200 545 200 541V513Q200 509 204 509H223Z"  />
<glyph unicode="&#xAF;" horiz-adv-x="530" d="M103 548Q93 548 93 558V666Q93 676 103 676H427Q437 676 437 666V558Q437 548 427 548H103Z"  />
<glyph unicode="&#xB0;" horiz-adv-x="370" d="M185 368Q150 368 120 380T67 415T33 467T20 532Q20 567 32 597T67 649T119 683T185 696Q220 696 250 684T303 649T337 597T350 532Q350 497 338 467T303 415T251 381T185 368ZM185 483Q206 483 219 496T233 532Q233 554 220 567T185 581Q164 581 151 568T137 532Q137 510 150 497T185 483Z"  />
<glyph unicode="&#xB1;" horiz-adv-x="570" d="M211 200Q201 200 201 210V352Q201 358 195 358H52Q42 358 42 368V512Q42 522 52 522H195Q201 522 201 528V670Q201 680 211 680H359Q369 680 369 670V528Q369 522 375 522H518Q528 522 528 512V368Q528 358 518 358H375Q369 358 369 352V210Q369 200 359 200H211ZM52 0Q42 0 42 10V154Q42 164 52 164H518Q528 164 528 154V10Q528 0 518 0H52Z"  />
<glyph unicode="&#xB2;" horiz-adv-x="376" d="M40 430Q30 430 30 440V527Q30 540 40 548L187 673Q208 691 208 711Q208 722 202 728T184 735Q173 735 165 728T156 703Q156 691 145 693L39 705Q30 706 30 716Q32 773 75 808T194 843Q224 843 251 835T300 811T333 771T346 713Q346 678 332 653T286 602L216 546V545H336Q346 545 346 535V440Q346 430 336 430H40Z"  />
<glyph unicode="&#xB3;" horiz-adv-x="376" d="M189 423Q120 423 78 452T28 533Q26 542 36 544L141 557Q151 559 155 550Q163 531 184 531Q196 531 203 537T211 557Q211 584 176 584H166Q156 584 156 594V678Q156 688 166 688H178Q190 688 197 694T205 711Q205 735 181 735Q160 735 155 716Q152 705 143 707L36 721Q26 723 28 732Q36 780 76 811T188 843Q263 843 303 811T343 729Q343 704 331 684T295 649V647Q317 636 333 615T349 552Q349 494 306 459T189 423Z"  />
<glyph unicode="&#xB4;" horiz-adv-x="530" d="M136 540Q126 540 131 550L214 694Q221 704 231 704H396Q401 704 402 701T401 694L295 550Q287 540 279 540H136Z"  />
<glyph unicode="&#xB5;" horiz-adv-x="565" d="M333 0Q323 0 323 10V46H322Q312 31 298 19T263 1Q258 -1 253 -1T242 -3V-170Q242 -180 232 -180H52Q42 -180 42 -170V480Q42 490 52 490H232Q242 490 242 480V202Q242 152 283 152Q323 152 323 202V480Q323 490 333 490H513Q523 490 523 480V10Q523 0 513 0H333Z"  />
<glyph unicode="&#xB6;" horiz-adv-x="702" d="M502 -180Q492 -180 492 -170V549Q492 555 486 555H418Q412 555 412 549V-170Q412 -180 402 -180H268Q258 -180 258 -170V190Q211 193 171 211T100 261T53 337T36 435Q36 490 54 535T106 612T188 662T295 680H636Q646 680 646 670V-170Q646 -180 636 -180H502Z"  />
<glyph unicode="&#xB7;" horiz-adv-x="268" d="M54 175Q44 175 44 185V345Q44 355 54 355H214Q224 355 224 345V185Q224 175 214 175H54Z"  />
<glyph unicode="&#xB8;" horiz-adv-x="530" d="M170 -172Q160 -172 163 -162L227 0Q231 10 243 10H363Q373 10 370 0L323 -162Q320 -172 308 -172H170Z"  />
<glyph unicode="&#xB9;" horiz-adv-x="376" d="M149 430Q139 430 139 440V696H137L70 659Q66 657 63 658T60 665V777Q60 787 69 792L132 830Q141 836 149 836H272Q282 836 282 826V440Q282 430 272 430H149Z"  />
<glyph unicode="&#xBA;" horiz-adv-x="406" d="M203 383Q141 383 102 407T48 474Q44 486 42 500T40 536Q40 558 42 572T48 598Q62 641 101 665T203 689Q265 689 304 665T358 598Q362 586 364 572T366 536Q366 514 364 500T358 474Q344 431 305 407T203 383ZM203 479Q215 479 223 485T234 500Q236 504 236 511T237 536Q237 553 237 560T234 572Q231 581 223 587T203 593Q191 593 183 587T172 572Q170 568 170 561T169 536Q169 519 169 512T172 500Q175 491 183 485T203 479Z"  />
<glyph unicode="&#xBB;" horiz-adv-x="612" d="M342 6Q339 3 336 4T332 10V172Q332 180 342 190L413 260Q417 264 413 268L342 338Q332 348 332 356V518Q332 523 335 524T342 522L597 271Q604 264 597 257L342 6ZM62 6Q59 3 56 4T52 10V172Q52 180 62 190L133 260Q137 264 133 268L62 338Q52 348 52 356V518Q52 523 55 524T62 522L317 271Q324 264 317 257L62 6Z"  />
<glyph unicode="&#xBC;" horiz-adv-x="948" d="M194 -12Q189 -12 189 -9T190 -2L585 682Q591 692 601 692H723Q728 692 728 689T727 682L332 -2Q326 -12 316 -12H194ZM169 274Q159 274 159 284V540H157L90 503Q86 501 83 502T80 509V621Q80 631 89 636L152 674Q161 680 169 680H292Q302 680 302 670V284Q302 274 292 274H169ZM721 2Q711 2 711 12V44Q711 50 705 50H536Q526 50 526 60V162Q526 170 531 182L628 398Q632 408 643 408H770Q781 408 777 398L673 168V165H705Q711 165 711 171V213Q711 223 721 223H830Q840 223 840 213V171Q840 165 845 165H858Q868 165 868 155V60Q868 50 858 50H846Q840 50 840 44V12Q840 2 830 2H721Z"  />
<glyph unicode="&#xBD;" horiz-adv-x="966" d="M194 -12Q189 -12 189 -9T190 -2L585 682Q591 692 601 692H723Q728 692 728 689T727 682L332 -2Q326 -12 316 -12H194ZM169 274Q159 274 159 284V540H157L90 503Q86 501 83 502T80 509V621Q80 631 89 636L152 674Q161 680 169 680H292Q302 680 302 670V284Q302 274 292 274H169ZM580 2Q570 2 570 12V99Q570 112 580 120L727 245Q748 263 748 283Q748 294 742 300T724 307Q713 307 705 300T696 275Q696 263 685 265L579 277Q570 278 570 288Q572 345 615 380T734 415Q764 415 791 407T840 383T873 343T886 285Q886 250 872 225T826 174L756 118V117H876Q886 117 886 107V12Q886 2 876 2H580Z"  />
<glyph unicode="&#xBE;" horiz-adv-x="1003" d="M250 -12Q245 -12 245 -9T246 -2L641 682Q647 692 657 692H779Q784 692 784 689T783 682L388 -2Q382 -12 372 -12H250ZM242 267Q173 267 131 296T81 377Q79 386 89 388L194 401Q204 403 208 394Q216 375 237 375Q249 375 256 381T264 401Q264 428 229 428H219Q209 428 209 438V522Q209 532 219 532H231Q243 532 250 538T258 555Q258 579 234 579Q213 579 208 560Q205 549 196 551L89 565Q79 567 81 576Q89 624 129 655T241 687Q316 687 356 655T396 573Q396 548 384 528T348 493V491Q370 480 386 459T402 396Q402 338 359 303T242 267ZM776 2Q766 2 766 12V44Q766 50 760 50H591Q581 50 581 60V162Q581 170 586 182L683 398Q687 408 698 408H825Q836 408 832 398L728 168V165H760Q766 165 766 171V213Q766 223 776 223H885Q895 223 895 213V171Q895 165 900 165H913Q923 165 923 155V60Q923 50 913 50H901Q895 50 895 44V12Q895 2 885 2H776Z"  />
<glyph unicode="&#xBF;" horiz-adv-x="494" d="M335 268Q345 268 345 258V218Q345 168 311 134L263 86Q234 57 224 41T213 7Q213 -13 225 -25T257 -38Q299 -38 310 11Q312 22 321 20L473 -1Q483 -3 481 -12Q476 -54 459 -88T412 -148T342 -188T253 -202Q200 -202 158 -186T85 -143T39 -81T22 -6Q22 46 43 81T106 157L143 193Q157 207 161 219T165 248V258Q165 268 175 268H335ZM344 340Q344 330 334 330H174Q164 330 164 340V480Q164 490 174 490H334Q344 490 344 480V340Z"  />
<glyph unicode="&#xC0;" horiz-adv-x="708" d="M242 670Q245 680 255 680H459Q469 680 472 670L702 10Q705 0 695 0H492Q482 0 479 10L454 99H254L229 10Q226 0 216 0H13Q3 0 6 10L242 670ZM407 270L357 451H354L302 270H407ZM295 738Q284 738 274 748L140 880Q137 884 138 887T145 890H312Q322 890 330 880L440 748Q443 744 442 741T436 738H295Z"  />
<glyph unicode="&#xC1;" horiz-adv-x="708" d="M242 670Q245 680 255 680H459Q469 680 472 670L702 10Q705 0 695 0H492Q482 0 479 10L454 99H254L229 10Q226 0 216 0H13Q3 0 6 10L242 670ZM407 270L357 451H354L302 270H407ZM278 738Q273 738 272 741T274 748L384 880Q392 890 402 890H569Q574 890 575 887T574 880L440 748Q430 738 419 738H278Z"  />
<glyph unicode="&#xC2;" horiz-adv-x="708" d="M242 670Q245 680 255 680H459Q469 680 472 670L702 10Q705 0 695 0H492Q482 0 479 10L454 99H254L229 10Q226 0 216 0H13Q3 0 6 10L242 670ZM407 270L357 451H354L302 270H407ZM423 734Q409 734 399 744L355 788H353L309 744Q299 734 285 734H172Q167 734 166 737T167 744L281 888Q288 898 300 898H408Q420 898 427 888L541 744Q544 740 543 737T536 734H423Z"  />
<glyph unicode="&#xC3;" horiz-adv-x="708" d="M242 670Q245 680 255 680H459Q469 680 472 670L702 10Q705 0 695 0H492Q482 0 479 10L454 99H254L229 10Q226 0 216 0H13Q3 0 6 10L242 670ZM407 270L357 451H354L302 270H407ZM429 730Q397 730 376 738T335 756Q321 763 307 768T274 773Q251 773 233 765T193 740Q182 733 182 744V836Q182 850 192 860Q210 877 231 888T278 899Q310 899 331 891T372 873Q386 866 400 861T433 856Q456 856 474 864T514 889Q525 896 525 885V793Q525 785 523 780T515 769Q497 752 476 741T429 730Z"  />
<glyph unicode="&#xC4;" horiz-adv-x="708" d="M242 670Q245 680 255 680H459Q469 680 472 670L702 10Q705 0 695 0H492Q482 0 479 10L454 99H254L229 10Q226 0 216 0H13Q3 0 6 10L242 670ZM407 270L357 451H354L302 270H407ZM396 739Q386 739 386 749V873Q386 883 396 883H522Q532 883 532 873V749Q532 739 522 739H396ZM186 739Q176 739 176 749V873Q176 883 186 883H312Q322 883 322 873V749Q322 739 312 739H186Z"  />
<glyph unicode="&#xC5;" horiz-adv-x="708" d="M242 670Q245 680 255 680H459Q469 680 472 670L702 10Q705 0 695 0H492Q482 0 479 10L454 99H254L229 10Q226 0 216 0H13Q3 0 6 10L242 670ZM407 270L357 451H354L302 270H407ZM354 694Q300 694 265 728T230 816Q230 870 265 904T354 938Q408 938 443 904T478 816Q478 762 443 728T354 694ZM354 775Q371 775 382 786T394 816Q394 834 383 845T354 857Q337 857 326 846T314 816Q314 798 325 787T354 775Z"  />
<glyph unicode="&#xC6;" horiz-adv-x="935" d="M440 0Q430 0 430 10V93Q430 99 424 99H263L228 10Q224 0 214 0H13Q2 0 7 10L293 670Q298 680 307 680H895Q905 680 905 670V516Q905 506 895 506H644Q638 506 638 500V434Q638 428 644 428H845Q855 428 855 418V268Q855 258 845 258H644Q638 258 638 252V180Q638 174 644 174H895Q905 174 905 164V10Q905 0 895 0H440ZM332 270H424Q430 270 430 276V506H426L332 270Z"  />
<glyph unicode="&#xC7;" horiz-adv-x="572" d="M181 -172Q171 -172 174 -162L235 -6Q167 7 120 47T51 156Q45 174 41 191T35 230T31 277T30 340Q30 376 31 402T34 450T41 488T51 524Q78 608 143 650T303 692Q399 692 463 651T556 532Q560 522 551 518L390 449Q379 444 375 456Q364 482 349 494T308 506Q263 506 250 465Q248 459 247 452T244 431T243 396T242 340Q242 306 242 285T244 250T246 229T250 215Q263 174 308 174Q334 174 349 186T375 224Q379 236 390 231L551 162Q560 158 556 148Q534 88 490 49T380 -4L334 -162Q331 -172 319 -172H181Z"  />
<glyph unicode="&#xC8;" horiz-adv-x="549" d="M44 670Q44 680 54 680H509Q519 680 519 670V516Q519 506 509 506H258Q252 506 252 500V434Q252 428 258 428H459Q469 428 469 418V268Q469 258 459 258H258Q252 258 252 252V180Q252 174 258 174H509Q519 174 519 164V10Q519 0 509 0H54Q44 0 44 10V670ZM233 738Q222 738 212 748L78 880Q75 884 76 887T83 890H250Q260 890 268 880L378 748Q381 744 380 741T374 738H233Z"  />
<glyph unicode="&#xC9;" horiz-adv-x="549" d="M44 670Q44 680 54 680H509Q519 680 519 670V516Q519 506 509 506H258Q252 506 252 500V434Q252 428 258 428H459Q469 428 469 418V268Q469 258 459 258H258Q252 258 252 252V180Q252 174 258 174H509Q519 174 519 164V10Q519 0 509 0H54Q44 0 44 10V670ZM172 738Q167 738 166 741T168 748L278 880Q286 890 296 890H463Q468 890 469 887T468 880L334 748Q324 738 313 738H172Z"  />
<glyph unicode="&#xCA;" horiz-adv-x="549" d="M44 670Q44 680 54 680H509Q519 680 519 670V516Q519 506 509 506H258Q252 506 252 500V434Q252 428 258 428H459Q469 428 469 418V268Q469 258 459 258H258Q252 258 252 252V180Q252 174 258 174H509Q519 174 519 164V10Q519 0 509 0H54Q44 0 44 10V670ZM352 734Q338 734 328 744L284 788H282L238 744Q228 734 214 734H101Q96 734 95 737T96 744L210 888Q217 898 229 898H337Q349 898 356 888L470 744Q473 740 472 737T465 734H352Z"  />
<glyph unicode="&#xCB;" horiz-adv-x="549" d="M44 670Q44 680 54 680H509Q519 680 519 670V516Q519 506 509 506H258Q252 506 252 500V434Q252 428 258 428H459Q469 428 469 418V268Q469 258 459 258H258Q252 258 252 252V180Q252 174 258 174H509Q519 174 519 164V10Q519 0 509 0H54Q44 0 44 10V670ZM323 739Q313 739 313 749V873Q313 883 323 883H449Q459 883 459 873V749Q459 739 449 739H323ZM113 739Q103 739 103 749V873Q103 883 113 883H239Q249 883 249 873V749Q249 739 239 739H113Z"  />
<glyph unicode="&#xCC;" horiz-adv-x="298" d="M44 670Q44 680 54 680H244Q254 680 254 670V10Q254 0 244 0H54Q44 0 44 10V670ZM94 738Q83 738 73 748L-61 880Q-64 884 -63 887T-56 890H111Q121 890 129 880L239 748Q242 744 241 741T235 738H94Z"  />
<glyph unicode="&#xCD;" horiz-adv-x="298" d="M44 670Q44 680 54 680H244Q254 680 254 670V10Q254 0 244 0H54Q44 0 44 10V670ZM69 738Q64 738 63 741T65 748L175 880Q183 890 193 890H360Q365 890 366 887T365 880L231 748Q221 738 210 738H69Z"  />
<glyph unicode="&#xCE;" horiz-adv-x="298" d="M44 670Q44 680 54 680H244Q254 680 254 670V10Q254 0 244 0H54Q44 0 44 10V670ZM220 734Q206 734 196 744L152 788H150L106 744Q96 734 82 734H-31Q-36 734 -37 737T-36 744L78 888Q85 898 97 898H205Q217 898 224 888L338 744Q341 740 340 737T333 734H220Z"  />
<glyph unicode="&#xCF;" horiz-adv-x="298" d="M44 670Q44 680 54 680H244Q254 680 254 670V10Q254 0 244 0H54Q44 0 44 10V670ZM193 739Q183 739 183 749V873Q183 883 193 883H319Q329 883 329 873V749Q329 739 319 739H193ZM-17 739Q-27 739 -27 749V873Q-27 883 -17 883H109Q119 883 119 873V749Q119 739 109 739H-17Z"  />
<glyph unicode="&#xD0;" horiz-adv-x="635" d="M54 0Q44 0 44 10V269Q44 275 38 275H12Q2 275 2 285V402Q2 412 12 412H38Q44 412 44 418V670Q44 680 54 680H327Q420 680 486 642T579 522Q585 504 589 486T595 448T599 401T600 340Q600 305 599 279T596 233T589 194T579 158Q552 76 486 38T327 0H54ZM284 186Q325 186 347 197T379 238Q382 246 383 254T386 273T387 300T388 340Q388 364 388 379T386 406T384 426T379 442Q369 472 347 483T284 494H260Q254 494 254 488V418Q254 412 260 412H314Q324 412 324 402V285Q324 275 314 275H260Q254 275 254 269V192Q254 186 260 186H284Z"  />
<glyph unicode="&#xD1;" horiz-adv-x="650" d="M44 670Q44 680 54 680H233Q238 680 243 678T250 670L412 335H417V670Q417 680 427 680H596Q606 680 606 670V10Q606 0 596 0H417Q412 0 407 2T400 10L239 345H233V10Q233 0 223 0H54Q44 0 44 10V670ZM400 730Q368 730 347 738T306 756Q292 763 278 768T245 773Q222 773 204 765T164 740Q153 733 153 744V836Q153 850 163 860Q181 877 202 888T249 899Q281 899 302 891T343 873Q357 866 371 861T404 856Q427 856 445 864T485 889Q496 896 496 885V793Q496 785 494 780T486 769Q468 752 447 741T400 730Z"  />
<glyph unicode="&#xD2;" horiz-adv-x="628" d="M314 -12Q268 -12 227 -2T151 30T91 82T51 157Q44 178 40 197T34 238T31 283T30 340Q30 372 30 396T33 442T40 482T51 523Q65 566 90 597T150 650T226 681T314 692Q360 692 401 682T477 650T537 598T577 523Q584 502 588 483T594 442T597 397T598 340Q598 308 597 284T594 238T588 198T577 157Q563 114 538 83T478 30T402 -1T314 -12ZM314 174Q337 174 354 185T378 217Q383 233 384 259T386 340Q386 367 386 386T385 420T383 444T378 463Q371 484 354 495T314 506Q291 506 274 495T250 463Q247 455 246 445T244 420T243 387T242 340Q242 286 243 260T250 217Q257 196 274 185T314 174ZM256 738Q245 738 235 748L101 880Q98 884 99 887T106 890H273Q283 890 291 880L401 748Q404 744 403 741T397 738H256Z"  />
<glyph unicode="&#xD3;" horiz-adv-x="628" d="M314 -12Q268 -12 227 -2T151 30T91 82T51 157Q44 178 40 197T34 238T31 283T30 340Q30 372 30 396T33 442T40 482T51 523Q65 566 90 597T150 650T226 681T314 692Q360 692 401 682T477 650T537 598T577 523Q584 502 588 483T594 442T597 397T598 340Q598 308 597 284T594 238T588 198T577 157Q563 114 538 83T478 30T402 -1T314 -12ZM314 174Q337 174 354 185T378 217Q383 233 384 259T386 340Q386 367 386 386T385 420T383 444T378 463Q371 484 354 495T314 506Q291 506 274 495T250 463Q247 455 246 445T244 420T243 387T242 340Q242 286 243 260T250 217Q257 196 274 185T314 174ZM231 738Q226 738 225 741T227 748L337 880Q345 890 355 890H522Q527 890 528 887T527 880L393 748Q383 738 372 738H231Z"  />
<glyph unicode="&#xD4;" horiz-adv-x="628" d="M314 -12Q268 -12 227 -2T151 30T91 82T51 157Q44 178 40 197T34 238T31 283T30 340Q30 372 30 396T33 442T40 482T51 523Q65 566 90 597T150 650T226 681T314 692Q360 692 401 682T477 650T537 598T577 523Q584 502 588 483T594 442T597 397T598 340Q598 308 597 284T594 238T588 198T577 157Q563 114 538 83T478 30T402 -1T314 -12ZM314 174Q337 174 354 185T378 217Q383 233 384 259T386 340Q386 367 386 386T385 420T383 444T378 463Q371 484 354 495T314 506Q291 506 274 495T250 463Q247 455 246 445T244 420T243 387T242 340Q242 286 243 260T250 217Q257 196 274 185T314 174ZM383 734Q369 734 359 744L315 788H313L269 744Q259 734 245 734H132Q127 734 126 737T127 744L241 888Q248 898 260 898H368Q380 898 387 888L501 744Q504 740 503 737T496 734H383Z"  />
<glyph unicode="&#xD5;" horiz-adv-x="628" d="M314 -12Q268 -12 227 -2T151 30T91 82T51 157Q44 178 40 197T34 238T31 283T30 340Q30 372 30 396T33 442T40 482T51 523Q65 566 90 597T150 650T226 681T314 692Q360 692 401 682T477 650T537 598T577 523Q584 502 588 483T594 442T597 397T598 340Q598 308 597 284T594 238T588 198T577 157Q563 114 538 83T478 30T402 -1T314 -12ZM314 174Q337 174 354 185T378 217Q383 233 384 259T386 340Q386 367 386 386T385 420T383 444T378 463Q371 484 354 495T314 506Q291 506 274 495T250 463Q247 455 246 445T244 420T243 387T242 340Q242 286 243 260T250 217Q257 196 274 185T314 174ZM390 730Q358 730 337 738T296 756Q282 763 268 768T235 773Q212 773 194 765T154 740Q143 733 143 744V836Q143 850 153 860Q171 877 192 888T239 899Q271 899 292 891T333 873Q347 866 361 861T394 856Q417 856 435 864T475 889Q486 896 486 885V793Q486 785 484 780T476 769Q458 752 437 741T390 730Z"  />
<glyph unicode="&#xD6;" horiz-adv-x="628" d="M314 -12Q268 -12 227 -2T151 30T91 82T51 157Q44 178 40 197T34 238T31 283T30 340Q30 372 30 396T33 442T40 482T51 523Q65 566 90 597T150 650T226 681T314 692Q360 692 401 682T477 650T537 598T577 523Q584 502 588 483T594 442T597 397T598 340Q598 308 597 284T594 238T588 198T577 157Q563 114 538 83T478 30T402 -1T314 -12ZM314 174Q337 174 354 185T378 217Q383 233 384 259T386 340Q386 367 386 386T385 420T383 444T378 463Q371 484 354 495T314 506Q291 506 274 495T250 463Q247 455 246 445T244 420T243 387T242 340Q242 286 243 260T250 217Q257 196 274 185T314 174ZM356 739Q346 739 346 749V873Q346 883 356 883H482Q492 883 492 873V749Q492 739 482 739H356ZM146 739Q136 739 136 749V873Q136 883 146 883H272Q282 883 282 873V749Q282 739 272 739H146Z"  />
<glyph unicode="&#xD7;" horiz-adv-x="570" d="M420 44Q413 35 406 44L288 161Q284 165 280 161L162 44Q155 35 148 44L52 140Q45 147 52 154L169 271Q173 275 169 280L52 397Q45 404 52 411L150 509Q157 516 164 509L281 391Q285 388 290 391L407 509Q414 516 421 509L517 413Q525 405 517 399L400 281Q395 276 400 273L517 155Q526 148 517 141L420 44Z"  />
<glyph unicode="&#xD8;" horiz-adv-x="628" d="M314 -12Q234 -12 171 18L146 -20Q140 -30 129 -30H5Q0 -30 -1 -27T0 -20L79 98Q61 124 51 157Q44 178 40 197T34 238T31 283T30 340Q30 372 30 396T33 442T40 482T51 523Q65 566 90 597T150 650T226 681T314 692Q394 692 456 662L482 700Q488 710 499 710H623Q628 710 629 707T628 700L549 581Q557 568 564 554T577 523Q584 502 588 483T594 442T597 397T598 340Q598 308 597 284T594 238T588 198T577 157Q563 114 538 83T478 30T402 -1T314 -12ZM314 174Q337 174 354 185T378 217Q383 233 384 259T386 340Q386 367 386 386T385 420T383 444T378 463Q371 484 354 495T314 506Q291 506 274 495T250 463Q247 455 246 445T244 420T243 387T242 340Q242 286 243 260T250 217Q257 196 274 185T314 174Z"  />
<glyph unicode="&#xD9;" horiz-adv-x="650" d="M326 -12Q261 -12 209 5T120 59T63 149T43 277V670Q43 680 53 680H243Q253 680 253 670V259Q253 219 271 197T325 174Q361 174 379 196T397 259V670Q397 680 407 680H597Q607 680 607 670V277Q607 204 588 150T531 59T442 6T326 -12ZM266 738Q255 738 245 748L111 880Q108 884 109 887T116 890H283Q293 890 301 880L411 748Q414 744 413 741T407 738H266Z"  />
<glyph unicode="&#xDA;" horiz-adv-x="650" d="M326 -12Q261 -12 209 5T120 59T63 149T43 277V670Q43 680 53 680H243Q253 680 253 670V259Q253 219 271 197T325 174Q361 174 379 196T397 259V670Q397 680 407 680H597Q607 680 607 670V277Q607 204 588 150T531 59T442 6T326 -12ZM247 738Q242 738 241 741T243 748L353 880Q361 890 371 890H538Q543 890 544 887T543 880L409 748Q399 738 388 738H247Z"  />
<glyph unicode="&#xDB;" horiz-adv-x="650" d="M326 -12Q261 -12 209 5T120 59T63 149T43 277V670Q43 680 53 680H243Q253 680 253 670V259Q253 219 271 197T325 174Q361 174 379 196T397 259V670Q397 680 407 680H597Q607 680 607 670V277Q607 204 588 150T531 59T442 6T326 -12ZM394 734Q380 734 370 744L326 788H324L280 744Q270 734 256 734H143Q138 734 137 737T138 744L252 888Q259 898 271 898H379Q391 898 398 888L512 744Q515 740 514 737T507 734H394Z"  />
<glyph unicode="&#xDC;" horiz-adv-x="650" d="M326 -12Q261 -12 209 5T120 59T63 149T43 277V670Q43 680 53 680H243Q253 680 253 670V259Q253 219 271 197T325 174Q361 174 379 196T397 259V670Q397 680 407 680H597Q607 680 607 670V277Q607 204 588 150T531 59T442 6T326 -12ZM367 739Q357 739 357 749V873Q357 883 367 883H493Q503 883 503 873V749Q503 739 493 739H367ZM157 739Q147 739 147 749V873Q147 883 157 883H283Q293 883 293 873V749Q293 739 283 739H157Z"  />
<glyph unicode="&#xDD;" horiz-adv-x="641" d="M226 0Q216 0 216 10V254L5 669Q-1 680 12 680H201Q212 680 218 670L322 457H325L426 670Q430 680 443 680H630Q642 680 637 669L426 254V10Q426 0 416 0H226ZM244 738Q239 738 238 741T240 748L350 880Q358 890 368 890H535Q540 890 541 887T540 880L406 748Q396 738 385 738H244Z"  />
<glyph unicode="&#xDE;" horiz-adv-x="620" d="M54 0Q44 0 44 10V670Q44 680 54 680H243Q253 680 253 670V589Q253 583 259 583H335Q405 583 456 566T540 517T588 442T604 348Q604 298 588 256T539 181T455 131T335 113H259Q253 113 253 107V10Q253 0 243 0H54ZM324 287Q359 287 376 303T394 348Q394 377 377 393T324 409H259Q253 409 253 403V293Q253 287 259 287H324Z"  />
<glyph unicode="&#xDF;" horiz-adv-x="598" d="M290 -6Q280 -6 280 4V132Q280 142 290 142H314Q362 142 374 180Q376 187 377 197T378 230Q378 253 377 263T374 280Q362 318 314 318H294Q284 318 284 328V453Q284 463 294 463H319Q345 463 355 472T366 501Q366 518 353 528T307 538Q270 538 254 523T238 475V10Q238 0 228 0H52Q42 0 42 10V475Q42 581 104 636T307 692Q368 692 415 679T494 643T543 587T560 516Q560 471 546 443T501 394V392Q547 370 564 317Q569 303 571 282T574 224Q574 174 571 149T562 105Q542 44 487 19T337 -6H290Z"  />
<glyph unicode="&#xE0;" horiz-adv-x="537" d="M319 0Q309 0 309 10V34H308Q288 13 258 1T180 -12Q150 -12 122 -4T72 23T37 70T24 139Q24 181 40 212T86 263T154 293T239 303H304Q310 303 310 309V317Q310 335 294 343T224 351Q195 351 167 344T122 326Q113 321 109 329L49 437Q43 448 52 454Q87 477 139 489T252 502Q321 502 368 491T444 456T485 396T498 312V10Q498 0 488 0H319ZM253 124Q284 124 297 132T310 159V185Q310 191 304 191H257Q234 191 222 182T210 156Q210 124 253 124ZM235 540Q226 540 219 550L113 694Q111 697 112 700T118 704H283Q293 704 300 694L383 550Q388 540 378 540H235Z"  />
<glyph unicode="&#xE1;" horiz-adv-x="537" d="M319 0Q309 0 309 10V34H308Q288 13 258 1T180 -12Q150 -12 122 -4T72 23T37 70T24 139Q24 181 40 212T86 263T154 293T239 303H304Q310 303 310 309V317Q310 335 294 343T224 351Q195 351 167 344T122 326Q113 321 109 329L49 437Q43 448 52 454Q87 477 139 489T252 502Q321 502 368 491T444 456T485 396T498 312V10Q498 0 488 0H319ZM253 124Q284 124 297 132T310 159V185Q310 191 304 191H257Q234 191 222 182T210 156Q210 124 253 124ZM193 540Q183 540 188 550L271 694Q278 704 288 704H453Q458 704 459 701T458 694L352 550Q344 540 336 540H193Z"  />
<glyph unicode="&#xE2;" horiz-adv-x="537" d="M319 0Q309 0 309 10V34H308Q288 13 258 1T180 -12Q150 -12 122 -4T72 23T37 70T24 139Q24 181 40 212T86 263T154 293T239 303H304Q310 303 310 309V317Q310 335 294 343T224 351Q195 351 167 344T122 326Q113 321 109 329L49 437Q43 448 52 454Q87 477 139 489T252 502Q321 502 368 491T444 456T485 396T498 312V10Q498 0 488 0H319ZM253 124Q284 124 297 132T310 159V185Q310 191 304 191H257Q234 191 222 182T210 156Q210 124 253 124ZM337 538Q323 538 313 548L269 592H267L223 548Q213 538 199 538H86Q81 538 80 541T81 548L195 692Q202 702 214 702H322Q334 702 341 692L455 548Q458 544 457 541T450 538H337Z"  />
<glyph unicode="&#xE3;" horiz-adv-x="537" d="M319 0Q309 0 309 10V34H308Q288 13 258 1T180 -12Q150 -12 122 -4T72 23T37 70T24 139Q24 181 40 212T86 263T154 293T239 303H304Q310 303 310 309V317Q310 335 294 343T224 351Q195 351 167 344T122 326Q113 321 109 329L49 437Q43 448 52 454Q87 477 139 489T252 502Q321 502 368 491T444 456T485 396T498 312V10Q498 0 488 0H319ZM253 124Q284 124 297 132T310 159V185Q310 191 304 191H257Q234 191 222 182T210 156Q210 124 253 124ZM344 536Q312 536 291 544T250 562Q236 569 222 574T189 579Q166 579 148 571T108 546Q97 539 97 550V642Q97 656 107 666Q125 683 146 694T193 705Q225 705 246 697T287 679Q301 672 315 667T348 662Q371 662 389 670T429 695Q440 702 440 691V599Q440 591 438 586T430 575Q412 558 391 547T344 536Z"  />
<glyph unicode="&#xE4;" horiz-adv-x="537" d="M319 0Q309 0 309 10V34H308Q288 13 258 1T180 -12Q150 -12 122 -4T72 23T37 70T24 139Q24 181 40 212T86 263T154 293T239 303H304Q310 303 310 309V317Q310 335 294 343T224 351Q195 351 167 344T122 326Q113 321 109 329L49 437Q43 448 52 454Q87 477 139 489T252 502Q321 502 368 491T444 456T485 396T498 312V10Q498 0 488 0H319ZM253 124Q284 124 297 132T310 159V185Q310 191 304 191H257Q234 191 222 182T210 156Q210 124 253 124ZM310 536Q300 536 300 546V670Q300 680 310 680H436Q446 680 446 670V546Q446 536 436 536H310ZM100 536Q90 536 90 546V670Q90 680 100 680H226Q236 680 236 670V546Q236 536 226 536H100Z"  />
<glyph unicode="&#xE5;" horiz-adv-x="537" d="M319 0Q309 0 309 10V34H308Q288 13 258 1T180 -12Q150 -12 122 -4T72 23T37 70T24 139Q24 181 40 212T86 263T154 293T239 303H304Q310 303 310 309V317Q310 335 294 343T224 351Q195 351 167 344T122 326Q113 321 109 329L49 437Q43 448 52 454Q87 477 139 489T252 502Q321 502 368 491T444 456T485 396T498 312V10Q498 0 488 0H319ZM253 124Q284 124 297 132T310 159V185Q310 191 304 191H257Q234 191 222 182T210 156Q210 124 253 124ZM268 512Q214 512 179 546T144 634Q144 688 179 722T268 756Q322 756 357 722T392 634Q392 580 357 546T268 512ZM268 593Q285 593 296 604T308 634Q308 652 297 663T268 675Q251 675 240 664T228 634Q228 616 239 605T268 593Z"  />
<glyph unicode="&#xE6;" horiz-adv-x="822" d="M564 -12Q515 -12 471 5T400 52H399Q369 19 326 4T213 -12Q24 -12 24 139Q24 181 40 212T86 263T154 293T239 303H304Q310 303 310 309V317Q310 335 294 343T224 351Q195 351 167 344T122 326Q113 321 109 329L49 437Q43 448 52 454Q87 477 139 489T252 502Q307 502 346 491T418 463H419Q440 477 473 489T551 502Q646 502 703 465T784 357Q791 336 795 302T799 201Q799 191 789 191H504Q498 191 498 185Q498 181 500 175Q507 155 530 144T587 133Q642 133 694 169Q702 174 708 167L786 81Q793 74 784 66Q741 28 685 8T564 -12ZM604 303Q610 303 610 309Q610 324 607 333Q596 367 554 367Q512 367 501 333Q498 324 498 309Q498 303 504 303H604ZM253 124Q284 124 297 132T310 159V185Q310 191 304 191H257Q234 191 222 182T210 156Q210 124 253 124Z"  />
<glyph unicode="&#xE7;" horiz-adv-x="504" d="M133 -172Q123 -172 126 -162L188 -3Q133 10 94 44T36 136Q29 156 26 181T23 245Q23 283 26 308T36 354Q60 429 120 465T264 502Q307 502 343 492T408 463T457 420T487 367Q490 358 482 354L341 294Q336 292 331 292T324 298Q315 323 303 332T272 342Q240 342 230 312Q228 305 227 292T225 245Q225 211 226 198T230 178Q240 148 272 148Q291 148 303 157T324 192Q326 198 331 198T341 196L482 136Q490 132 487 123Q471 78 431 44T331 -4L286 -162Q283 -172 271 -172H133Z"  />
<glyph unicode="&#xE8;" horiz-adv-x="539" d="M281 -12Q184 -12 123 27T38 136Q31 156 27 181T23 245Q23 284 27 309T38 354Q61 426 120 464T268 502Q363 502 420 465T501 357Q508 336 512 302T516 201Q516 191 506 191H221Q215 191 215 185Q215 181 217 175Q224 155 247 144T304 133Q359 133 411 169Q419 174 425 167L503 81Q510 74 501 66Q458 28 402 8T281 -12ZM321 303Q327 303 327 309Q327 324 324 333Q313 367 271 367Q229 367 218 333Q215 324 215 309Q215 303 221 303H321ZM213 540Q204 540 197 550L91 694Q89 697 90 700T96 704H261Q271 704 278 694L361 550Q366 540 356 540H213Z"  />
<glyph unicode="&#xE9;" horiz-adv-x="539" d="M281 -12Q184 -12 123 27T38 136Q31 156 27 181T23 245Q23 284 27 309T38 354Q61 426 120 464T268 502Q363 502 420 465T501 357Q508 336 512 302T516 201Q516 191 506 191H221Q215 191 215 185Q215 181 217 175Q224 155 247 144T304 133Q359 133 411 169Q419 174 425 167L503 81Q510 74 501 66Q458 28 402 8T281 -12ZM321 303Q327 303 327 309Q327 324 324 333Q313 367 271 367Q229 367 218 333Q215 324 215 309Q215 303 221 303H321ZM190 540Q180 540 185 550L268 694Q275 704 285 704H450Q455 704 456 701T455 694L349 550Q341 540 333 540H190Z"  />
<glyph unicode="&#xEA;" horiz-adv-x="539" d="M281 -12Q184 -12 123 27T38 136Q31 156 27 181T23 245Q23 284 27 309T38 354Q61 426 120 464T268 502Q363 502 420 465T501 357Q508 336 512 302T516 201Q516 191 506 191H221Q215 191 215 185Q215 181 217 175Q224 155 247 144T304 133Q359 133 411 169Q419 174 425 167L503 81Q510 74 501 66Q458 28 402 8T281 -12ZM321 303Q327 303 327 309Q327 324 324 333Q313 367 271 367Q229 367 218 333Q215 324 215 309Q215 303 221 303H321ZM338 538Q324 538 314 548L270 592H268L224 548Q214 538 200 538H87Q82 538 81 541T82 548L196 692Q203 702 215 702H323Q335 702 342 692L456 548Q459 544 458 541T451 538H338Z"  />
<glyph unicode="&#xEB;" horiz-adv-x="539" d="M281 -12Q184 -12 123 27T38 136Q31 156 27 181T23 245Q23 284 27 309T38 354Q61 426 120 464T268 502Q363 502 420 465T501 357Q508 336 512 302T516 201Q516 191 506 191H221Q215 191 215 185Q215 181 217 175Q224 155 247 144T304 133Q359 133 411 169Q419 174 425 167L503 81Q510 74 501 66Q458 28 402 8T281 -12ZM321 303Q327 303 327 309Q327 324 324 333Q313 367 271 367Q229 367 218 333Q215 324 215 309Q215 303 221 303H321ZM311 536Q301 536 301 546V670Q301 680 311 680H437Q447 680 447 670V546Q447 536 437 536H311ZM101 536Q91 536 91 546V670Q91 680 101 680H227Q237 680 237 670V546Q237 536 227 536H101Z"  />
<glyph unicode="&#xEC;" horiz-adv-x="284" d="M52 0Q42 0 42 10V480Q42 490 52 490H232Q242 490 242 480V10Q242 0 232 0H52ZM75 540Q66 540 59 550L-47 694Q-49 697 -48 700T-42 704H123Q133 704 140 694L223 550Q228 540 218 540H75Z"  />
<glyph unicode="&#xED;" horiz-adv-x="284" d="M52 0Q42 0 42 10V480Q42 490 52 490H232Q242 490 242 480V10Q242 0 232 0H52ZM70 540Q60 540 65 550L148 694Q155 704 165 704H330Q335 704 336 701T335 694L229 550Q221 540 213 540H70Z"  />
<glyph unicode="&#xEE;" horiz-adv-x="284" d="M52 0Q42 0 42 10V480Q42 490 52 490H232Q242 490 242 480V10Q242 0 232 0H52ZM213 538Q199 538 189 548L145 592H143L99 548Q89 538 75 538H-38Q-43 538 -44 541T-43 548L71 692Q78 702 90 702H198Q210 702 217 692L331 548Q334 544 333 541T326 538H213Z"  />
<glyph unicode="&#xEF;" horiz-adv-x="284" d="M52 0Q42 0 42 10V480Q42 490 52 490H232Q242 490 242 480V10Q242 0 232 0H52ZM186 536Q176 536 176 546V670Q176 680 186 680H312Q322 680 322 670V546Q322 536 312 536H186ZM-24 536Q-34 536 -34 546V670Q-34 680 -24 680H102Q112 680 112 670V546Q112 536 102 536H-24Z"  />
<glyph unicode="&#xF0;" horiz-adv-x="546" d="M385 540Q425 485 452 443T494 366T516 297T523 226Q523 201 520 180T510 139Q487 67 426 28T273 -12Q177 -12 117 26T37 128Q29 151 26 171T23 215Q23 238 25 261T36 307Q54 362 98 397T211 432Q236 432 251 426T275 415H277L221 492L122 463Q113 461 110 470L86 552Q83 561 93 564L155 582L92 670Q89 674 90 677T96 680H270Q283 680 291 671L320 631L409 657Q419 659 422 650L446 569Q448 559 439 556L385 540ZM273 147Q307 147 317 176Q322 191 322 215Q322 240 317 255Q307 284 273 284Q239 284 229 255Q224 240 224 215Q224 191 229 176Q239 147 273 147Z"  />
<glyph unicode="&#xF1;" horiz-adv-x="564" d="M334 0Q324 0 324 10V288Q324 338 283 338Q242 338 242 288V10Q242 0 232 0H52Q42 0 42 10V480Q42 490 52 490H232Q242 490 242 480V444H243Q260 470 291 486T367 502Q410 502 440 489T489 452T516 394T524 319V10Q524 0 514 0H334ZM357 536Q325 536 304 544T263 562Q249 569 235 574T202 579Q179 579 161 571T121 546Q110 539 110 550V642Q110 656 120 666Q138 683 159 694T206 705Q238 705 259 697T300 679Q314 672 328 667T361 662Q384 662 402 670T442 695Q453 702 453 691V599Q453 591 451 586T443 575Q425 558 404 547T357 536Z"  />
<glyph unicode="&#xF2;" horiz-adv-x="546" d="M273 -12Q189 -12 126 24T38 134Q29 161 26 189T23 245Q23 273 26 301T38 356Q62 430 125 466T273 502Q357 502 420 466T508 356Q517 329 520 301T523 245Q523 217 520 189T508 134Q484 60 421 24T273 -12ZM273 148Q288 148 299 154T315 176Q318 186 319 200T321 245Q321 276 320 290T315 314Q310 330 299 336T273 342Q258 342 247 336T231 314Q228 304 227 290T225 245Q225 214 226 200T231 176Q236 160 247 154T273 148ZM212 540Q203 540 196 550L90 694Q88 697 89 700T95 704H260Q270 704 277 694L360 550Q365 540 355 540H212Z"  />
<glyph unicode="&#xF3;" horiz-adv-x="546" d="M273 -12Q189 -12 126 24T38 134Q29 161 26 189T23 245Q23 273 26 301T38 356Q62 430 125 466T273 502Q357 502 420 466T508 356Q517 329 520 301T523 245Q523 217 520 189T508 134Q484 60 421 24T273 -12ZM273 148Q288 148 299 154T315 176Q318 186 319 200T321 245Q321 276 320 290T315 314Q310 330 299 336T273 342Q258 342 247 336T231 314Q228 304 227 290T225 245Q225 214 226 200T231 176Q236 160 247 154T273 148ZM193 540Q183 540 188 550L271 694Q278 704 288 704H453Q458 704 459 701T458 694L352 550Q344 540 336 540H193Z"  />
<glyph unicode="&#xF4;" horiz-adv-x="546" d="M273 -12Q189 -12 126 24T38 134Q29 161 26 189T23 245Q23 273 26 301T38 356Q62 430 125 466T273 502Q357 502 420 466T508 356Q517 329 520 301T523 245Q523 217 520 189T508 134Q484 60 421 24T273 -12ZM273 148Q288 148 299 154T315 176Q318 186 319 200T321 245Q321 276 320 290T315 314Q310 330 299 336T273 342Q258 342 247 336T231 314Q228 304 227 290T225 245Q225 214 226 200T231 176Q236 160 247 154T273 148ZM342 538Q328 538 318 548L274 592H272L228 548Q218 538 204 538H91Q86 538 85 541T86 548L200 692Q207 702 219 702H327Q339 702 346 692L460 548Q463 544 462 541T455 538H342Z"  />
<glyph unicode="&#xF5;" horiz-adv-x="546" d="M273 -12Q189 -12 126 24T38 134Q29 161 26 189T23 245Q23 273 26 301T38 356Q62 430 125 466T273 502Q357 502 420 466T508 356Q517 329 520 301T523 245Q523 217 520 189T508 134Q484 60 421 24T273 -12ZM273 148Q288 148 299 154T315 176Q318 186 319 200T321 245Q321 276 320 290T315 314Q310 330 299 336T273 342Q258 342 247 336T231 314Q228 304 227 290T225 245Q225 214 226 200T231 176Q236 160 247 154T273 148ZM348 536Q316 536 295 544T254 562Q240 569 226 574T193 579Q170 579 152 571T112 546Q101 539 101 550V642Q101 656 111 666Q129 683 150 694T197 705Q229 705 250 697T291 679Q305 672 319 667T352 662Q375 662 393 670T433 695Q444 702 444 691V599Q444 591 442 586T434 575Q416 558 395 547T348 536Z"  />
<glyph unicode="&#xF6;" horiz-adv-x="546" d="M273 -12Q189 -12 126 24T38 134Q29 161 26 189T23 245Q23 273 26 301T38 356Q62 430 125 466T273 502Q357 502 420 466T508 356Q517 329 520 301T523 245Q523 217 520 189T508 134Q484 60 421 24T273 -12ZM273 148Q288 148 299 154T315 176Q318 186 319 200T321 245Q321 276 320 290T315 314Q310 330 299 336T273 342Q258 342 247 336T231 314Q228 304 227 290T225 245Q225 214 226 200T231 176Q236 160 247 154T273 148ZM315 536Q305 536 305 546V670Q305 680 315 680H441Q451 680 451 670V546Q451 536 441 536H315ZM105 536Q95 536 95 546V670Q95 680 105 680H231Q241 680 241 670V546Q241 536 231 536H105Z"  />
<glyph unicode="&#xF7;" horiz-adv-x="570" d="M285 391Q245 391 218 418T190 486Q190 526 217 553T285 581Q325 581 352 554T380 486Q380 446 353 419T285 391ZM52 194Q42 194 42 204V348Q42 358 52 358H518Q528 358 528 348V204Q528 194 518 194H52ZM285 -29Q245 -29 218 -2T190 66Q190 106 217 133T285 161Q325 161 352 134T380 66Q380 26 353 -1T285 -29Z"  />
<glyph unicode="&#xF8;" horiz-adv-x="546" d="M7 -30Q2 -30 1 -27T3 -20L72 70Q50 96 38 134Q29 161 26 189T23 245Q23 273 26 301T38 356Q62 430 125 466T273 502Q340 502 391 480L414 510Q421 520 433 520H539Q544 520 545 517T543 510L473 420Q496 393 508 356Q517 329 520 301T523 245Q523 217 520 189T508 134Q484 60 421 24T273 -12Q206 -12 154 9L132 -20Q125 -30 113 -30H7ZM273 148Q288 148 299 154T315 176Q318 186 319 200T321 245Q321 276 320 290T315 314Q310 330 299 336T273 342Q258 342 247 336T231 314Q228 304 227 290T225 245Q225 214 226 200T231 176Q236 160 247 154T273 148Z"  />
<glyph unicode="&#xF9;" horiz-adv-x="562" d="M330 0Q320 0 320 10V46H319Q302 20 271 4T195 -12Q151 -12 122 1T74 38T47 96T39 171V480Q39 490 49 490H229Q239 490 239 480V202Q239 152 280 152Q320 152 320 202V480Q320 490 330 490H510Q520 490 520 480V10Q520 0 510 0H330ZM220 540Q211 540 204 550L98 694Q96 697 97 700T103 704H268Q278 704 285 694L368 550Q373 540 363 540H220Z"  />
<glyph unicode="&#xFA;" horiz-adv-x="562" d="M330 0Q320 0 320 10V46H319Q302 20 271 4T195 -12Q151 -12 122 1T74 38T47 96T39 171V480Q39 490 49 490H229Q239 490 239 480V202Q239 152 280 152Q320 152 320 202V480Q320 490 330 490H510Q520 490 520 480V10Q520 0 510 0H330ZM198 540Q188 540 193 550L276 694Q283 704 293 704H458Q463 704 464 701T463 694L357 550Q349 540 341 540H198Z"  />
<glyph unicode="&#xFB;" horiz-adv-x="562" d="M330 0Q320 0 320 10V46H319Q302 20 271 4T195 -12Q151 -12 122 1T74 38T47 96T39 171V480Q39 490 49 490H229Q239 490 239 480V202Q239 152 280 152Q320 152 320 202V480Q320 490 330 490H510Q520 490 520 480V10Q520 0 510 0H330ZM350 538Q336 538 326 548L282 592H280L236 548Q226 538 212 538H99Q94 538 93 541T94 548L208 692Q215 702 227 702H335Q347 702 354 692L468 548Q471 544 470 541T463 538H350Z"  />
<glyph unicode="&#xFC;" horiz-adv-x="562" d="M330 0Q320 0 320 10V46H319Q302 20 271 4T195 -12Q151 -12 122 1T74 38T47 96T39 171V480Q39 490 49 490H229Q239 490 239 480V202Q239 152 280 152Q320 152 320 202V480Q320 490 330 490H510Q520 490 520 480V10Q520 0 510 0H330ZM323 536Q313 536 313 546V670Q313 680 323 680H449Q459 680 459 670V546Q459 536 449 536H323ZM113 536Q103 536 103 546V670Q103 680 113 680H239Q249 680 249 670V546Q249 536 239 536H113Z"  />
<glyph unicode="&#xFD;" horiz-adv-x="559" d="M99 -180Q89 -180 89 -170V-30Q89 -20 99 -20H129Q150 -20 163 -14T183 12L192 37L4 480Q0 490 11 490H200Q210 490 213 480L283 279H285L349 480Q352 490 362 490H548Q559 490 555 480L326 -71Q312 -103 296 -124T258 -157T207 -175T140 -180H99ZM202 540Q192 540 197 550L280 694Q287 704 297 704H462Q467 704 468 701T467 694L361 550Q353 540 345 540H202Z"  />
<glyph unicode="&#xFE;" horiz-adv-x="563" d="M52 -180Q42 -180 42 -170V670Q42 680 52 680H232Q242 680 242 670V444H243Q259 470 290 486T366 502Q429 502 467 472T523 385Q533 355 536 322T540 245Q540 202 537 169T523 105Q505 48 467 18T366 -12Q321 -12 290 4T243 46H242V-170Q242 -180 232 -180H52ZM290 148Q305 148 316 154T332 176Q335 186 336 200T338 245Q338 276 337 290T332 314Q327 330 316 336T290 342Q275 342 264 336T248 314Q245 304 244 290T242 245Q242 214 243 200T248 176Q253 160 264 154T290 148Z"  />
<glyph unicode="&#xFF;" horiz-adv-x="559" d="M99 -180Q89 -180 89 -170V-30Q89 -20 99 -20H129Q150 -20 163 -14T183 12L192 37L4 480Q0 490 11 490H200Q210 490 213 480L283 279H285L349 480Q352 490 362 490H548Q559 490 555 480L326 -71Q312 -103 296 -124T258 -157T207 -175T140 -180H99ZM321 536Q311 536 311 546V670Q311 680 321 680H447Q457 680 457 670V546Q457 536 447 536H321ZM111 536Q101 536 101 546V670Q101 680 111 680H237Q247 680 247 670V546Q247 536 237 536H111Z"  />
<glyph unicode="&#x110;" horiz-adv-x="635" d="M54 0Q44 0 44 10V269Q44 275 38 275H12Q2 275 2 285V402Q2 412 12 412H38Q44 412 44 418V670Q44 680 54 680H327Q420 680 486 642T579 522Q585 504 589 486T595 448T599 401T600 340Q600 305 599 279T596 233T589 194T579 158Q552 76 486 38T327 0H54ZM284 186Q325 186 347 197T379 238Q382 246 383 254T386 273T387 300T388 340Q388 364 388 379T386 406T384 426T379 442Q369 472 347 483T284 494H260Q254 494 254 488V418Q254 412 260 412H314Q324 412 324 402V285Q324 275 314 275H260Q254 275 254 269V192Q254 186 260 186H284Z"  />
<glyph unicode="&#x131;" horiz-adv-x="284" d="M52 0Q42 0 42 10V480Q42 490 52 490H232Q242 490 242 480V10Q242 0 232 0H52Z"  />
<glyph unicode="&#x152;" horiz-adv-x="891" d="M396 0Q386 0 386 10V25H383Q370 11 345 0T274 -12Q105 -12 52 152Q46 171 42 189T35 230T31 278T30 340Q30 375 31 401T35 450T42 490T52 528Q105 692 274 692Q319 692 344 681T383 655H386V670Q386 680 396 680H851Q861 680 861 670V516Q861 506 851 506H600Q594 506 594 500V434Q594 428 600 428H801Q811 428 811 418V268Q811 258 801 258H600Q594 258 594 252V180Q594 174 600 174H851Q861 174 861 164V10Q861 0 851 0H396ZM314 174Q337 174 354 185T378 217Q383 233 384 259T386 340Q386 367 386 386T385 420T383 444T378 463Q371 484 354 495T314 506Q291 506 274 495T250 463Q247 455 246 445T244 420T243 387T242 340Q242 286 243 260T250 217Q257 196 274 185T314 174Z"  />
<glyph unicode="&#x153;" horiz-adv-x="837" d="M579 -12Q485 -12 423 32H422Q391 9 354 -1T273 -12Q189 -12 126 24T38 134Q29 161 26 189T23 245Q23 273 26 301T38 356Q62 430 125 466T273 502Q315 502 352 492T422 458H423Q449 477 485 489T566 502Q661 502 718 465T799 357Q806 336 810 302T814 201Q814 191 804 191H519Q513 191 513 185Q513 181 515 175Q522 155 545 144T602 133Q657 133 709 169Q717 174 723 167L801 81Q808 74 799 66Q756 28 700 8T579 -12ZM619 303Q625 303 625 309Q625 324 622 333Q611 367 569 367Q527 367 516 333Q513 324 513 309Q513 303 519 303H619ZM273 148Q288 148 299 154T315 176Q318 186 319 200T321 245Q321 276 320 290T315 314Q310 330 299 336T273 342Q258 342 247 336T231 314Q228 304 227 290T225 245Q225 214 226 200T231 176Q236 160 247 154T273 148Z"  />
<glyph unicode="&#x160;" horiz-adv-x="617" d="M306 -12Q262 -12 219 -4T139 18T70 50T20 88Q17 91 16 96T19 106L125 231Q131 239 138 232Q167 206 211 186T304 166Q344 166 363 178T382 210Q382 224 370 232T318 246L282 251Q164 268 104 321T43 476Q43 524 61 564T114 632T198 676T308 692Q384 692 450 672T565 614Q575 608 567 597L477 469Q471 461 463 466Q430 488 393 501T316 515Q286 515 272 505T258 478Q258 463 272 455T323 441L359 436Q480 419 538 366T597 210Q597 162 578 121T523 51T432 5T306 -12ZM254 726Q242 726 235 736L121 880Q118 884 119 887T126 890H239Q247 890 252 888T263 880L307 836H309L353 880Q359 886 364 888T377 890H490Q495 890 496 887T495 880L381 736Q374 726 362 726H254Z"  />
<glyph unicode="&#x161;" horiz-adv-x="520" d="M257 -12Q179 -12 117 7T10 62Q3 69 9 76L88 176Q94 182 102 178Q150 151 189 140T270 128Q296 128 306 134T317 150Q317 158 309 162T267 170L211 176Q126 185 79 224T31 337Q31 412 90 457T256 502Q328 502 386 485T482 440Q490 434 483 425L413 332Q407 324 398 329Q368 346 333 356T256 366Q216 366 216 347Q216 340 223 336T259 329L315 323Q368 317 404 303T462 268T493 220T502 161Q500 82 436 35T257 -12ZM202 534Q190 534 183 544L69 688Q66 692 67 695T74 698H187Q195 698 200 696T211 688L255 644H257L301 688Q307 694 312 696T325 698H438Q443 698 444 695T443 688L329 544Q322 534 310 534H202Z"  />
<glyph unicode="&#x178;" horiz-adv-x="641" d="M226 0Q216 0 216 10V254L5 669Q-1 680 12 680H201Q212 680 218 670L322 457H325L426 670Q430 680 443 680H630Q642 680 637 669L426 254V10Q426 0 416 0H226ZM362 739Q352 739 352 749V873Q352 883 362 883H488Q498 883 498 873V749Q498 739 488 739H362ZM152 739Q142 739 142 749V873Q142 883 152 883H278Q288 883 288 873V749Q288 739 278 739H152Z"  />
<glyph unicode="&#x17D;" horiz-adv-x="580" d="M40 0Q30 0 30 10V172Q30 177 33 182L302 491V494H51Q41 494 41 504V670Q41 680 51 680H540Q550 680 550 670V508Q550 502 547 498L277 189V186H540Q550 186 550 176V10Q550 0 540 0H40ZM238 726Q226 726 219 736L105 880Q102 884 103 887T110 890H223Q231 890 236 888T247 880L291 836H293L337 880Q343 886 348 888T361 890H474Q479 890 480 887T479 880L365 736Q358 726 346 726H238Z"  />
<glyph unicode="&#x17E;" horiz-adv-x="499" d="M42 0Q32 0 32 10V139Q32 144 35 149L234 333V336H53Q43 336 43 346V480Q43 490 53 490H459Q469 490 469 480V346Q469 340 466 336L268 157V154H459Q469 154 469 144V10Q469 0 459 0H42ZM202 534Q190 534 183 544L69 688Q66 692 67 695T74 698H187Q195 698 200 696T211 688L255 644H257L301 688Q307 694 312 696T325 698H438Q443 698 444 695T443 688L329 544Q322 534 310 534H202Z"  />
<glyph unicode="&#x192;" horiz-adv-x="570" d="M389 289L346 11Q337 -44 320 -81T275 -140T209 -171T122 -180H81Q71 -180 71 -170V-28Q71 -18 81 -18H104Q127 -18 138 -8T153 25L194 289H140Q130 289 130 299V425Q130 435 140 435H216L225 489Q234 544 251 581T296 640T361 671T449 680H490Q500 680 500 670V528Q500 518 490 518H467Q444 518 433 508T418 475L412 435H468Q478 435 478 425V299Q478 289 468 289H389Z"  />
<glyph unicode="&#x2C6;" horiz-adv-x="530" d="M334 538Q320 538 310 548L266 592H264L220 548Q210 538 196 538H83Q78 538 77 541T78 548L192 692Q199 702 211 702H319Q331 702 338 692L452 548Q455 544 454 541T447 538H334Z"  />
<glyph unicode="&#x2C7;" horiz-adv-x="530" d="M211 534Q199 534 192 544L78 688Q75 692 76 695T83 698H196Q204 698 209 696T220 688L264 644H266L310 688Q316 694 321 696T334 698H447Q452 698 453 695T452 688L338 544Q331 534 319 534H211Z"  />
<glyph unicode="&#x2DA;" horiz-adv-x="530" d="M265 512Q211 512 176 546T141 634Q141 688 176 722T265 756Q319 756 354 722T389 634Q389 580 354 546T265 512ZM265 593Q282 593 293 604T305 634Q305 652 294 663T265 675Q248 675 237 664T225 634Q225 616 236 605T265 593Z"  />
<glyph unicode="&#x2DC;" horiz-adv-x="530" d="M341 536Q309 536 288 544T247 562Q233 569 219 574T186 579Q163 579 145 571T105 546Q94 539 94 550V642Q94 656 104 666Q122 683 143 694T190 705Q222 705 243 697T284 679Q298 672 312 667T345 662Q368 662 386 670T426 695Q437 702 437 691V599Q437 591 435 586T427 575Q409 558 388 547T341 536Z"  />
<glyph unicode="&#x3BC;" horiz-adv-x="565" d="M333 0Q323 0 323 10V46H322Q312 31 298 19T263 1Q258 -1 253 -1T242 -3V-170Q242 -180 232 -180H52Q42 -180 42 -170V480Q42 490 52 490H232Q242 490 242 480V202Q242 152 283 152Q323 152 323 202V480Q323 490 333 490H513Q523 490 523 480V10Q523 0 513 0H333Z"  />
<glyph unicode="&#x2013;" horiz-adv-x="570" d="M30 181Q20 181 20 191V339Q20 349 30 349H540Q550 349 550 339V191Q550 181 540 181H30Z"  />
<glyph unicode="&#x2014;" horiz-adv-x="952" d="M30 181Q20 181 20 191V339Q20 349 30 349H922Q932 349 932 339V191Q932 181 922 181H30Z"  />
<glyph unicode="&#x2018;" horiz-adv-x="248" d="M58 436Q48 436 48 446V574Q48 590 58 596L170 674Q181 682 188 682Q200 682 200 669V446Q200 436 190 436H58Z"  />
<glyph unicode="&#x2019;" horiz-adv-x="248" d="M60 434Q48 434 48 447V670Q48 680 58 680H190Q200 680 200 670V542Q200 526 190 520L78 442Q67 434 60 434Z"  />
<glyph unicode="&#x201A;" horiz-adv-x="248" d="M60 -89Q48 -89 48 -76V147Q48 157 58 157H190Q200 157 200 147V19Q200 3 190 -3L78 -81Q67 -89 60 -89Z"  />
<glyph unicode="&#x201C;" horiz-adv-x="460" d="M270 436Q260 436 260 446V574Q260 590 270 596L382 674Q393 682 400 682Q412 682 412 669V446Q412 436 402 436H270ZM58 436Q48 436 48 446V574Q48 590 58 596L170 674Q181 682 188 682Q200 682 200 669V446Q200 436 190 436H58Z"  />
<glyph unicode="&#x201D;" horiz-adv-x="460" d="M272 434Q260 434 260 447V670Q260 680 270 680H402Q412 680 412 670V542Q412 526 402 520L290 442Q279 434 272 434ZM60 434Q48 434 48 447V670Q48 680 58 680H190Q200 680 200 670V542Q200 526 190 520L78 442Q67 434 60 434Z"  />
<glyph unicode="&#x201E;" horiz-adv-x="460" d="M272 -89Q260 -89 260 -76V147Q260 157 270 157H402Q412 157 412 147V19Q412 3 402 -3L290 -81Q279 -89 272 -89ZM60 -89Q48 -89 48 -76V147Q48 157 58 157H190Q200 157 200 147V19Q200 3 190 -3L78 -81Q67 -89 60 -89Z"  />
<glyph unicode="&#x2020;" horiz-adv-x="581" d="M200 -180Q190 -180 190 -170V295Q190 301 184 301H40Q30 301 30 311V472Q30 482 40 482H184Q190 482 190 488V670Q190 680 200 680H381Q391 680 391 670V488Q391 482 397 482H541Q551 482 551 472V311Q551 301 541 301H397Q391 301 391 295V-170Q391 -180 381 -180H200Z"  />
<glyph unicode="&#x2021;" horiz-adv-x="581" d="M200 -180Q190 -180 190 -170V-28Q190 -22 184 -22H40Q30 -22 30 -12V149Q30 159 40 159H184Q190 159 190 165V335Q190 341 184 341H40Q30 341 30 351V512Q30 522 40 522H184Q190 522 190 528V670Q190 680 200 680H381Q391 680 391 670V528Q391 522 397 522H541Q551 522 551 512V351Q551 341 541 341H397Q391 341 391 335V165Q391 159 397 159H541Q551 159 551 149V-12Q551 -22 541 -22H397Q391 -22 391 -28V-170Q391 -180 381 -180H200Z"  />
<glyph unicode="&#x2022;" horiz-adv-x="510" d="M255 134Q217 134 185 147T130 184T94 239T80 309Q80 346 93 378T130 434T185 470T255 484Q292 484 324 471T380 434T416 379T430 309Q430 271 417 239T380 184T325 148T255 134Z"  />
<glyph unicode="&#x2026;" horiz-adv-x="804" d="M590 0Q580 0 580 10V170Q580 180 590 180H750Q760 180 760 170V10Q760 0 750 0H590ZM322 0Q312 0 312 10V170Q312 180 322 180H482Q492 180 492 170V10Q492 0 482 0H322ZM54 0Q44 0 44 10V170Q44 180 54 180H214Q224 180 224 170V10Q224 0 214 0H54Z"  />
<glyph unicode="&#x2030;" horiz-adv-x="1245" d="M181 -12Q176 -12 176 -9T177 -2L572 682Q578 692 588 692H710Q715 692 715 689T714 682L319 -2Q313 -12 303 -12H181ZM215 330Q158 330 122 353T72 418Q67 432 64 453T60 509Q60 544 63 565T72 600Q86 642 122 665T215 688Q272 688 308 665T358 600Q363 586 366 565T370 509Q370 474 367 453T358 418Q344 376 308 353T215 330ZM215 423Q230 423 234 436Q235 439 235 442T236 452T237 473T237 509Q237 531 237 544T237 564T236 575T234 582Q230 595 215 595Q200 595 196 582Q195 579 195 576T194 565T193 544T193 509Q193 487 193 474T193 453T194 442T196 436Q200 423 215 423ZM1030 -8Q973 -8 937 15T887 80Q882 94 879 115T875 171Q875 206 878 227T887 262Q901 304 937 327T1030 350Q1087 350 1123 327T1173 262Q1178 248 1181 227T1185 171Q1185 136 1182 115T1173 80Q1159 38 1123 15T1030 -8ZM676 -8Q619 -8 583 15T533 80Q528 94 525 115T521 171Q521 206 524 227T533 262Q547 304 583 327T676 350Q733 350 769 327T819 262Q824 248 827 227T831 171Q831 136 828 115T819 80Q805 38 769 15T676 -8ZM1030 85Q1045 85 1049 98Q1050 101 1050 104T1051 114T1052 135T1052 171Q1052 193 1052 206T1052 226T1051 237T1049 244Q1045 257 1030 257Q1015 257 1011 244Q1010 241 1010 238T1009 227T1008 206T1008 171Q1008 149 1008 136T1008 115T1009 104T1011 98Q1015 85 1030 85ZM676 85Q691 85 695 98Q696 101 696 104T697 114T698 135T698 171Q698 193 698 206T698 226T697 237T695 244Q691 257 676 257Q661 257 657 244Q656 241 656 238T655 227T654 206T654 171Q654 149 654 136T654 115T655 104T657 98Q661 85 676 85Z"  />
<glyph unicode="&#x2039;" horiz-adv-x="332" d="M15 257Q8 264 15 271L270 522Q273 525 276 524T280 518V356Q280 348 270 338L199 268Q195 264 199 260L270 190Q280 180 280 172V10Q280 5 277 4T270 6L15 257Z"  />
<glyph unicode="&#x203A;" horiz-adv-x="332" d="M62 6Q59 3 56 4T52 10V172Q52 180 62 190L133 260Q137 264 133 268L62 338Q52 348 52 356V518Q52 523 55 524T62 522L317 271Q324 264 317 257L62 6Z"  />
<glyph unicode="&#x2044;" horiz-adv-x="181" d="M-174 -12Q-179 -12 -179 -9T-178 -2L217 682Q223 692 233 692H355Q360 692 360 689T359 682L-36 -2Q-42 -12 -52 -12H-174Z"  />
<glyph unicode="&#x20AC;" horiz-adv-x="572" d="M323 -12Q231 -12 175 25T95 132Q88 153 85 178T81 235Q81 241 75 241H36Q26 241 26 251V314Q26 324 36 324H75Q81 324 81 330V353Q81 359 75 359H36Q26 359 26 369V432Q26 442 36 442H75Q81 442 81 448Q81 504 95 548Q118 618 174 655T323 692Q410 692 462 657T540 566Q544 556 535 552L396 491Q391 489 386 489T377 496Q370 513 358 522T328 532Q314 532 303 525T287 501Q285 495 284 485T283 448Q283 442 289 442H421Q431 442 431 432L421 369Q419 359 411 359H289Q283 359 283 353V330Q283 324 289 324H401Q411 324 411 314L401 251Q399 241 391 241H289Q283 241 283 235Q283 207 284 196T287 179Q292 162 303 155T328 148Q345 148 357 157T377 184Q380 191 385 191T396 189L535 128Q544 124 540 114Q515 59 463 24T323 -12Z"  />
<glyph unicode="&#x2122;" horiz-adv-x="836" d="M690 286Q680 286 680 296V471H677L625 349Q621 339 611 339H564Q554 339 550 349L498 471H495V296Q495 286 485 286H395Q385 286 385 296V670Q385 680 395 680H492Q503 680 507 670L587 490H591L670 670Q674 680 685 680H780Q790 680 790 670V296Q790 286 780 286H690ZM140 286Q130 286 130 296V565Q130 571 124 571H36Q26 571 26 581V670Q26 680 36 680H346Q356 680 356 670V581Q356 571 346 571H258Q252 571 252 565V296Q252 286 242 286H140Z"  />

</font>
</defs>
</svg>
