<?xml  version="1.0" encoding="UTF-8"?>
<!DOCTYPE svg PUBLIC "-//W3C//DTD SVG 1.0//EN" "http://www.w3.org/TR/2001/REC-SVG-20010904/DTD/svg10.dtd" >
<svg xmlns="http://www.w3.org/2000/svg" >
<metadata>
<version>1.0</version>
<id><![CDATA[DIN Next W01 Black Italic]]></id>
<vendor>Monotype Imaging Inc.</vendor>
<credits>
<name>Fonts.com WebFonts</name>
<URL>http://webfonts.fonts.com</URL>
<role>Home of the Web fonts</role>
</credits>
<license>
<URL>http://webfonts.fonts.com/Legal</URL>
</license>
<copyright><![CDATA[Copyright 2009 Monotype Imaging Inc. All rights reserved.]]></copyright>
<trademark><![CDATA[Felbridge! is a trademark of Monotype Imaging Inc. and may be registered in certain jurisdictions.]]></trademark>
<licensee>
<name></name>
</licensee>
</metadata>
<defs >
<font horiz-adv-x="524" id="1c343c91-343a-4326-84db-bcce4ce82979">
<font-face font-family="" panose-1="2 11 10 3 2 2 3 12 2 3" ascent="850" descent="-350" units-per-em="1000" alphabetic="0">
</font-face>
<missing-glyph horiz-adv-x="233" />

<glyph unicode="&#xA;" />
<glyph unicode="&#xD;" />
<glyph unicode=" " horiz-adv-x="233" />
<glyph unicode="!" horiz-adv-x="312" d="M99 219Q89 219 91 229L145 670Q147 680 156 680H330Q340 680 338 670L237 229Q235 219 227 219H99ZM63 146Q65 156 75 156H228Q238 156 236 146L212 10Q210 0 201 0H47Q37 0 39 10L63 146Z"  />
<glyph unicode="&quot;" horiz-adv-x="416" d="M288 440Q278 440 280 450L318 670Q320 680 329 680H442Q453 680 451 670L412 450Q410 440 400 440H288ZM97 440Q87 440 89 450L127 670Q129 680 138 680H251Q262 680 260 670L221 450Q219 440 210 440H97Z"  />
<glyph unicode="#" horiz-adv-x="630" d="M116 164H62Q51 164 53 174L74 294Q76 304 86 304H160L184 382H125Q114 382 116 392L137 512Q139 522 149 522H227L273 670Q276 680 286 680H427Q438 680 435 670L389 522H469L515 670Q518 680 527 680H668Q678 680 675 670L629 522H688Q699 522 697 512L676 392Q674 382 664 382H586L562 304H625Q636 304 634 294L613 174Q611 164 601 164H518L471 10Q468 0 458 0H317Q306 0 309 10L357 164H278L231 10Q228 0 218 0H77Q66 0 69 10L116 164ZM400 304L425 382H346L322 304H400Z"  />
<glyph unicode="$" horiz-adv-x="553" d="M8 66Q0 74 9 83L124 199Q132 207 140 199Q158 181 185 168T243 154Q274 154 295 170T317 218Q317 232 308 241T275 254L259 256Q175 266 132 312T88 429Q88 481 103 524T147 600T213 655T299 686L313 764Q315 774 325 774H427Q437 774 435 764L421 688Q467 680 501 665T558 633Q565 626 556 616L455 500Q447 492 441 497Q400 526 357 526Q325 526 307 512T288 471Q288 457 298 447T331 435L355 432Q439 421 479 381T519 274Q519 156 459 86T300 -4L286 -84Q283 -94 274 -94H173Q163 -94 165 -84L178 -8Q120 -1 77 19T8 66Z"  />
<glyph unicode="%" horiz-adv-x="854" d="M637 682Q644 692 655 692H773Q778 692 778 689T775 682L270 -2Q263 -12 252 -12H135Q130 -12 130 -9T133 -2L637 682ZM228 330Q174 330 140 359T105 446Q105 483 111 525T136 604Q177 688 292 688Q346 688 380 659T414 571Q414 526 407 488T383 414Q361 369 324 350T228 330ZM245 421Q252 421 256 424T266 437Q269 442 273 462T281 506T288 550T291 578Q291 597 275 597Q268 597 263 594T253 581Q250 576 246 556T238 512T231 468T228 440Q228 421 245 421ZM493 108Q493 145 499 187T524 266Q565 350 679 350Q733 350 767 321T802 233Q802 188 795 150T771 76Q749 31 711 12T616 -8Q562 -8 528 21T493 108ZM616 102Q616 83 632 83Q640 83 644 86T654 99Q657 104 661 124T669 168T676 212T679 240Q679 259 663 259Q655 259 651 256T641 243Q638 238 634 218T626 174T619 130T616 102Z"  />
<glyph unicode="&amp;" horiz-adv-x="627" d="M28 143Q28 173 34 199T57 252T103 307T177 369Q154 407 145 435T136 491Q136 536 152 573T197 636T269 677T365 692Q445 692 488 651T532 547Q532 520 525 496T500 448T454 399T382 342L421 277L509 356Q516 363 523 356L603 271Q609 264 602 257L496 154Q502 146 511 143T535 139H557Q567 139 565 129L544 10Q542 0 533 0H482Q439 0 416 10T373 47Q323 12 280 0T192 -12Q152 -12 122 1T70 36T39 85T28 143ZM312 459Q331 473 343 484T362 504T371 520T373 536Q373 552 365 560T343 568Q323 568 309 554T294 518Q294 504 297 492T312 459ZM195 178Q195 161 205 150T236 139Q250 139 263 145T299 169L248 252Q220 232 208 216T195 178Z"  />
<glyph unicode="&apos;" horiz-adv-x="226" d="M97 440Q87 440 89 450L128 670Q130 680 139 680H252Q263 680 261 670L222 450Q220 440 210 440H97Z"  />
<glyph unicode="(" horiz-adv-x="339" d="M131 -74Q98 -10 82 61T66 206Q66 346 120 482T273 730Q281 740 288 740H407Q412 740 413 738T412 730Q333 603 288 457T242 154Q242 94 249 37T270 -74Q273 -84 262 -84H143Q136 -84 131 -74Z"  />
<glyph unicode=")" horiz-adv-x="339" d="M-28 -74Q51 53 96 199T142 502Q142 562 135 619T114 730Q111 740 122 740H242Q249 740 254 730Q287 666 303 595T319 450Q319 310 265 174T112 -74Q104 -84 97 -84H-23Q-28 -84 -29 -82T-28 -74Z"  />
<glyph unicode="*" horiz-adv-x="431" d="M200 335Q190 335 192 345L207 423L137 385Q127 380 124 388L96 454Q92 464 101 468L181 510L118 550Q111 555 117 563L163 625Q169 633 177 628L237 587L250 670Q252 680 261 680H340Q350 680 348 670L333 591L404 630Q413 635 416 627L445 559Q448 551 439 546L361 505L423 467Q432 462 425 453L379 390Q373 381 365 387L304 428L292 345Q290 335 280 335H200Z"  />
<glyph unicode="+" horiz-adv-x="533" d="M197 191Q197 197 191 197H48Q38 197 38 207V345Q38 355 48 355H191Q197 355 197 361V507Q197 517 207 517H350Q360 517 360 507V361Q360 355 366 355H510Q520 355 520 345V207Q520 197 510 197H366Q360 197 360 191V45Q360 35 350 35H207Q197 35 197 45V191Z"  />
<glyph unicode="&#x2c;" horiz-adv-x="239" d="M27 155Q29 165 38 165H184Q195 165 193 155L169 14Q166 3 155 -6L12 -104Q0 -112 -7 -112Q-20 -112 -17 -96L27 155Z"  />
<glyph unicode="-" horiz-adv-x="389" d="M38 182Q27 182 29 192L55 338Q57 348 66 348H372Q383 348 381 338L356 192Q354 182 344 182H38Z"  />
<glyph unicode="." horiz-adv-x="247" d="M28 165Q30 175 39 175H194Q205 175 203 165L176 10Q174 0 165 0H11Q0 0 2 10L28 165Z"  />
<glyph unicode="/" horiz-adv-x="439" d="M313 682Q318 692 327 692H505Q515 692 510 682L184 -2Q179 -12 168 -12H-6Q-16 -12 -11 -2L313 682Z"  />
<glyph unicode="0" horiz-adv-x="553" d="M40 172Q40 201 46 252T63 360T86 466T112 544Q147 617 209 654T361 692Q404 692 441 681T506 646T548 588T564 508Q564 489 561 459T553 394T542 320T527 247T511 183T493 136Q458 63 395 26T244 -12Q200 -12 163 -1T98 34T56 92T40 172ZM234 180Q234 143 268 143Q297 143 311 172Q315 179 321 203T333 260T347 330T359 402T368 462T372 500Q372 537 337 537Q308 537 294 508Q290 501 285 477T273 420T259 350T247 278T238 218T234 180Z"  />
<glyph unicode="1" horiz-adv-x="553" d="M262 477H260L129 398Q124 395 121 396T119 404L148 570Q149 579 156 584L298 674Q307 680 317 680H481Q492 680 490 670L373 10Q371 0 362 0H189Q178 0 180 10L262 477Z"  />
<glyph unicode="2" horiz-adv-x="553" d="M43 139Q45 150 52 155L322 409Q351 437 362 456T373 498Q373 537 334 537Q312 537 294 522T266 464Q264 453 253 455L105 476Q97 477 99 487Q109 533 132 571T191 636T272 677T374 692Q419 692 454 680T513 645T551 593T564 527Q564 463 536 412T454 312L287 161L286 159H492Q503 159 501 149L476 10Q474 0 465 0H27Q17 0 19 10L43 139Z"  />
<glyph unicode="3" horiz-adv-x="553" d="M39 167Q39 177 49 179L205 200Q216 202 216 191Q217 169 229 156T265 143Q294 143 312 166T330 223Q330 272 278 272H252Q242 272 244 282L267 414Q269 424 279 424H303Q331 424 349 443T367 496Q367 537 328 537Q308 537 293 524T270 489Q266 480 258 481L107 501Q99 503 102 512Q115 551 139 584T196 641T273 678T367 692Q414 692 450 681T510 648T547 599T560 538Q560 481 533 438T458 365V363Q483 347 500 320T518 244Q518 188 497 141T438 60T351 7T243 -12Q142 -12 88 37T39 167Z"  />
<glyph unicode="4" horiz-adv-x="553" d="M28 92Q18 92 20 102L46 254Q47 261 51 267L285 671Q290 680 301 680H486Q497 680 491 669L252 259L251 256H311Q318 256 318 262L335 357Q337 367 347 367H508Q518 367 516 357L500 262Q498 256 504 256H535Q546 256 544 246L518 102Q516 92 507 92H475Q469 92 468 86L455 10Q453 0 444 0H283Q272 0 274 10L287 86Q288 92 282 92H28Z"  />
<glyph unicode="5" horiz-adv-x="553" d="M46 160Q46 169 55 171L210 192Q218 193 220 183Q223 166 231 155T263 143Q278 143 290 150T310 173Q318 190 323 216T329 261Q329 305 291 305Q276 305 266 298T247 279Q242 269 233 269H85Q74 269 76 279L145 670Q147 680 156 680H558Q569 680 567 670L542 531Q540 521 530 521H283Q277 521 276 515L259 416H261Q278 433 305 445T372 458Q442 458 481 423T521 310Q521 267 511 216T479 123Q445 53 383 21T237 -12Q186 -12 150 1T91 37T57 91T46 160Z"  />
<glyph unicode="6" horiz-adv-x="553" d="M38 169Q38 195 43 221T59 275T89 336T134 408L312 672Q317 680 325 680H511Q525 680 516 669L350 422V421Q355 426 374 426Q449 426 490 380T532 259Q532 203 511 154T452 67T361 9T245 -12Q197 -12 159 1T94 38T53 95T38 169ZM221 197Q221 173 234 158T273 143Q302 143 325 166T348 225Q348 249 335 264T296 280Q281 280 268 274T244 256T227 230T221 197Z"  />
<glyph unicode="7" horiz-adv-x="553" d="M366 511V514H281Q275 514 274 508L263 451Q261 441 252 441H92Q82 441 84 451L124 670Q126 680 135 680H584Q594 680 592 670L566 526Q565 516 558 501L283 10Q278 0 269 0H86Q81 0 80 3T80 11L366 511Z"  />
<glyph unicode="8" horiz-adv-x="553" d="M33 161Q33 216 58 266T135 351L136 353Q121 368 110 393T99 452Q99 499 119 542T174 619T259 672T368 692Q416 692 453 679T514 643T551 589T564 523Q564 469 542 427T480 353L479 351Q499 334 514 308T529 240Q529 185 507 139T445 60T354 7T243 -12Q198 -12 160 -1T93 33T49 87T33 161ZM321 426Q345 426 364 445T384 493Q384 513 373 525T340 537Q316 537 297 518T277 470Q277 450 289 438T321 426ZM219 196Q219 172 234 158T272 143Q303 143 325 166T347 221Q347 245 332 260T294 275Q279 275 265 269T241 252T225 227T219 196Z"  />
<glyph unicode="9" horiz-adv-x="553" d="M257 258V259Q252 254 233 254Q158 254 117 300T75 421Q75 477 96 526T155 612T246 670T362 692Q410 692 448 679T513 642T554 585T569 511Q569 485 564 459T548 405T518 344T473 272L295 8Q290 0 282 0H96Q82 0 91 11L257 258ZM311 400Q341 400 363 424T386 483Q386 507 373 522T334 537Q305 537 282 514T259 455Q259 431 273 416T311 400Z"  />
<glyph unicode=":" horiz-adv-x="247" d="M66 315Q55 315 57 325L84 480Q86 490 95 490H249Q260 490 258 480L232 325Q230 315 221 315H66ZM28 165Q30 175 39 175H194Q205 175 203 165L176 10Q174 0 165 0H11Q0 0 2 10L28 165Z"  />
<glyph unicode=";" horiz-adv-x="247" d="M66 315Q55 315 57 325L84 480Q86 490 95 490H249Q260 490 258 480L232 325Q230 315 221 315H66ZM33 165Q35 175 44 175H190Q201 175 199 165L175 24Q172 13 161 4L18 -94Q6 -102 -1 -102Q-13 -102 -11 -86L33 165Z"  />
<glyph unicode="&lt;" horiz-adv-x="533" d="M48 203Q38 206 38 217V335Q38 346 48 349L510 514Q520 517 520 507V359Q520 350 510 346L285 277V275L510 206Q520 202 520 193V45Q520 35 510 38L48 203Z"  />
<glyph unicode="=" horiz-adv-x="533" d="M56 312Q46 312 46 322V460Q46 470 56 470H518Q528 470 528 460V322Q528 312 518 312H56ZM56 82Q46 82 46 92V230Q46 240 56 240H518Q528 240 528 230V92Q528 82 518 82H56Z"  />
<glyph unicode="&gt;" horiz-adv-x="533" d="M38 193Q38 202 48 206L272 275V277L48 346Q38 350 38 359V507Q38 517 48 514L510 349Q520 346 520 335V217Q520 206 510 203L48 38Q38 35 38 45V193Z"  />
<glyph unicode="?" horiz-adv-x="501" d="M175 219Q164 219 166 229L173 269Q178 295 189 315T221 354L277 404Q314 436 327 455T341 495Q341 512 332 522T306 533Q284 533 270 520T244 482Q239 471 229 473L89 493Q80 495 83 504Q95 545 118 579T175 639T249 678T337 692Q383 692 419 679T479 644T517 592T530 528Q530 469 500 425T417 335L374 298Q357 283 351 271T342 241L340 229Q338 219 330 219H175ZM153 146Q155 156 164 156H319Q329 156 327 146L303 10Q301 0 292 0H137Q127 0 129 10L153 146Z"  />
<glyph unicode="@" horiz-adv-x="929" d="M36 174Q36 284 72 378T176 542T338 650T548 690Q632 690 698 665T811 595T883 487T908 347Q908 277 889 222T835 129T756 70T660 50Q606 50 573 69T528 119H527Q504 86 473 68T390 50Q327 50 293 84T259 178Q259 200 263 230T273 291T287 348T303 390Q348 481 441 481Q478 481 503 468T536 432H537L542 462Q544 471 553 471H691Q699 471 697 462L656 230Q651 204 660 191T689 178Q718 178 740 218T762 336Q762 451 700 506T525 562Q447 562 384 533T277 452T209 334T185 191Q185 88 246 28T420 -33Q474 -33 522 -18T613 20Q623 25 627 18L681 -76Q686 -84 676 -90Q619 -128 546 -148T398 -168Q314 -168 247 -143T133 -73T61 35T36 174ZM416 217Q416 178 450 178Q479 178 493 208Q496 214 499 228T506 258T512 290T514 315Q514 354 480 354Q450 354 437 324Q434 318 431 304T424 274T418 242T416 217Z"  />
<glyph unicode="A" horiz-adv-x="691" d="M-22 0Q-33 0 -28 10L318 670Q321 680 331 680H528Q539 680 539 670L646 10Q648 0 639 0H449Q439 0 437 10L428 103H234L193 10Q188 0 179 0H-22ZM413 269L396 458H394L309 269H413Z"  />
<glyph unicode="B" horiz-adv-x="590" d="M126 670Q128 680 136 680H418Q518 680 563 643T609 539Q609 476 581 429T498 352L497 350Q529 336 547 305T566 228Q566 175 546 133T491 62T407 16T299 0H17Q7 0 9 10L126 670ZM320 411Q356 411 379 430T403 490Q403 516 389 526T342 536H309Q303 536 302 530L282 417Q280 411 286 411H320ZM236 151Q234 145 240 145H284Q322 145 344 168T367 236Q367 285 309 285H265Q259 285 258 279L236 151Z"  />
<glyph unicode="C" horiz-adv-x="562" d="M38 207Q38 234 42 276T55 364T76 454T103 530Q144 613 211 652T376 692Q468 692 522 650T594 530Q597 520 587 516L427 454Q415 449 412 460Q407 487 394 500T355 513Q331 513 314 500T286 464Q280 451 272 420T258 352T246 281T241 227Q241 200 255 184T294 167Q320 167 336 181T369 222Q375 234 384 229L526 147Q534 141 529 132Q483 57 420 23T266 -12Q216 -12 174 2T102 44T55 113T38 207Z"  />
<glyph unicode="D" horiz-adv-x="616" d="M126 670Q128 680 136 680H401Q505 680 562 631T619 475Q619 445 615 402T602 314T582 227T556 157Q513 70 443 35T282 0H17Q7 0 9 10L126 670ZM274 179Q314 179 335 190T373 233Q380 248 387 274T399 330T408 386T412 427Q412 465 394 483T328 501H303Q298 501 297 495L242 185Q240 179 246 179H274Z"  />
<glyph unicode="E" horiz-adv-x="533" d="M126 670Q128 680 136 680H578Q588 680 586 670L559 522Q557 512 549 512H303Q297 512 297 506L284 431Q282 425 288 425H484Q494 425 492 415L467 271Q465 261 455 261H259Q254 261 253 255L238 174Q238 168 243 168H487Q497 168 495 158L469 10Q467 0 458 0H17Q7 0 9 10L126 670Z"  />
<glyph unicode="F" horiz-adv-x="530" d="M126 670Q128 680 136 680H578Q588 680 586 670L559 522Q557 512 549 512H303Q297 512 297 506L282 421Q282 415 286 415H482Q492 415 490 405L465 261Q463 251 453 251H257Q252 251 251 245L209 10Q207 0 198 0H17Q7 0 9 10L126 670Z"  />
<glyph unicode="G" horiz-adv-x="600" d="M38 208Q38 234 43 276T56 365T77 456T103 530Q145 615 214 653T381 692Q471 692 527 654T606 546Q610 534 598 529L439 468Q427 463 422 473Q413 492 399 502T359 513Q333 513 315 500T286 464Q281 453 273 422T258 354T246 282T241 227Q241 200 256 184T302 167Q331 167 350 178T379 208Q383 217 385 232Q385 238 379 238H329Q320 238 322 248L345 374Q347 384 356 384H601Q610 384 608 374L600 328Q594 292 589 266T577 218T564 180T548 146Q505 61 439 25T277 -12Q223 -12 179 2T103 43T55 112T38 208Z"  />
<glyph unicode="H" horiz-adv-x="641" d="M126 670Q128 680 137 680H319Q330 680 328 670L288 441Q286 435 292 435H430Q435 435 437 441L478 670Q480 680 489 680H671Q682 680 680 670L563 10Q561 0 552 0H370Q359 0 361 10L403 250Q404 256 398 256H260Q255 256 254 250L211 10Q209 0 200 0H18Q7 0 9 10L126 670Z"  />
<glyph unicode="I" horiz-adv-x="289" d="M126 670Q128 680 137 680H319Q330 680 328 670L211 10Q209 0 200 0H18Q7 0 9 10L126 670Z"  />
<glyph unicode="J" horiz-adv-x="519" d="M-19 90Q-21 99 -15 104L128 202Q137 207 140 201Q151 185 165 176T200 167Q234 167 254 186T283 252L358 670Q360 680 368 680H551Q562 680 560 670L489 273Q463 128 383 58T174 -12Q139 -12 109 -4T53 17T10 49T-19 90Z"  />
<glyph unicode="K" horiz-adv-x="637" d="M126 670Q128 680 137 680H319Q330 680 328 670L289 450L472 670Q477 675 480 677T491 680H705Q712 680 713 676T711 667L466 399L595 11Q599 0 588 0H396Q383 0 380 10L312 248L237 157L211 10Q209 0 200 0H18Q7 0 9 10L126 670Z"  />
<glyph unicode="L" horiz-adv-x="522" d="M126 670Q128 680 137 680H319Q330 680 328 670L242 185Q240 179 246 179H481Q492 179 490 169L461 10Q459 0 450 0H18Q7 0 9 10L126 670Z"  />
<glyph unicode="M" horiz-adv-x="759" d="M126 670Q128 680 136 680H304Q309 680 313 678T319 670L398 344H402L592 670Q595 676 600 678T610 680H789Q800 680 798 670L681 10Q679 0 670 0H507Q496 0 498 10L555 333H551L422 106Q417 98 412 96T402 93H317Q313 93 308 95T300 106L251 333H247L191 10Q189 0 180 0H17Q7 0 9 10L126 670Z"  />
<glyph unicode="N" horiz-adv-x="631" d="M126 670Q128 680 137 680H309Q321 680 324 670L423 323H427L488 670Q490 680 499 680H662Q672 680 670 670L553 10Q551 0 542 0H368Q358 0 355 10L257 357H252L191 10Q189 0 180 0H18Q7 0 9 10L126 670Z"  />
<glyph unicode="O" horiz-adv-x="606" d="M276 -12Q167 -12 103 43T38 208Q38 234 42 276T55 365T76 456T103 530Q145 615 216 653T378 692Q487 692 551 637T616 472Q616 446 612 403T599 314T578 223T551 150Q509 65 438 27T276 -12ZM297 167Q323 167 340 180T368 216Q373 227 381 258T396 326T408 398T413 453Q413 480 400 496T357 513Q331 513 314 500T286 464Q281 453 273 422T258 354T246 282T241 227Q241 200 254 184T297 167Z"  />
<glyph unicode="P" horiz-adv-x="599" d="M17 0Q7 0 9 10L126 670Q128 680 136 680H408Q525 680 578 630T632 496Q632 430 609 378T546 289T449 234T327 214H252Q246 214 245 208L210 10Q208 0 199 0H17ZM345 383Q382 383 404 404T426 463Q426 512 368 512H304Q298 512 298 506L277 389Q277 383 281 383H345Z"  />
<glyph unicode="Q" horiz-adv-x="606" d="M460 -57Q451 -65 444 -56L400 9Q343 -12 276 -12Q167 -12 103 43T38 208Q38 234 42 276T55 365T76 456T103 530Q145 615 216 653T378 692Q487 692 551 637T616 472Q616 446 612 404T599 315T578 224T551 150L606 72Q613 63 603 56L460 -57ZM297 167Q323 167 340 180T368 216Q373 227 381 258T396 326T408 398T413 453Q413 480 400 496T357 513Q331 513 314 500T286 464Q281 453 273 422T258 354T246 282T241 227Q241 200 254 184T297 167Z"  />
<glyph unicode="R" horiz-adv-x="610" d="M370 0Q359 0 356 10L308 226H254Q249 226 248 220L210 10Q208 0 199 0H17Q7 0 9 10L126 670Q128 680 136 680H411Q466 680 507 667T575 629T615 571T629 497Q629 413 592 354T492 262L558 11Q559 7 557 4T550 0H370ZM344 389Q378 389 401 409T424 467Q424 488 410 500T367 512H304Q298 512 298 506L278 395Q276 389 282 389H344Z"  />
<glyph unicode="S" horiz-adv-x="595" d="M257 -12Q215 -12 174 -4T97 19T34 51T-10 89Q-13 93 -13 98T-8 107L112 224Q116 228 120 228T127 224Q151 198 190 180T275 162Q317 162 340 176T363 213Q363 227 351 237T306 252L271 257Q174 271 125 315T75 434Q75 491 95 538T154 620T246 673T368 692Q442 692 503 671T607 613Q615 607 606 596L499 475Q491 467 483 473Q455 495 423 507T353 519Q322 519 304 507T285 475Q285 461 296 452T343 437L377 432Q474 418 524 374T574 253Q574 191 552 142T488 59T388 6T257 -12Z"  />
<glyph unicode="T" horiz-adv-x="562" d="M154 0Q143 0 145 10L231 495Q232 501 227 501H71Q60 501 62 511L90 670Q92 680 101 680H628Q639 680 637 670L608 511Q606 501 597 501H440Q434 501 433 495L347 10Q345 0 336 0H154Z"  />
<glyph unicode="U" horiz-adv-x="625" d="M288 -12Q222 -12 172 5T91 59T50 149T51 275L122 670Q124 680 133 680H315Q326 680 324 670L251 258Q243 215 257 191T306 167Q376 167 392 258L465 670Q467 680 476 680H659Q669 680 667 670L597 275Q583 197 557 143T493 54T403 4T288 -12Z"  />
<glyph unicode="V" horiz-adv-x="629" d="M189 0Q177 0 176 10L79 668Q77 680 90 680H273Q285 680 286 670L323 290H326L492 670Q496 680 506 680H705Q711 680 713 677T713 668L384 10Q380 0 369 0H189Z"  />
<glyph unicode="W" horiz-adv-x="910" d="M525 0Q514 0 513 10L479 351H477L325 10Q321 0 311 0H165Q153 0 152 10L79 670Q77 680 86 680H276Q288 680 288 670L298 298H300L456 670Q460 680 470 680H588Q600 680 601 670L631 298H633L772 670Q775 680 785 680H987Q998 680 993 670L686 10Q682 0 672 0H525Z"  />
<glyph unicode="X" horiz-adv-x="628" d="M404 0Q391 0 387 10L321 172H319L201 10Q194 0 182 0H-26Q-31 0 -32 3T-30 10L243 360L110 670Q106 680 117 680H305Q317 680 321 670L375 537H378L474 670Q482 680 492 680H688Q693 680 694 677T692 670L454 353L596 10Q600 0 589 0H404Z"  />
<glyph unicode="Y" horiz-adv-x="605" d="M175 0Q164 0 166 10L209 255L77 669Q73 680 86 680H257Q269 680 272 670L334 449H337L477 670Q483 680 494 680H683Q696 680 689 669L411 255L368 10Q366 0 357 0H175Z"  />
<glyph unicode="Z" horiz-adv-x="578" d="M11 0Q0 0 2 10L30 166Q32 173 35 176L352 498L353 501H109Q99 501 101 511L130 670Q132 680 140 680H614Q625 680 623 670L595 515Q593 508 590 505L271 182L270 179H526Q536 179 534 169L506 10Q504 0 495 0H11Z"  />
<glyph unicode="[" horiz-adv-x="321" d="M6 -84Q-5 -84 -3 -74L139 730Q141 740 151 740H382Q392 740 390 730L369 609Q367 599 358 599H284Q278 599 277 593L183 63Q183 57 188 57H261Q272 57 270 47L249 -74Q247 -84 238 -84H6Z"  />
<glyph unicode="\" horiz-adv-x="439" d="M212 -12Q202 -12 200 -2L101 682Q99 692 110 692H276Q285 692 287 682L386 -2Q388 -12 377 -12H212Z"  />
<glyph unicode="]" horiz-adv-x="321" d="M-19 -84Q-29 -84 -27 -74L-6 47Q-4 57 5 57H79Q84 57 86 63L180 593Q180 599 175 599H102Q91 599 93 609L114 730Q116 740 125 740H357Q368 740 366 730L224 -74Q222 -84 212 -84H-19Z"  />
<glyph unicode="^" horiz-adv-x="533" d="M357 235Q347 235 344 245L280 447H278L213 245Q210 235 200 235H42Q32 235 35 245L197 670Q202 680 211 680H346Q357 680 360 670L522 245Q525 235 515 235H357Z"  />
<glyph unicode="_" horiz-adv-x="565" d="M-70 -187L-46 -51H519L495 -187H-70Z"  />
<glyph unicode="`" horiz-adv-x="516" d="M347 541Q335 541 329 551L252 694Q250 698 251 701T258 704H407Q419 704 422 694L477 551Q480 541 469 541H347Z"  />
<glyph unicode="a" horiz-adv-x="522" d="M273 0Q262 0 264 10L268 35H267Q244 14 212 1T135 -12Q109 -12 86 -4T46 19T18 56T8 107Q8 202 70 252T247 302H311Q317 302 319 308L322 319Q324 328 322 335T312 346T287 353T242 356Q213 356 185 349T138 331Q129 327 126 336L87 438Q83 447 93 454Q131 477 185 489T298 502Q355 502 398 493T467 463T503 405T502 313L447 10Q445 0 436 0H273ZM228 120Q286 120 292 158L296 186Q297 192 291 192H245Q219 192 205 180T191 148Q191 120 228 120Z"  />
<glyph unicode="b" horiz-adv-x="547" d="M316 -12Q272 -12 245 4T208 47H207L200 10Q198 0 189 0H15Q5 0 7 10L124 670Q126 680 134 680H308Q319 680 317 670L276 443H277Q297 470 330 486T406 502Q480 502 510 461T540 343Q540 318 536 286T525 219T507 151T485 94Q457 37 417 13T316 -12ZM271 143Q287 143 298 150T318 174Q322 183 326 200T334 237T340 275T343 303Q343 347 306 347Q290 347 279 340T259 316Q255 307 251 290T243 253T237 215T234 187Q234 143 271 143Z"  />
<glyph unicode="c" horiz-adv-x="489" d="M216 -12Q173 -12 138 0T76 35T36 93T21 171Q21 213 30 264T62 361Q98 436 162 469T307 502Q348 502 380 492T437 463T475 421T494 370Q495 361 487 357L344 300Q339 298 335 299T328 305Q322 328 313 337T287 347Q273 347 261 341T241 317Q236 307 231 289T223 250T217 212T214 183Q214 143 251 143Q267 143 280 153T308 188Q314 198 324 194L455 132Q463 128 458 119Q418 54 361 21T216 -12Z"  />
<glyph unicode="d" horiz-adv-x="547" d="M286 0Q276 0 278 10L284 47H283Q263 20 230 4T154 -12Q80 -12 50 29T19 147Q19 172 23 204T34 271T52 338T74 395Q102 452 142 476T243 501Q288 501 315 485T352 442H353L395 670Q397 680 405 680H578Q589 680 587 670L470 10Q468 0 459 0H286ZM253 142Q270 142 281 149T301 173Q305 182 309 199T317 236T323 274T326 302Q326 346 289 346Q272 346 261 339T242 315Q238 306 234 289T226 252T220 214T217 186Q217 142 253 142Z"  />
<glyph unicode="e" horiz-adv-x="523" d="M233 -12Q187 -12 149 -2T82 31T37 88T21 171Q21 219 31 269T62 362Q97 435 158 468T311 502Q355 502 392 491T456 457T498 403T513 327Q513 307 510 277T499 202Q497 192 487 192H210Q205 192 203 187Q202 184 202 177Q202 151 223 140T280 128Q306 128 333 138T389 167Q398 173 403 166L463 82Q470 73 461 66Q414 27 361 8T233 -12ZM327 302Q332 302 334 308Q337 318 337 327Q337 372 291 372Q270 372 255 362T232 335Q225 321 225 308Q225 302 230 302H327Z"  />
<glyph unicode="f" horiz-adv-x="352" d="M38 0Q27 0 29 10L87 349Q88 355 82 355H57Q48 355 50 365L70 480Q72 490 81 490H106Q111 490 113 496L115 502Q123 551 139 585T181 640T244 670T332 680H406Q416 680 414 670L393 551Q391 541 382 541H355Q330 541 319 533T305 504L304 497Q303 490 309 490H371Q381 490 379 480L358 365Q356 355 347 355H285Q279 355 278 349L221 10Q219 0 211 0H38Z"  />
<glyph unicode="g" horiz-adv-x="539" d="M180 -192Q117 -192 64 -168T-14 -105Q-19 -97 -10 -90L95 -2Q103 5 111 -1Q131 -19 148 -28T192 -37Q230 -37 251 -17T282 55L289 91H288Q268 64 235 49T160 33Q90 33 58 73T25 184Q25 208 28 236T37 293T51 347T69 394Q98 452 138 477T239 502Q281 502 309 485T348 442H349L356 480Q358 490 368 490H538Q548 490 546 480L482 88Q468 10 443 -43T380 -130T293 -177T180 -192ZM255 184Q272 184 283 191T303 216Q307 223 310 235T316 259T320 284T322 304Q322 324 313 335T285 347Q268 347 257 341T237 315Q233 307 230 296T225 273T221 248T219 227Q219 207 228 196T255 184Z"  />
<glyph unicode="h" horiz-adv-x="549" d="M289 0Q278 0 280 10L329 289Q339 344 299 344Q258 344 249 290L200 10Q198 0 189 0H15Q5 0 7 10L123 670Q125 680 134 680H308Q318 680 316 670L276 442H277Q298 468 330 485T407 502Q451 502 478 488T519 449T534 391T529 319L473 10Q471 0 462 0H289Z"  />
<glyph unicode="i" horiz-adv-x="276" d="M110 540Q100 540 102 550L123 670Q125 680 134 680H308Q318 680 316 670L295 550Q293 540 284 540H110ZM15 0Q5 0 7 10L90 480Q92 490 101 490H275Q285 490 283 480L200 10Q198 0 189 0H15Z"  />
<glyph unicode="j" horiz-adv-x="276" d="M110 540Q100 540 102 550L123 670Q125 680 134 680H308Q318 680 316 670L295 550Q293 540 284 540H110ZM-88 -180Q-98 -180 -95 -170L-71 -35Q-69 -25 -60 -25H-51Q-22 -25 -9 -15T10 30L90 480Q92 490 101 490H275Q285 490 283 480L204 29Q193 -33 174 -73T124 -137T52 -170T-46 -180H-88Z"  />
<glyph unicode="k" horiz-adv-x="536" d="M313 0Q303 0 300 10L252 193L224 159L198 10Q196 0 187 0H15Q5 0 7 10L121 670Q123 680 131 680H304Q315 680 313 670L258 354L364 481Q372 490 384 490H557Q562 490 563 487T562 480L402 308L497 10Q501 0 491 0H313Z"  />
<glyph unicode="l" horiz-adv-x="319" d="M183 -6Q130 -6 97 5T47 38T28 96T33 180L122 670Q124 680 132 680H306Q317 680 315 670L230 204Q225 177 232 165T260 153H279Q289 153 287 143L262 4Q260 -6 251 -6H183Z"  />
<glyph unicode="m" horiz-adv-x="822" d="M562 0Q551 0 553 10L602 289Q612 344 572 344Q531 344 522 290L473 10Q471 0 462 0H289Q278 0 280 10L329 289Q339 344 299 344Q258 344 249 290L200 10Q198 0 189 0H15Q5 0 7 10L90 480Q92 490 101 490H274Q284 490 282 480L276 442H277Q298 468 330 485T407 502Q453 502 479 487T520 443H521Q547 469 586 485T677 502Q762 502 790 455T802 319L746 10Q744 0 735 0H562Z"  />
<glyph unicode="n" horiz-adv-x="549" d="M289 0Q278 0 280 10L329 289Q339 344 299 344Q258 344 249 290L200 10Q198 0 189 0H15Q5 0 7 10L90 480Q92 490 101 490H274Q284 490 282 480L276 442H277Q298 468 330 485T407 502Q451 502 478 488T519 450T534 392T529 320L473 10Q471 0 462 0H289Z"  />
<glyph unicode="o" horiz-adv-x="522" d="M226 -12Q181 -12 143 0T78 35T36 94T21 177Q21 218 30 269T60 362Q98 439 161 470T307 502Q352 502 390 490T455 455T497 396T512 313Q512 272 503 221T473 128Q435 51 372 20T226 -12ZM248 143Q262 143 274 149T295 174Q299 183 304 201T313 240T319 278T322 306Q322 347 285 347Q271 347 259 341T238 316Q233 307 229 289T220 250T214 212T211 184Q211 143 248 143Z"  />
<glyph unicode="p" horiz-adv-x="547" d="M-17 -180Q-27 -180 -25 -170L90 480Q92 490 100 490H274Q285 490 283 480L276 442H277Q297 469 330 485T406 502Q480 502 510 461T540 343Q540 318 536 286T525 219T507 151T485 94Q457 37 417 13T316 -12Q272 -12 245 4T208 47H207L168 -170Q166 -180 157 -180H-17ZM271 143Q287 143 298 150T318 174Q322 183 326 200T334 237T340 275T343 303Q343 347 306 347Q290 347 279 340T259 316Q255 307 251 290T243 253T237 215T234 187Q234 143 271 143Z"  />
<glyph unicode="q" horiz-adv-x="547" d="M255 -180Q245 -180 247 -170L284 47H283Q263 20 230 4T154 -12Q80 -12 50 29T19 147Q19 172 23 204T34 271T52 339T74 396Q102 453 143 477T244 502Q288 502 315 485T352 442H353L360 480Q362 490 370 490H544Q555 490 553 480L439 -170Q437 -180 428 -180H255ZM253 142Q270 142 281 149T301 173Q305 182 309 199T317 236T323 274T326 302Q326 346 289 346Q272 346 261 339T242 315Q238 306 234 289T226 252T220 214T217 186Q217 142 253 142Z"  />
<glyph unicode="r" horiz-adv-x="420" d="M15 0Q5 0 7 10L90 480Q92 490 101 490H274Q284 490 282 480L274 435H275Q298 470 333 486T411 502Q438 502 453 496Q464 493 459 482L372 306Q367 296 357 303Q343 313 330 318T302 324Q276 324 263 306T243 252L200 10Q198 0 189 0H15Z"  />
<glyph unicode="s" horiz-adv-x="509" d="M224 -12Q146 -12 89 10T-7 66Q-15 72 -6 81L83 172Q90 179 99 173Q141 147 176 135T251 123Q275 123 289 132T303 152Q303 160 295 165T257 173L204 179Q136 187 98 218T59 306Q59 397 123 449T302 502Q371 502 425 483T510 437Q517 431 508 422L427 336Q419 328 412 333Q386 350 355 360T284 371Q262 371 250 364T238 346Q238 338 245 333T277 325L329 319Q414 310 450 276T486 191Q486 146 468 109T416 44T334 3T224 -12Z"  />
<glyph unicode="t" horiz-adv-x="342" d="M210 -6Q154 -6 119 6T66 44T46 109T53 201L82 349Q83 355 77 355H51Q42 355 44 365L64 480Q66 490 75 490H100Q105 490 107 496L130 620Q132 630 142 630H315Q324 630 322 620L299 496Q297 490 304 490H362Q372 490 370 480L350 365Q348 355 338 355H278Q272 355 271 349L245 209Q239 177 245 165T278 153H298Q309 153 307 143L282 4Q280 -6 270 -6H210Z"  />
<glyph unicode="u" horiz-adv-x="546" d="M286 0Q276 0 278 10L284 47H283Q261 21 228 5T151 -12Q109 -12 83 1T43 38T27 96T33 171L87 480Q89 490 98 490H272Q282 490 280 480L230 200Q221 146 261 146Q302 146 311 200L360 480Q362 490 371 490H545Q555 490 553 480L470 10Q468 0 459 0H286Z"  />
<glyph unicode="v" horiz-adv-x="543" d="M151 0Q142 0 140 10L52 480Q50 490 61 490H236Q248 490 249 480L273 243H275L380 480Q384 490 397 490H579Q590 490 585 480L330 10Q325 0 318 0H151Z"  />
<glyph unicode="w" horiz-adv-x="762" d="M420 0Q411 0 410 10L387 233H385L281 10Q277 0 268 0H138Q128 0 127 10L53 480Q53 490 63 490H231Q243 490 243 480L253 251H255L358 480Q362 490 374 490H477Q488 490 489 480L512 251H514L602 480Q606 490 619 490H797Q808 490 803 480L563 10Q559 0 551 0H420Z"  />
<glyph unicode="x" horiz-adv-x="542" d="M307 0Q298 0 295 8L253 101H252L176 8Q169 0 160 0H-28Q-32 0 -33 3T-32 10L177 257L70 480Q66 490 78 490H251Q260 490 264 483L299 404H301L364 483Q370 490 380 490H561Q566 490 567 487T565 480L375 251L492 10Q496 0 485 0H307Z"  />
<glyph unicode="y" horiz-adv-x="543" d="M28 -180Q18 -180 20 -170L44 -35Q46 -25 56 -25H83Q105 -25 118 -18T143 9L156 36L52 480Q50 490 60 490H235Q245 490 246 480L280 264H282L384 480Q388 490 399 490H579Q590 490 585 479L267 -69Q248 -102 229 -123T186 -157T134 -175T68 -180H28Z"  />
<glyph unicode="z" horiz-adv-x="494" d="M12 0Q3 0 5 10L27 138Q28 147 34 151L260 339V342H84Q75 342 77 352L100 480Q102 490 111 490H504Q513 490 511 480L489 352Q488 345 482 339L256 152V149H443Q453 149 451 139L428 10Q426 0 416 0H12Z"  />
<glyph unicode="{" horiz-adv-x="366" d="M194 -84Q123 -84 97 -52T81 45L102 169Q110 216 98 237T50 259Q39 259 41 269L63 390Q65 400 74 400Q109 400 129 421T158 488L180 611Q191 676 229 708T339 740H419Q429 740 427 730L406 609Q404 599 394 599H375Q354 599 342 587T325 552L309 461Q299 405 278 376T217 330V328Q252 312 262 283T263 196L247 104Q243 82 251 70T279 57H298Q309 57 307 47L285 -74Q283 -84 274 -84H194Z"  />
<glyph unicode="|" horiz-adv-x="332" d="M111 -84Q101 -84 101 -74V730Q101 740 111 740H261Q271 740 271 730V-74Q271 -84 261 -84H111Z"  />
<glyph unicode="}" horiz-adv-x="366" d="M-11 -84Q-21 -84 -19 -74L2 47Q4 57 14 57H33Q54 57 66 69T83 104L99 197Q109 253 129 282T191 328V330Q156 346 146 375T145 462L162 552Q166 574 158 586T130 599H110Q99 599 101 609L123 730Q125 740 134 740H215Q285 740 311 708T327 611L306 489Q290 400 358 400Q369 400 367 390L345 269Q343 259 334 259Q299 259 279 238T250 170L228 45Q217 -20 179 -52T70 -84H-11Z"  />
<glyph unicode="~" horiz-adv-x="533" d="M369 175Q334 175 312 183T269 206Q252 217 238 224T207 231Q187 231 173 218T148 187Q143 178 134 183L40 243Q32 248 36 257Q59 307 98 341T188 375Q223 375 245 366T288 343Q305 332 319 325T351 318Q371 318 385 332T410 363Q415 372 424 367L518 306Q526 301 522 292Q499 242 460 209T369 175Z"  />
<glyph unicode="&#xA0;" horiz-adv-x="233" />
<glyph unicode="&#xA1;" horiz-adv-x="312" d="M234 271Q244 271 242 261L188 -180Q186 -190 177 -190H3Q-7 -190 -5 -180L96 261Q98 271 106 271H234ZM270 344Q268 334 258 334H105Q95 334 97 344L121 480Q123 490 132 490H286Q296 490 294 480L270 344Z"  />
<glyph unicode="&#xA2;" horiz-adv-x="553" d="M498 114Q465 60 419 30T309 -8L296 -85Q294 -95 284 -95H183Q173 -95 175 -85L189 -4Q129 11 93 55T56 171Q56 213 65 264T97 361Q125 419 171 452T277 496L291 575Q293 585 303 585H404Q414 585 412 575L398 496Q456 484 490 450T533 370Q534 361 526 357L383 302Q378 300 374 300T367 306Q363 329 352 338T323 348Q307 348 296 342T276 317Q271 307 266 289T258 250T252 212T249 183Q249 143 288 143Q304 143 318 153T347 188Q351 194 356 194T365 192L495 127Q503 123 498 114Z"  />
<glyph unicode="&#xA3;" horiz-adv-x="553" d="M30 0Q19 0 21 10L45 144Q46 154 55 160Q77 177 86 192T101 233L105 252Q106 258 100 258H75Q64 258 66 268L86 378Q88 388 97 388H122Q128 388 130 394L146 484Q163 585 230 638T398 692Q443 692 476 680T532 646T564 595T571 531Q571 520 562 519L409 490Q400 488 400 498Q400 520 394 528T374 537Q344 537 337 492L321 394Q319 388 325 388H449Q460 388 458 378L438 268Q436 258 427 258H302Q296 258 295 251L293 239Q289 213 277 193T247 160L246 158H495Q505 158 503 148L479 10Q477 0 468 0H30Z"  />
<glyph unicode="&#xA4;" horiz-adv-x="533" d="M388 11Q379 4 374 11L327 70Q285 53 241 53Q199 53 166 68L96 8Q93 5 89 5T82 8L-2 109Q-8 116 1 123L73 186Q70 205 70 225Q70 290 104 347L55 409Q49 416 58 423L167 516Q176 523 181 516L229 456Q269 473 315 473Q356 473 389 458L461 520Q469 528 475 520L558 419Q563 412 555 405L482 341Q484 331 485 322T486 301Q486 269 477 239T452 180L501 118Q508 111 499 104L388 11ZM265 186Q282 186 297 194T324 215T343 244T350 279Q350 306 334 323T291 340Q274 340 259 332T232 312T213 282T206 247Q206 221 222 204T265 186Z"  />
<glyph unicode="&#xA5;" horiz-adv-x="553" d="M157 0Q146 0 148 10L167 120Q168 126 162 126H58Q49 126 51 136L62 197Q64 207 73 207H177Q182 207 184 213L188 237Q189 243 183 243H79Q70 243 72 253L83 314Q85 324 94 324H173V326L95 670Q95 680 104 680H282Q295 680 296 670L318 448H321L422 670Q426 680 438 680H620Q630 680 626 670L427 326V324H506Q515 324 513 314L502 253Q500 243 491 243H388Q382 243 381 237L377 213Q375 207 382 207H485Q494 207 492 197L481 136Q479 126 470 126H367Q361 126 360 120L340 10Q338 0 329 0H157Z"  />
<glyph unicode="&#xA6;" horiz-adv-x="332" d="M111 388Q101 388 101 398V730Q101 740 111 740H261Q271 740 271 730V398Q271 388 261 388H111ZM111 -84Q101 -84 101 -74V262Q101 272 111 272H261Q271 272 271 262V-74Q271 -84 261 -84H111Z"  />
<glyph unicode="&#xA7;" horiz-adv-x="487" d="M168 -196Q122 -196 89 -184T35 -150T3 -101T-7 -39Q-7 -28 4 -26L148 -7Q158 -6 158 -16Q156 -56 191 -56Q210 -56 222 -44T234 -8Q234 8 220 21T163 48Q95 70 62 106T29 202Q29 268 56 313T135 393V395Q97 431 97 487Q97 532 115 570T165 636T239 680T332 696Q378 696 412 683T467 647T498 596T505 536Q504 525 492 523L353 505Q344 503 344 513Q344 556 312 556Q292 556 280 545T268 513Q268 497 283 483T339 456Q405 435 439 398T474 298Q474 238 446 192T368 111V109Q405 74 405 15Q405 -33 387 -71T337 -138T262 -181T168 -196ZM241 192Q255 192 266 199T285 216T297 240T302 268Q302 288 292 300T262 312Q248 312 237 305T217 288T205 263T200 236Q200 216 210 204T241 192Z"  />
<glyph unicode="&#xA8;" horiz-adv-x="513" d="M356 544Q345 544 347 554L369 674Q371 684 381 684H503Q513 684 511 674L489 554Q487 544 478 544H356ZM153 544Q142 544 144 554L166 674Q168 684 178 684H300Q310 684 308 674L286 554Q284 544 275 544H153Z"  />
<glyph unicode="&#xA9;" horiz-adv-x="777" d="M412 -14Q336 -14 272 12T160 86T86 197T59 339Q59 415 85 480T159 592T271 665T412 692Q488 692 552 666T664 592T737 480T764 339Q764 262 738 198T664 86T553 13T412 -14ZM412 72Q470 72 519 92T603 147T658 232T678 339Q678 397 659 446T604 530T519 586T412 606Q353 606 304 586T220 531T165 446T145 339Q145 281 164 232T219 148T304 92T412 72ZM417 146Q354 146 306 174T238 260Q233 275 231 294T228 341Q228 369 230 387T238 422Q257 479 305 507T417 536Q481 536 527 508T590 438Q594 428 584 425L479 381Q470 376 466 386Q458 403 448 410T423 417Q394 417 385 391Q383 384 382 375T381 341Q381 316 382 307T385 291Q394 265 423 265Q438 265 448 271T466 296Q470 306 479 301L584 257Q594 254 590 244Q573 203 527 175T417 146Z"  />
<glyph unicode="&#xAA;" horiz-adv-x="367" d="M254 392Q243 392 245 402L248 416H247Q218 386 166 386Q131 386 106 402T80 456Q80 507 119 539T228 571H268Q274 571 276 577L277 581Q279 593 270 599T231 605Q213 605 193 600T159 586Q156 584 153 584T147 590L125 644Q121 653 132 658Q157 673 190 681T259 689Q339 689 372 664T394 579L362 402Q360 392 351 392H254ZM217 462Q235 462 246 468T260 487L262 499Q263 505 258 505H225Q195 505 195 480Q195 462 217 462Z"  />
<glyph unicode="&#xAB;" horiz-adv-x="596" d="M296 257Q290 265 298 271L590 518Q594 521 597 520T599 513L570 353Q568 345 566 341T556 330L475 258Q470 254 473 250L529 178Q538 168 535 156L510 13Q509 8 506 8T499 11L296 257ZM25 257Q19 265 27 271L319 518Q323 521 326 520T328 513L299 353Q297 345 295 341T285 330L204 258Q199 254 202 250L258 178Q267 168 264 156L239 13Q238 8 235 8T228 11L25 257Z"  />
<glyph unicode="&#xAC;" horiz-adv-x="533" d="M367 69Q357 69 357 79V191Q357 197 351 197H48Q38 197 38 207V345Q38 355 48 355H510Q520 355 520 345V79Q520 69 510 69H367Z"  />
<glyph unicode="&#xAD;" horiz-adv-x="396" d="M41 187Q31 187 33 197L58 341Q60 351 70 351H376Q386 351 384 341L359 197Q357 187 347 187H41Z"  />
<glyph unicode="&#xAE;" horiz-adv-x="431" d="M264 301Q222 301 187 315T125 355T84 416T69 493Q69 534 84 569T125 629T186 669T264 684Q305 684 340 670T402 630T443 569T458 493Q458 452 443 417T402 356T341 316T264 301ZM264 343Q296 343 323 354T370 384T401 432T412 493Q412 526 401 553T371 600T324 631T264 642Q231 642 204 631T157 601T126 554T115 493Q115 460 126 432T157 385T204 354T264 343ZM183 388Q176 388 176 395V593Q176 600 183 600H281Q323 600 344 580T365 528Q365 485 329 467L364 395Q366 388 359 388H296Q289 388 286 395L260 456H251Q247 456 247 452V395Q247 388 240 388H183ZM271 509Q294 509 294 528Q294 546 271 546H251Q247 546 247 542V513Q247 509 251 509H271Z"  />
<glyph unicode="&#xAF;" horiz-adv-x="513" d="M162 552Q152 552 154 562L172 666Q174 676 183 676H495Q505 676 503 666L485 562Q483 552 474 552H162Z"  />
<glyph unicode="&#xB0;" horiz-adv-x="374" d="M242 370Q207 370 177 382T125 416T91 467T78 532Q78 567 90 597T125 649T177 683T242 696Q277 696 307 684T359 649T393 597T406 532Q406 497 394 468T359 416T307 382T242 370ZM242 481Q264 481 278 495T293 532Q293 556 279 570T242 584Q220 584 206 570T191 532Q191 509 205 495T242 481Z"  />
<glyph unicode="&#xB1;" horiz-adv-x="533" d="M207 195Q197 195 197 205V348Q197 354 191 354H48Q38 354 38 364V503Q38 513 48 513H191Q197 513 197 519V661Q197 671 207 671H350Q360 671 360 661V519Q360 513 366 513H510Q520 513 520 503V364Q520 354 510 354H366Q360 354 360 348V205Q360 195 350 195H207ZM48 0Q38 0 38 10V149Q38 159 48 159H510Q520 159 520 149V10Q520 0 510 0H48Z"  />
<glyph unicode="&#xB2;" horiz-adv-x="365" d="M77 430Q68 430 70 440L85 523Q88 536 98 544L264 672Q280 684 286 695T292 719Q292 739 272 739Q261 739 252 731T238 704Q237 698 234 696T225 695L125 707Q116 708 118 718Q130 773 178 808T300 843Q360 843 393 814T426 737Q426 695 407 664T347 603L265 542V541H384Q394 541 392 531L376 440Q374 430 364 430H77Z"  />
<glyph unicode="&#xB3;" horiz-adv-x="365" d="M221 423Q155 423 119 453T84 532Q84 541 93 543L197 556Q206 558 209 549Q212 540 217 534T234 527Q248 527 257 537T266 563Q266 585 237 585H228Q218 585 220 595L234 677Q236 687 245 687H256Q269 687 279 695T289 719Q289 739 269 739Q248 739 239 717Q235 707 226 709L125 723Q116 725 119 734Q136 781 180 812T294 843Q360 843 393 817T426 748Q426 718 410 692T363 649V647Q379 639 390 623T401 579Q401 543 387 514T349 465T291 434T221 423Z"  />
<glyph unicode="&#xB4;" horiz-adv-x="513" d="M189 541Q184 541 183 544T185 551L292 694Q299 704 311 704H469Q474 704 475 701T472 694L343 551Q334 541 324 541H189Z"  />
<glyph unicode="&#xB5;" horiz-adv-x="548" d="M289 0Q278 0 280 10L286 47H285Q271 31 256 19T221 1Q207 -2 198 -1L168 -170Q166 -180 157 -180H-17Q-27 -180 -25 -170L89 480Q91 490 101 490H275Q284 490 282 480L232 200Q223 146 263 146Q304 146 313 200L362 480Q364 490 374 490H547Q557 490 555 480L472 10Q470 0 461 0H289Z"  />
<glyph unicode="&#xB6;" horiz-adv-x="680" d="M418 -180Q409 -180 411 -170L538 553Q539 559 533 559H467Q461 559 460 553L333 -170Q331 -180 322 -180H192Q183 -180 185 -170L248 194Q209 197 177 211T121 250T84 309T71 387Q71 448 93 501T156 595T250 657T369 680H699Q709 680 707 670L559 -170Q557 -180 548 -180H418Z"  />
<glyph unicode="&#xB7;" horiz-adv-x="247" d="M43 178Q32 178 34 188L60 342Q62 352 71 352H226Q237 352 235 342L208 188Q206 178 197 178H43Z"  />
<glyph unicode="&#xB8;" horiz-adv-x="513" d="M98 -171Q88 -171 93 -161L182 0Q188 10 199 10H314Q325 10 320 0L246 -161Q242 -171 229 -171H98Z"  />
<glyph unicode="&#xB9;" horiz-adv-x="365" d="M177 430Q167 430 169 440L215 700H213L141 663Q137 661 134 662T132 669L151 777Q152 787 163 792L230 830Q240 836 253 836H367Q378 836 376 826L308 440Q306 430 296 430H177Z"  />
<glyph unicode="&#xBA;" horiz-adv-x="393" d="M228 383Q167 383 130 413T93 500Q93 510 94 523T99 551T106 579T116 604Q137 646 179 667T281 689Q342 689 379 659T416 572Q416 562 415 549T410 521T403 493T393 468Q372 426 330 405T228 383ZM243 477Q269 477 279 499Q281 503 283 512T287 531T290 551T292 566Q292 577 286 586T266 595Q240 595 230 573Q228 569 226 560T222 541T219 521T217 506Q217 495 223 486T243 477Z"  />
<glyph unicode="&#xBB;" horiz-adv-x="596" d="M295 10Q291 7 288 8T286 15L315 175Q317 183 319 187T329 198L411 270Q416 274 413 278L356 350Q347 360 350 372L375 515Q376 520 379 520T386 517L589 271Q595 263 587 257L295 10ZM24 10Q20 7 17 8T15 15L44 175Q46 183 48 187T58 198L140 270Q145 274 142 278L85 350Q76 360 79 372L104 515Q105 520 108 520T115 517L318 271Q324 263 316 257L24 10Z"  />
<glyph unicode="&#xBC;" horiz-adv-x="903" d="M156 -12Q151 -12 151 -9T154 -2L657 682Q663 692 674 692H792Q797 692 797 689T794 682L290 -2Q283 -12 272 -12H156ZM176 274Q166 274 168 284L214 544H212L140 507Q136 505 133 506T131 513L150 621Q151 631 162 636L229 674Q239 680 252 680H366Q377 680 375 670L307 284Q305 274 295 274H176ZM659 0Q650 0 652 10L658 43Q659 49 653 49H489Q479 49 481 59L498 157Q499 166 507 177L640 396Q646 406 655 406H778Q782 406 783 403T783 396L641 163V160H673Q678 160 680 166L688 211Q690 221 699 221H804Q813 221 811 211L804 166Q802 160 808 160H821Q830 160 828 150L811 59Q809 49 800 49H788Q782 49 781 43L776 10Q774 0 765 0H659Z"  />
<glyph unicode="&#xBD;" horiz-adv-x="936" d="M156 -12Q151 -12 151 -9T154 -2L657 682Q663 692 674 692H792Q797 692 797 689T794 682L290 -2Q283 -12 272 -12H156ZM176 274Q166 274 168 284L214 544H212L140 507Q136 505 133 506T131 513L150 621Q151 631 162 636L229 674Q239 680 252 680H366Q377 680 375 670L307 284Q305 274 295 274H176ZM533 0Q524 0 526 10L541 93Q544 106 554 114L720 242Q736 254 742 265T748 289Q748 309 728 309Q717 309 708 301T694 274Q693 268 690 266T681 265L581 277Q572 278 574 288Q586 343 634 378T756 413Q816 413 849 384T882 307Q882 265 863 234T803 173L721 112V111H840Q850 111 848 101L832 10Q830 0 820 0H533Z"  />
<glyph unicode="&#xBE;" horiz-adv-x="959" d="M212 -12Q207 -12 207 -9T210 -2L713 682Q719 692 730 692H848Q853 692 853 689T850 682L346 -2Q339 -12 328 -12H212ZM715 0Q706 0 708 10L714 43Q715 49 709 49H545Q535 49 537 59L554 157Q555 166 563 177L696 396Q702 406 711 406H834Q838 406 839 403T839 396L697 163V160H729Q734 160 736 166L744 211Q746 221 755 221H860Q869 221 867 211L860 166Q858 160 864 160H877Q886 160 884 150L867 59Q865 49 856 49H844Q838 49 837 43L832 10Q830 0 821 0H715ZM252 267Q186 267 150 297T115 376Q115 385 124 387L228 400Q237 402 240 393Q243 384 248 378T265 371Q279 371 288 381T297 407Q297 429 268 429H259Q249 429 251 439L265 521Q267 531 276 531H287Q300 531 310 539T320 563Q320 583 300 583Q279 583 270 561Q266 551 257 553L156 567Q147 569 150 578Q167 625 211 656T325 687Q391 687 424 661T457 592Q457 562 441 536T394 493V491Q410 483 421 467T432 423Q432 387 418 358T380 309T322 278T252 267Z"  />
<glyph unicode="&#xBF;" horiz-adv-x="501" d="M347 271Q358 271 356 261L349 221Q344 195 333 175T301 136L245 86Q208 54 195 35T181 -5Q181 -22 190 -32T216 -43Q238 -43 252 -30T278 8Q283 19 293 17L433 -3Q442 -5 439 -14Q427 -55 404 -89T347 -149T273 -188T185 -202Q139 -202 103 -189T43 -154T5 -102T-8 -38Q-8 21 22 65T105 155L148 192Q165 207 171 219T180 249L182 261Q184 271 192 271H347ZM369 344Q367 334 358 334H203Q193 334 195 344L219 480Q221 490 230 490H385Q395 490 393 480L369 344Z"  />
<glyph unicode="&#xC0;" horiz-adv-x="691" d="M-22 0Q-33 0 -28 10L318 670Q321 680 331 680H528Q539 680 539 670L646 10Q648 0 639 0H449Q439 0 437 10L428 103H234L193 10Q188 0 179 0H-22ZM413 269L396 458H394L309 269H413ZM374 739Q364 739 355 749L248 880Q246 884 247 887T254 890H405Q417 890 424 880L507 749Q509 745 508 742T502 739H374Z"  />
<glyph unicode="&#xC1;" horiz-adv-x="691" d="M-22 0Q-33 0 -28 10L318 670Q321 680 331 680H528Q539 680 539 670L646 10Q648 0 639 0H449Q439 0 437 10L428 103H234L193 10Q188 0 179 0H-22ZM413 269L396 458H394L309 269H413ZM363 739Q358 739 357 742T359 749L489 880Q499 890 511 890H669Q674 890 675 887T673 880L520 749Q509 739 495 739H363Z"  />
<glyph unicode="&#xC2;" horiz-adv-x="691" d="M-22 0Q-33 0 -28 10L318 670Q321 680 331 680H528Q539 680 539 670L646 10Q648 0 639 0H449Q439 0 437 10L428 103H234L193 10Q188 0 179 0H-22ZM413 269L396 458H394L309 269H413ZM509 735Q495 735 488 745L453 791H451L399 745Q388 735 374 735H261Q256 735 255 738T258 745L393 888Q402 898 413 898H517Q529 898 535 888L619 745Q621 741 620 738T613 735H509Z"  />
<glyph unicode="&#xC3;" horiz-adv-x="691" d="M-22 0Q-33 0 -28 10L318 670Q321 680 331 680H528Q539 680 539 670L646 10Q648 0 639 0H449Q439 0 437 10L428 103H234L193 10Q188 0 179 0H-22ZM413 269L396 458H394L309 269H413ZM511 733Q482 733 462 740T424 758Q408 767 396 771T368 775Q346 775 327 767T285 742Q280 739 277 740T274 747L290 836Q293 850 303 859Q324 876 346 887T393 898Q422 898 442 891T480 872Q496 863 508 859T536 855Q558 855 577 863T619 888Q624 891 627 890T630 883L614 794Q612 786 609 781T600 771Q579 753 558 743T511 733Z"  />
<glyph unicode="&#xC4;" horiz-adv-x="691" d="M-22 0Q-33 0 -28 10L318 670Q321 680 331 680H528Q539 680 539 670L646 10Q648 0 639 0H449Q439 0 437 10L428 103H234L193 10Q188 0 179 0H-22ZM413 269L396 458H394L309 269H413ZM479 742Q468 742 470 752L492 872Q494 882 504 882H626Q636 882 634 872L612 752Q610 742 601 742H479ZM276 742Q265 742 267 752L289 872Q291 882 301 882H423Q433 882 431 872L409 752Q407 742 398 742H276Z"  />
<glyph unicode="&#xC5;" horiz-adv-x="691" d="M-22 0Q-33 0 -28 10L318 670Q321 680 331 680H528Q539 680 539 670L646 10Q648 0 639 0H449Q439 0 437 10L428 103H234L193 10Q188 0 179 0H-22ZM413 269L396 458H394L309 269H413ZM433 699Q387 699 359 724T330 793Q330 823 340 849T369 894T414 924T472 935Q518 935 546 910T575 841Q575 811 565 785T536 740T491 710T433 699ZM445 774Q465 774 478 789T492 827Q492 842 484 851T460 860Q440 860 427 845T413 807Q413 792 421 783T445 774Z"  />
<glyph unicode="&#xC6;" horiz-adv-x="921" d="M405 0Q395 0 397 10L412 97Q413 103 407 103H251L199 10Q193 0 184 0H-23Q-28 0 -29 2T-28 10L368 670Q375 680 382 680H966Q976 680 974 670L947 522Q945 512 937 512H691Q685 512 685 506L672 431Q670 425 676 425H872Q882 425 880 415L855 271Q853 261 843 261H647Q642 261 641 255L626 174Q626 168 631 168H875Q885 168 883 158L857 10Q855 0 846 0H405ZM345 269H436Q441 269 443 275L486 512H482L345 269Z"  />
<glyph unicode="&#xC7;" horiz-adv-x="545" d="M98 -171Q88 -171 93 -161L181 -1Q113 18 74 70T34 207Q34 234 38 276T51 364T72 454T99 530Q140 613 207 652T372 692Q464 692 518 650T590 530Q593 520 583 516L423 454Q411 449 408 460Q403 487 390 500T351 513Q329 513 312 500T283 464Q277 451 269 420T254 352T242 281T237 227Q237 200 251 184T290 167Q316 167 332 181T365 222Q371 234 380 229L522 147Q530 141 525 132Q486 68 436 34T316 -9L246 -161Q242 -171 229 -171H98Z"  />
<glyph unicode="&#xC8;" horiz-adv-x="533" d="M309 739Q299 739 290 749L183 880Q181 884 182 887T189 890H340Q352 890 359 880L442 749Q444 745 443 742T437 739H309ZM126 670Q128 680 136 680H578Q588 680 586 670L559 522Q557 512 549 512H303Q297 512 297 506L284 431Q282 425 288 425H484Q494 425 492 415L467 271Q465 261 455 261H259Q254 261 253 255L238 174Q238 168 243 168H487Q497 168 495 158L469 10Q467 0 458 0H17Q7 0 9 10L126 670Z"  />
<glyph unicode="&#xC9;" horiz-adv-x="533" d="M270 739Q265 739 264 742T266 749L396 880Q406 890 418 890H576Q581 890 582 887T580 880L427 749Q416 739 402 739H270ZM126 670Q128 680 136 680H578Q588 680 586 670L559 522Q557 512 549 512H303Q297 512 297 506L284 431Q282 425 288 425H484Q494 425 492 415L467 271Q465 261 455 261H259Q254 261 253 255L238 174Q238 168 243 168H487Q497 168 495 158L469 10Q467 0 458 0H17Q7 0 9 10L126 670Z"  />
<glyph unicode="&#xCA;" horiz-adv-x="533" d="M126 670Q128 680 136 680H578Q588 680 586 670L559 522Q557 512 549 512H303Q297 512 297 506L284 431Q282 425 288 425H484Q494 425 492 415L467 271Q465 261 455 261H259Q254 261 253 255L238 174Q238 168 243 168H487Q497 168 495 158L469 10Q467 0 458 0H17Q7 0 9 10L126 670ZM437 735Q423 735 416 745L381 791H379L327 745Q316 735 302 735H189Q184 735 183 738T186 745L321 888Q330 898 341 898H445Q457 898 463 888L547 745Q549 741 548 738T541 735H437Z"  />
<glyph unicode="&#xCB;" horiz-adv-x="533" d="M409 742Q398 742 400 752L422 872Q424 882 434 882H556Q566 882 564 872L542 752Q540 742 531 742H409ZM206 742Q195 742 197 752L219 872Q221 882 231 882H353Q363 882 361 872L339 752Q337 742 328 742H206ZM126 670Q128 680 136 680H578Q588 680 586 670L559 522Q557 512 549 512H303Q297 512 297 506L284 431Q282 425 288 425H484Q494 425 492 415L467 271Q465 261 455 261H259Q254 261 253 255L238 174Q238 168 243 168H487Q497 168 495 158L469 10Q467 0 458 0H17Q7 0 9 10L126 670Z"  />
<glyph unicode="&#xCC;" horiz-adv-x="289" d="M126 670Q128 680 137 680H319Q330 680 328 670L211 10Q209 0 200 0H18Q7 0 9 10L126 670ZM176 739Q166 739 157 749L50 880Q48 884 49 887T56 890H207Q219 890 226 880L309 749Q311 745 310 742T304 739H176Z"  />
<glyph unicode="&#xCD;" horiz-adv-x="289" d="M126 670Q128 680 137 680H319Q330 680 328 670L211 10Q209 0 200 0H18Q7 0 9 10L126 670ZM169 739Q164 739 163 742T165 749L295 880Q305 890 317 890H475Q480 890 481 887T479 880L326 749Q315 739 301 739H169Z"  />
<glyph unicode="&#xCE;" horiz-adv-x="289" d="M126 670Q128 680 137 680H319Q330 680 328 670L211 10Q209 0 200 0H18Q7 0 9 10L126 670ZM310 735Q296 735 289 745L254 791H252L200 745Q189 735 175 735H62Q57 735 56 738T59 745L194 888Q203 898 214 898H318Q330 898 336 888L420 745Q422 741 421 738T414 735H310Z"  />
<glyph unicode="&#xCF;" horiz-adv-x="289" d="M126 670Q128 680 137 680H319Q330 680 328 670L211 10Q209 0 200 0H18Q7 0 9 10L126 670ZM280 742Q269 742 271 752L293 872Q295 882 305 882H427Q437 882 435 872L413 752Q411 742 402 742H280ZM77 742Q66 742 68 752L90 872Q92 882 102 882H224Q234 882 232 872L210 752Q208 742 199 742H77Z"  />
<glyph unicode="&#xD0;" horiz-adv-x="616" d="M17 0Q7 0 9 10L55 272Q56 278 50 278H25Q15 278 17 288L36 399Q38 409 48 409H73Q78 409 80 415L126 670Q128 680 136 680H401Q505 680 562 631T619 475Q619 445 615 402T602 314T582 227T556 157Q513 70 443 35T282 0H17ZM274 179Q314 179 335 190T373 233Q380 248 387 274T399 330T408 386T412 427Q412 465 394 483T328 501H303Q298 501 297 495L283 415Q281 409 287 409H340Q350 409 348 399L329 288Q327 278 318 278H264Q258 278 257 272L242 185Q240 179 246 179H274Z"  />
<glyph unicode="&#xD1;" horiz-adv-x="631" d="M475 733Q446 733 426 740T388 758Q372 767 360 771T332 775Q310 775 291 767T249 742Q244 739 241 740T238 747L254 836Q257 850 267 859Q288 876 310 887T357 898Q386 898 406 891T444 872Q460 863 472 859T500 855Q522 855 541 863T583 888Q588 891 591 890T594 883L578 794Q576 786 573 781T564 771Q543 753 522 743T475 733ZM126 670Q128 680 137 680H309Q321 680 324 670L423 323H427L488 670Q490 680 499 680H662Q672 680 670 670L553 10Q551 0 542 0H368Q358 0 355 10L257 357H252L191 10Q189 0 180 0H18Q7 0 9 10L126 670Z"  />
<glyph unicode="&#xD2;" horiz-adv-x="606" d="M338 739Q328 739 319 749L212 880Q210 884 211 887T218 890H369Q381 890 388 880L471 749Q473 745 472 742T466 739H338ZM276 -12Q167 -12 103 43T38 208Q38 234 42 276T55 365T76 456T103 530Q145 615 216 653T378 692Q487 692 551 637T616 472Q616 446 612 403T599 314T578 223T551 150Q509 65 438 27T276 -12ZM297 167Q323 167 340 180T368 216Q373 227 381 258T396 326T408 398T413 453Q413 480 400 496T357 513Q331 513 314 500T286 464Q281 453 273 422T258 354T246 282T241 227Q241 200 254 184T297 167Z"  />
<glyph unicode="&#xD3;" horiz-adv-x="606" d="M321 739Q316 739 315 742T317 749L447 880Q457 890 469 890H627Q632 890 633 887T631 880L478 749Q467 739 453 739H321ZM276 -12Q167 -12 103 43T38 208Q38 234 42 276T55 365T76 456T103 530Q145 615 216 653T378 692Q487 692 551 637T616 472Q616 446 612 403T599 314T578 223T551 150Q509 65 438 27T276 -12ZM297 167Q323 167 340 180T368 216Q373 227 381 258T396 326T408 398T413 453Q413 480 400 496T357 513Q331 513 314 500T286 464Q281 453 273 422T258 354T246 282T241 227Q241 200 254 184T297 167Z"  />
<glyph unicode="&#xD4;" horiz-adv-x="606" d="M468 745Q454 745 447 755L412 801H410L358 755Q347 745 333 745H220Q215 745 214 748T217 755L352 898Q361 908 372 908H476Q488 908 494 898L578 755Q580 751 579 748T572 745H468ZM276 -12Q167 -12 103 43T38 208Q38 234 42 276T55 365T76 456T103 530Q145 615 216 653T378 692Q487 692 551 637T616 472Q616 446 612 403T599 314T578 223T551 150Q509 65 438 27T276 -12ZM297 167Q323 167 340 180T368 216Q373 227 381 258T396 326T408 398T413 453Q413 480 400 496T357 513Q331 513 314 500T286 464Q281 453 273 422T258 354T246 282T241 227Q241 200 254 184T297 167Z"  />
<glyph unicode="&#xD5;" horiz-adv-x="606" d="M462 733Q433 733 413 740T375 758Q359 767 347 771T319 775Q297 775 278 767T236 742Q231 739 228 740T225 747L241 836Q244 850 254 859Q275 876 297 887T344 898Q373 898 393 891T431 872Q447 863 459 859T487 855Q509 855 528 863T570 888Q575 891 578 890T581 883L565 794Q563 786 560 781T551 771Q530 753 509 743T462 733ZM276 -12Q167 -12 103 43T38 208Q38 234 42 276T55 365T76 456T103 530Q145 615 216 653T378 692Q487 692 551 637T616 472Q616 446 612 403T599 314T578 223T551 150Q509 65 438 27T276 -12ZM297 167Q323 167 340 180T368 216Q373 227 381 258T396 326T408 398T413 453Q413 480 400 496T357 513Q331 513 314 500T286 464Q281 453 273 422T258 354T246 282T241 227Q241 200 254 184T297 167Z"  />
<glyph unicode="&#xD6;" horiz-adv-x="606" d="M430 742Q419 742 421 752L443 872Q445 882 455 882H577Q587 882 585 872L563 752Q561 742 552 742H430ZM227 742Q216 742 218 752L240 872Q242 882 252 882H374Q384 882 382 872L360 752Q358 742 349 742H227ZM276 -12Q167 -12 103 43T38 208Q38 234 42 276T55 365T76 456T103 530Q145 615 216 653T378 692Q487 692 551 637T616 472Q616 446 612 403T599 314T578 223T551 150Q509 65 438 27T276 -12ZM297 167Q323 167 340 180T368 216Q373 227 381 258T396 326T408 398T413 453Q413 480 400 496T357 513Q331 513 314 500T286 464Q281 453 273 422T258 354T246 282T241 227Q241 200 254 184T297 167Z"  />
<glyph unicode="&#xD7;" horiz-adv-x="533" d="M423 47Q416 38 409 47L290 165Q286 169 282 165L164 47Q157 38 150 47L57 140Q50 147 57 154L174 271Q178 275 174 280L57 397Q50 404 57 411L152 506Q159 513 166 506L283 387Q287 384 292 387L410 506Q417 513 424 506L516 413Q524 405 516 399L398 281Q393 276 398 273L516 155Q525 148 516 141L423 47Z"  />
<glyph unicode="&#xD8;" horiz-adv-x="606" d="M276 -12Q193 -12 135 20L103 -20Q94 -30 84 -30H-29Q-34 -30 -35 -27T-33 -20L62 95Q38 141 38 208Q38 234 42 276T55 365T76 456T103 530Q145 615 216 653T378 692Q460 692 518 660L551 700Q560 710 570 710H683Q688 710 689 707T687 700L591 585Q616 537 616 472Q616 446 612 403T599 314T578 223T551 150Q509 65 438 27T276 -12ZM297 167Q323 167 340 180T368 216Q373 227 381 258T396 326T408 398T413 453Q413 480 400 496T357 513Q331 513 314 500T286 464Q281 453 273 422T258 354T246 282T241 227Q241 200 254 184T297 167Z"  />
<glyph unicode="&#xD9;" horiz-adv-x="625" d="M344 739Q334 739 325 749L218 880Q216 884 217 887T224 890H375Q387 890 394 880L477 749Q479 745 478 742T472 739H344ZM288 -12Q222 -12 172 5T91 59T50 149T51 275L122 670Q124 680 133 680H315Q326 680 324 670L251 258Q243 215 257 191T306 167Q376 167 392 258L465 670Q467 680 476 680H659Q669 680 667 670L597 275Q583 197 557 143T493 54T403 4T288 -12Z"  />
<glyph unicode="&#xDA;" horiz-adv-x="625" d="M329 739Q324 739 323 742T325 749L455 880Q465 890 477 890H635Q640 890 641 887T639 880L486 749Q475 739 461 739H329ZM288 -12Q222 -12 172 5T91 59T50 149T51 275L122 670Q124 680 133 680H315Q326 680 324 670L251 258Q243 215 257 191T306 167Q376 167 392 258L465 670Q467 680 476 680H659Q669 680 667 670L597 275Q583 197 557 143T493 54T403 4T288 -12Z"  />
<glyph unicode="&#xDB;" horiz-adv-x="625" d="M288 -12Q222 -12 172 5T91 59T50 149T51 275L122 670Q124 680 133 680H315Q326 680 324 670L251 258Q243 215 257 191T306 167Q376 167 392 258L465 670Q467 680 476 680H659Q669 680 667 670L597 275Q583 197 557 143T493 54T403 4T288 -12ZM478 735Q464 735 457 745L422 791H420L368 745Q357 735 343 735H230Q225 735 224 738T227 745L362 888Q371 898 382 898H486Q498 898 504 888L588 745Q590 741 589 738T582 735H478Z"  />
<glyph unicode="&#xDC;" horiz-adv-x="625" d="M447 742Q436 742 438 752L460 872Q462 882 472 882H594Q604 882 602 872L580 752Q578 742 569 742H447ZM244 742Q233 742 235 752L257 872Q259 882 269 882H391Q401 882 399 872L377 752Q375 742 366 742H244ZM288 -12Q222 -12 172 5T91 59T50 149T51 275L122 670Q124 680 133 680H315Q326 680 324 670L251 258Q243 215 257 191T306 167Q376 167 392 258L465 670Q467 680 476 680H659Q669 680 667 670L597 275Q583 197 557 143T493 54T403 4T288 -12Z"  />
<glyph unicode="&#xDD;" horiz-adv-x="605" d="M175 0Q164 0 166 10L209 255L77 669Q73 680 86 680H257Q269 680 272 670L334 449H337L477 670Q483 680 494 680H683Q696 680 689 669L411 255L368 10Q366 0 357 0H175ZM305 739Q300 739 299 742T301 749L431 880Q441 890 453 890H611Q616 890 617 887T615 880L462 749Q451 739 437 739H305Z"  />
<glyph unicode="&#xDE;" horiz-adv-x="593" d="M17 0Q7 0 9 10L126 670Q128 680 137 680H319Q329 680 327 670L312 587Q310 581 316 581H391Q508 581 561 531T615 397Q615 331 592 279T529 190T432 134T310 115H235Q229 115 228 109L210 10Q208 0 199 0H17ZM328 283Q364 283 386 304T409 363Q409 413 351 413H287Q281 413 281 407L260 289Q260 283 264 283H328Z"  />
<glyph unicode="&#xDF;" horiz-adv-x="590" d="M244 -6Q234 -6 236 4L258 127Q260 137 270 137H293Q316 137 331 145T357 176Q360 183 363 197T370 227T374 258T376 283Q376 303 362 312T325 322H306Q295 322 297 332L319 452Q321 462 331 462H354Q377 462 392 475T408 512Q408 528 397 535T357 543Q320 543 302 527T278 476L196 10Q194 0 185 0H15Q5 0 7 10L89 476Q108 582 177 637T383 692Q491 692 545 652T600 547Q600 445 519 396V394Q544 380 555 354T567 298Q567 253 558 201T526 104Q496 44 438 19T289 -6H244Z"  />
<glyph unicode="&#xE0;" horiz-adv-x="522" d="M273 0Q262 0 264 10L268 35H267Q244 14 212 1T135 -12Q109 -12 86 -4T46 19T18 56T8 107Q8 202 70 252T247 302H311Q317 302 319 308L322 319Q324 328 322 335T312 346T287 353T242 356Q213 356 185 349T138 331Q129 327 126 336L87 438Q83 447 93 454Q131 477 185 489T298 502Q355 502 398 493T467 463T503 405T502 313L447 10Q445 0 436 0H273ZM228 120Q286 120 292 158L296 186Q297 192 291 192H245Q219 192 205 180T191 148Q191 120 228 120ZM285 541Q273 541 267 551L190 694Q188 698 189 701T196 704H345Q357 704 360 694L415 551Q418 541 407 541H285Z"  />
<glyph unicode="&#xE1;" horiz-adv-x="522" d="M273 0Q262 0 264 10L268 35H267Q244 14 212 1T135 -12Q109 -12 86 -4T46 19T18 56T8 107Q8 202 70 252T247 302H311Q317 302 319 308L322 319Q324 328 322 335T312 346T287 353T242 356Q213 356 185 349T138 331Q129 327 126 336L87 438Q83 447 93 454Q131 477 185 489T298 502Q355 502 398 493T467 463T503 405T502 313L447 10Q445 0 436 0H273ZM228 120Q286 120 292 158L296 186Q297 192 291 192H245Q219 192 205 180T191 148Q191 120 228 120ZM235 541Q230 541 229 544T231 551L338 694Q345 704 357 704H515Q520 704 521 701T518 694L389 551Q380 541 370 541H235Z"  />
<glyph unicode="&#xE2;" horiz-adv-x="522" d="M273 0Q262 0 264 10L268 35H267Q244 14 212 1T135 -12Q109 -12 86 -4T46 19T18 56T8 107Q8 202 70 252T247 302H311Q317 302 319 308L322 319Q324 328 322 335T312 346T287 353T242 356Q213 356 185 349T138 331Q129 327 126 336L87 438Q83 447 93 454Q131 477 185 489T298 502Q355 502 398 493T467 463T503 405T502 313L447 10Q445 0 436 0H273ZM228 120Q286 120 292 158L296 186Q297 192 291 192H245Q219 192 205 180T191 148Q191 120 228 120ZM391 539Q377 539 370 549L335 595H333L281 549Q270 539 256 539H143Q138 539 137 542T140 549L275 692Q284 702 295 702H399Q411 702 417 692L501 549Q503 545 502 542T495 539H391Z"  />
<glyph unicode="&#xE3;" horiz-adv-x="522" d="M273 0Q262 0 264 10L268 35H267Q244 14 212 1T135 -12Q109 -12 86 -4T46 19T18 56T8 107Q8 202 70 252T247 302H311Q317 302 319 308L322 319Q324 328 322 335T312 346T287 353T242 356Q213 356 185 349T138 331Q129 327 126 336L87 438Q83 447 93 454Q131 477 185 489T298 502Q355 502 398 493T467 463T503 405T502 313L447 10Q445 0 436 0H273ZM228 120Q286 120 292 158L296 186Q297 192 291 192H245Q219 192 205 180T191 148Q191 120 228 120ZM389 539Q360 539 340 546T302 564Q286 573 274 577T246 581Q224 581 205 573T163 548Q158 545 155 546T152 553L168 642Q171 656 181 665Q202 682 224 693T271 704Q300 704 320 697T358 678Q374 669 386 665T414 661Q436 661 455 669T497 694Q502 697 505 696T508 689L492 600Q490 592 487 587T478 577Q457 559 436 549T389 539Z"  />
<glyph unicode="&#xE4;" horiz-adv-x="522" d="M273 0Q262 0 264 10L268 35H267Q244 14 212 1T135 -12Q109 -12 86 -4T46 19T18 56T8 107Q8 202 70 252T247 302H311Q317 302 319 308L322 319Q324 328 322 335T312 346T287 353T242 356Q213 356 185 349T138 331Q129 327 126 336L87 438Q83 447 93 454Q131 477 185 489T298 502Q355 502 398 493T467 463T503 405T502 313L447 10Q445 0 436 0H273ZM228 120Q286 120 292 158L296 186Q297 192 291 192H245Q219 192 205 180T191 148Q191 120 228 120ZM355 544Q344 544 346 554L368 674Q370 684 380 684H502Q512 684 510 674L488 554Q486 544 477 544H355ZM152 544Q141 544 143 554L165 674Q167 684 177 684H299Q309 684 307 674L285 554Q283 544 274 544H152Z"  />
<glyph unicode="&#xE5;" horiz-adv-x="522" d="M273 0Q262 0 264 10L268 35H267Q244 14 212 1T135 -12Q109 -12 86 -4T46 19T18 56T8 107Q8 202 70 252T247 302H311Q317 302 319 308L322 319Q324 328 322 335T312 346T287 353T242 356Q213 356 185 349T138 331Q129 327 126 336L87 438Q83 447 93 454Q131 477 185 489T298 502Q355 502 398 493T467 463T503 405T502 313L447 10Q445 0 436 0H273ZM228 120Q286 120 292 158L296 186Q297 192 291 192H245Q219 192 205 180T191 148Q191 120 228 120ZM318 516Q272 516 244 541T215 610Q215 640 225 666T254 711T299 741T357 752Q403 752 431 727T460 658Q460 628 450 602T421 557T376 527T318 516ZM330 591Q350 591 363 606T377 644Q377 659 369 668T345 677Q325 677 312 662T298 624Q298 609 306 600T330 591Z"  />
<glyph unicode="&#xE6;" horiz-adv-x="797" d="M484 192Q479 192 477 187Q476 184 476 177Q476 151 497 140T554 128Q580 128 607 138T664 167Q673 173 678 166L737 82Q743 74 735 66Q690 28 638 8T507 -12Q479 -12 456 -6T413 9T381 29T360 53H359Q326 23 283 6T166 -12Q92 -12 50 19T8 117Q8 205 70 253T247 302H311Q317 302 319 308L322 319Q324 328 322 335T312 346T287 353T242 356Q213 356 185 349T138 331Q129 327 126 336L87 438Q83 447 93 454Q131 477 185 489T298 502Q347 502 385 490T449 461H450Q474 478 510 490T585 502Q629 502 666 491T730 457T772 403T787 327Q787 307 784 277T773 202Q771 192 761 192H484ZM602 302Q607 302 609 308Q612 318 612 327Q612 350 600 361T565 372Q545 372 530 362T506 335Q500 324 499 308Q499 302 504 302H602ZM228 120Q286 120 292 158L296 186Q297 192 291 192H245Q219 192 205 180T191 148Q191 120 228 120Z"  />
<glyph unicode="&#xE7;" horiz-adv-x="489" d="M61 -171Q51 -171 56 -161L144 -2Q87 15 54 58T21 171Q21 213 30 264T62 361Q98 436 162 469T307 502Q348 502 380 492T437 463T475 421T494 370Q495 361 487 357L344 300Q339 298 335 299T328 305Q322 328 313 337T287 347Q273 347 261 341T241 317Q236 307 231 289T223 250T217 212T214 183Q214 143 251 143Q267 143 280 153T308 188Q314 198 324 194L455 132Q463 128 458 119Q426 66 383 35T280 -7L209 -161Q205 -171 192 -171H61Z"  />
<glyph unicode="&#xE8;" horiz-adv-x="523" d="M233 -12Q187 -12 149 -2T82 31T37 88T21 171Q21 219 31 269T62 362Q97 435 158 468T311 502Q355 502 392 491T456 457T498 403T513 327Q513 307 510 277T499 202Q497 192 487 192H210Q205 192 203 187Q202 184 202 177Q202 151 223 140T280 128Q306 128 333 138T389 167Q398 173 403 166L463 82Q470 73 461 66Q414 27 361 8T233 -12ZM327 302Q332 302 334 308Q337 318 337 327Q337 372 291 372Q270 372 255 362T232 335Q225 321 225 308Q225 302 230 302H327ZM267 541Q255 541 249 551L172 694Q170 698 171 701T178 704H327Q339 704 342 694L397 551Q400 541 389 541H267Z"  />
<glyph unicode="&#xE9;" horiz-adv-x="523" d="M242 541Q237 541 236 544T238 551L345 694Q352 704 364 704H522Q527 704 528 701T525 694L396 551Q387 541 377 541H242ZM233 -12Q187 -12 149 -2T82 31T37 88T21 171Q21 219 31 269T62 362Q97 435 158 468T311 502Q355 502 392 491T456 457T498 403T513 327Q513 307 510 277T499 202Q497 192 487 192H210Q205 192 203 187Q202 184 202 177Q202 151 223 140T280 128Q306 128 333 138T389 167Q398 173 403 166L463 82Q470 73 461 66Q414 27 361 8T233 -12ZM327 302Q332 302 334 308Q337 318 337 327Q337 372 291 372Q270 372 255 362T232 335Q225 321 225 308Q225 302 230 302H327Z"  />
<glyph unicode="&#xEA;" horiz-adv-x="523" d="M386 539Q372 539 365 549L330 595H328L276 549Q265 539 251 539H138Q133 539 132 542T135 549L270 692Q279 702 290 702H394Q406 702 412 692L496 549Q498 545 497 542T490 539H386ZM233 -12Q187 -12 149 -2T82 31T37 88T21 171Q21 219 31 269T62 362Q97 435 158 468T311 502Q355 502 392 491T456 457T498 403T513 327Q513 307 510 277T499 202Q497 192 487 192H210Q205 192 203 187Q202 184 202 177Q202 151 223 140T280 128Q306 128 333 138T389 167Q398 173 403 166L463 82Q470 73 461 66Q414 27 361 8T233 -12ZM327 302Q332 302 334 308Q337 318 337 327Q337 372 291 372Q270 372 255 362T232 335Q225 321 225 308Q225 302 230 302H327Z"  />
<glyph unicode="&#xEB;" horiz-adv-x="523" d="M356 544Q345 544 347 554L369 674Q371 684 381 684H503Q513 684 511 674L489 554Q487 544 478 544H356ZM153 544Q142 544 144 554L166 674Q168 684 178 684H300Q310 684 308 674L286 554Q284 544 275 544H153ZM233 -12Q187 -12 149 -2T82 31T37 88T21 171Q21 219 31 269T62 362Q97 435 158 468T311 502Q355 502 392 491T456 457T498 403T513 327Q513 307 510 277T499 202Q497 192 487 192H210Q205 192 203 187Q202 184 202 177Q202 151 223 140T280 128Q306 128 333 138T389 167Q398 173 403 166L463 82Q470 73 461 66Q414 27 361 8T233 -12ZM327 302Q332 302 334 308Q337 318 337 327Q337 372 291 372Q270 372 255 362T232 335Q225 321 225 308Q225 302 230 302H327Z"  />
<glyph unicode="&#xEC;" horiz-adv-x="276" d="M15 0Q5 0 7 10L90 480Q92 490 101 490H275Q285 490 283 480L200 10Q198 0 189 0H15ZM139 541Q127 541 121 551L44 694Q42 698 43 701T50 704H199Q211 704 214 694L269 551Q272 541 261 541H139Z"  />
<glyph unicode="&#xED;" horiz-adv-x="276" d="M128 541Q123 541 122 544T124 551L231 694Q238 704 250 704H408Q413 704 414 701T411 694L282 551Q273 541 263 541H128ZM15 0Q5 0 7 10L90 480Q92 490 101 490H275Q285 490 283 480L200 10Q198 0 189 0H15Z"  />
<glyph unicode="&#xEE;" horiz-adv-x="276" d="M267 539Q253 539 246 549L211 595H209L157 549Q146 539 132 539H19Q14 539 13 542T16 549L151 692Q160 702 171 702H275Q287 702 293 692L377 549Q379 545 378 542T371 539H267ZM15 0Q5 0 7 10L90 480Q92 490 101 490H275Q285 490 283 480L200 10Q198 0 189 0H15Z"  />
<glyph unicode="&#xEF;" horiz-adv-x="276" d="M240 544Q229 544 231 554L253 674Q255 684 265 684H387Q397 684 395 674L373 554Q371 544 362 544H240ZM37 544Q26 544 28 554L50 674Q52 684 62 684H184Q194 684 192 674L170 554Q168 544 159 544H37ZM15 0Q5 0 7 10L90 480Q92 490 101 490H275Q285 490 283 480L200 10Q198 0 189 0H15Z"  />
<glyph unicode="&#xF0;" horiz-adv-x="529" d="M425 553L433 539Q476 459 493 398T511 281Q511 249 505 208T479 128Q411 -12 231 -12Q134 -12 81 38T27 177Q27 215 33 246T57 315Q84 372 130 403T238 435Q277 435 301 417H303L257 505L158 477Q149 475 148 484L139 563Q137 573 147 576L210 594L171 670Q169 674 170 677T177 680H346Q354 680 357 678T363 671L378 642L472 669Q481 671 482 662L491 583Q493 573 483 570L425 553ZM254 143Q268 143 279 149T301 174Q310 193 314 212T318 249Q318 290 281 290Q267 290 255 284T234 259Q225 240 221 220T217 184Q217 143 254 143Z"  />
<glyph unicode="&#xF1;" horiz-adv-x="549" d="M289 0Q278 0 280 10L329 289Q339 344 299 344Q258 344 249 290L200 10Q198 0 189 0H15Q5 0 7 10L90 480Q92 490 101 490H274Q284 490 282 480L276 442H277Q298 468 330 485T407 502Q451 502 478 488T519 450T534 392T529 320L473 10Q471 0 462 0H289ZM400 539Q371 539 351 546T313 564Q297 573 285 577T257 581Q235 581 216 573T174 548Q169 545 166 546T163 553L179 642Q182 656 192 665Q213 682 235 693T282 704Q311 704 331 697T369 678Q385 669 397 665T425 661Q447 661 466 669T508 694Q513 697 516 696T519 689L503 600Q501 592 498 587T489 577Q468 559 447 549T400 539Z"  />
<glyph unicode="&#xF2;" horiz-adv-x="522" d="M226 -12Q181 -12 143 0T78 35T36 94T21 177Q21 218 30 269T60 362Q98 439 161 470T307 502Q352 502 390 490T455 455T497 396T512 313Q512 272 503 221T473 128Q435 51 372 20T226 -12ZM248 143Q262 143 274 149T295 174Q299 183 304 201T313 240T319 278T322 306Q322 347 285 347Q271 347 259 341T238 316Q233 307 229 289T220 250T214 212T211 184Q211 143 248 143ZM263 541Q251 541 245 551L168 694Q166 698 167 701T174 704H323Q335 704 338 694L393 551Q396 541 385 541H263Z"  />
<glyph unicode="&#xF3;" horiz-adv-x="522" d="M235 541Q230 541 229 544T231 551L338 694Q345 704 357 704H515Q520 704 521 701T518 694L389 551Q380 541 370 541H235ZM226 -12Q181 -12 143 0T78 35T36 94T21 177Q21 218 30 269T60 362Q98 439 161 470T307 502Q352 502 390 490T455 455T497 396T512 313Q512 272 503 221T473 128Q435 51 372 20T226 -12ZM248 143Q262 143 274 149T295 174Q299 183 304 201T313 240T319 278T322 306Q322 347 285 347Q271 347 259 341T238 316Q233 307 229 289T220 250T214 212T211 184Q211 143 248 143Z"  />
<glyph unicode="&#xF4;" horiz-adv-x="522" d="M383 539Q369 539 362 549L327 595H325L273 549Q262 539 248 539H135Q130 539 129 542T132 549L267 692Q276 702 287 702H391Q403 702 409 692L493 549Q495 545 494 542T487 539H383ZM226 -12Q181 -12 143 0T78 35T36 94T21 177Q21 218 30 269T60 362Q98 439 161 470T307 502Q352 502 390 490T455 455T497 396T512 313Q512 272 503 221T473 128Q435 51 372 20T226 -12ZM248 143Q262 143 274 149T295 174Q299 183 304 201T313 240T319 278T322 306Q322 347 285 347Q271 347 259 341T238 316Q233 307 229 289T220 250T214 212T211 184Q211 143 248 143Z"  />
<glyph unicode="&#xF5;" horiz-adv-x="522" d="M226 -12Q181 -12 143 0T78 35T36 94T21 177Q21 218 30 269T60 362Q98 439 161 470T307 502Q352 502 390 490T455 455T497 396T512 313Q512 272 503 221T473 128Q435 51 372 20T226 -12ZM248 143Q262 143 274 149T295 174Q299 183 304 201T313 240T319 278T322 306Q322 347 285 347Q271 347 259 341T238 316Q233 307 229 289T220 250T214 212T211 184Q211 143 248 143ZM376 539Q347 539 327 546T289 564Q273 573 261 577T233 581Q211 581 192 573T150 548Q145 545 142 546T139 553L155 642Q158 656 168 665Q189 682 211 693T258 704Q287 704 307 697T345 678Q361 669 373 665T401 661Q423 661 442 669T484 694Q489 697 492 696T495 689L479 600Q477 592 474 587T465 577Q444 559 423 549T376 539Z"  />
<glyph unicode="&#xF6;" horiz-adv-x="522" d="M351 544Q340 544 342 554L364 674Q366 684 376 684H498Q508 684 506 674L484 554Q482 544 473 544H351ZM148 544Q137 544 139 554L161 674Q163 684 173 684H295Q305 684 303 674L281 554Q279 544 270 544H148ZM226 -12Q181 -12 143 0T78 35T36 94T21 177Q21 218 30 269T60 362Q98 439 161 470T307 502Q352 502 390 490T455 455T497 396T512 313Q512 272 503 221T473 128Q435 51 372 20T226 -12ZM248 143Q262 143 274 149T295 174Q299 183 304 201T313 240T319 278T322 306Q322 347 285 347Q271 347 259 341T238 316Q233 307 229 289T220 250T214 212T211 184Q211 143 248 143Z"  />
<glyph unicode="&#xF7;" horiz-adv-x="533" d="M279 390Q259 390 243 397T213 417T193 447T186 483Q186 502 193 519T213 548T242 568T279 576Q298 576 315 569T344 549T364 519T371 483Q371 464 364 447T345 418T315 398T279 390ZM48 197Q38 197 38 207V345Q38 355 48 355H510Q520 355 520 345V207Q520 197 510 197H48ZM279 -24Q259 -24 243 -17T213 3T193 33T186 69Q186 88 193 105T213 134T242 154T279 162Q298 162 315 155T344 135T364 105T371 69Q371 50 364 33T345 4T315 -16T279 -24Z"  />
<glyph unicode="&#xF8;" horiz-adv-x="522" d="M-32 -30Q-37 -30 -37 -27T-34 -20L49 69Q35 91 28 117T21 177Q21 218 30 269T60 362Q98 439 161 470T307 502Q371 502 419 478L447 509Q457 519 467 519H562Q567 519 567 516T564 509L483 421Q512 378 512 313Q512 272 503 221T473 128Q435 51 372 20T226 -12Q161 -12 113 11L84 -20Q75 -30 64 -30H-32ZM248 143Q262 143 274 149T295 174Q299 183 304 201T313 240T319 278T322 306Q322 347 285 347Q271 347 259 341T238 316Q233 307 229 289T220 250T214 212T211 184Q211 143 248 143Z"  />
<glyph unicode="&#xF9;" horiz-adv-x="547" d="M286 0Q276 0 278 10L284 47H283Q261 21 228 5T151 -12Q109 -12 83 1T43 38T27 96T33 171L87 480Q89 490 98 490H272Q282 490 280 480L230 200Q221 146 261 146Q302 146 311 200L360 480Q362 490 371 490H545Q555 490 553 480L470 10Q468 0 459 0H286ZM276 541Q264 541 258 551L181 694Q179 698 180 701T187 704H336Q348 704 351 694L406 551Q409 541 398 541H276Z"  />
<glyph unicode="&#xFA;" horiz-adv-x="547" d="M256 541Q251 541 250 544T252 551L359 694Q366 704 378 704H536Q541 704 542 701T539 694L410 551Q401 541 391 541H256ZM286 0Q276 0 278 10L284 47H283Q261 21 228 5T151 -12Q109 -12 83 1T43 38T27 96T33 171L87 480Q89 490 98 490H272Q282 490 280 480L230 200Q221 146 261 146Q302 146 311 200L360 480Q362 490 371 490H545Q555 490 553 480L470 10Q468 0 459 0H286Z"  />
<glyph unicode="&#xFB;" horiz-adv-x="547" d="M397 539Q383 539 376 549L341 595H339L287 549Q276 539 262 539H149Q144 539 143 542T146 549L281 692Q290 702 301 702H405Q417 702 423 692L507 549Q509 545 508 542T501 539H397ZM286 0Q276 0 278 10L284 47H283Q261 21 228 5T151 -12Q109 -12 83 1T43 38T27 96T33 171L87 480Q89 490 98 490H272Q282 490 280 480L230 200Q221 146 261 146Q302 146 311 200L360 480Q362 490 371 490H545Q555 490 553 480L470 10Q468 0 459 0H286Z"  />
<glyph unicode="&#xFC;" horiz-adv-x="547" d="M372 544Q361 544 363 554L385 674Q387 684 397 684H519Q529 684 527 674L505 554Q503 544 494 544H372ZM169 544Q158 544 160 554L182 674Q184 684 194 684H316Q326 684 324 674L302 554Q300 544 291 544H169ZM286 0Q276 0 278 10L284 47H283Q261 21 228 5T151 -12Q109 -12 83 1T43 38T27 96T33 171L87 480Q89 490 98 490H272Q282 490 280 480L230 200Q221 146 261 146Q302 146 311 200L360 480Q362 490 371 490H545Q555 490 553 480L470 10Q468 0 459 0H286Z"  />
<glyph unicode="&#xFD;" horiz-adv-x="543" d="M28 -180Q18 -180 20 -170L44 -35Q46 -25 56 -25H83Q105 -25 118 -18T143 9L156 36L52 480Q50 490 60 490H235Q245 490 246 480L280 264H282L384 480Q388 490 399 490H579Q590 490 585 479L267 -69Q248 -102 229 -123T186 -157T134 -175T68 -180H28ZM243 541Q238 541 237 544T239 551L346 694Q353 704 365 704H523Q528 704 529 701T526 694L397 551Q388 541 378 541H243Z"  />
<glyph unicode="&#xFE;" horiz-adv-x="547" d="M316 -12Q272 -12 245 4T208 47H207L168 -170Q166 -180 157 -180H-17Q-27 -180 -25 -170L124 670Q126 680 134 680H308Q319 680 317 670L276 443H277Q297 470 330 486T406 502Q480 502 510 461T540 343Q540 318 536 286T525 219T507 151T485 94Q457 37 417 13T316 -12ZM271 143Q287 143 298 150T318 174Q322 183 326 200T334 237T340 275T343 303Q343 347 306 347Q290 347 279 340T259 316Q255 307 251 290T243 253T237 215T234 187Q234 143 271 143Z"  />
<glyph unicode="&#xFF;" horiz-adv-x="543" d="M28 -180Q18 -180 20 -170L44 -35Q46 -25 56 -25H83Q105 -25 118 -18T143 9L156 36L52 480Q50 490 60 490H235Q245 490 246 480L280 264H282L384 480Q388 490 399 490H579Q590 490 585 479L267 -69Q248 -102 229 -123T186 -157T134 -175T68 -180H28ZM377 544Q366 544 368 554L390 674Q392 684 402 684H524Q534 684 532 674L510 554Q508 544 499 544H377ZM174 544Q163 544 165 554L187 674Q189 684 199 684H321Q331 684 329 674L307 554Q305 544 296 544H174Z"  />
<glyph unicode="&#x110;" horiz-adv-x="616" d="M17 0Q7 0 9 10L55 272Q56 278 50 278H25Q15 278 17 288L36 399Q38 409 48 409H73Q78 409 80 415L126 670Q128 680 136 680H401Q505 680 562 631T619 475Q619 445 615 402T602 314T582 227T556 157Q513 70 443 35T282 0H17ZM274 179Q314 179 335 190T373 233Q380 248 387 274T399 330T408 386T412 427Q412 465 394 483T328 501H303Q298 501 297 495L283 415Q281 409 287 409H340Q350 409 348 399L329 288Q327 278 318 278H264Q258 278 257 272L242 185Q240 179 246 179H274Z"  />
<glyph unicode="&#x131;" horiz-adv-x="276" d="M15 0Q5 0 7 10L90 480Q92 490 101 490H275Q285 490 283 480L200 10Q198 0 189 0H15Z"  />
<glyph unicode="&#x152;" horiz-adv-x="866" d="M349 0Q339 0 341 10L345 28H343Q326 11 297 0T228 -12Q39 -12 39 208Q39 234 44 276T57 365T78 456T104 530Q146 615 209 653T347 692Q381 692 410 682T453 652H455L458 670Q460 680 468 680H910Q920 680 918 670L892 522Q890 512 882 512H636Q630 512 630 506L616 431Q614 425 620 425H816Q826 425 824 415L800 271Q798 261 788 261H592Q586 261 585 255L570 174Q570 168 575 168H819Q829 168 827 158L801 10Q799 0 790 0H349ZM298 167Q324 167 341 180T370 216Q375 227 382 258T397 326T409 398T414 453Q414 480 401 496T359 513Q333 513 316 500T287 464Q282 453 275 422T260 354T248 282T243 227Q243 200 256 184T298 167Z"  />
<glyph unicode="&#x153;" horiz-adv-x="809" d="M495 192Q490 192 488 187Q487 184 487 177Q487 151 508 140T565 128Q591 128 618 138T674 167Q683 173 688 166L748 82Q755 73 746 66Q699 27 646 8T518 -12Q476 -12 441 -2T374 34H373Q343 13 305 1T225 -12Q180 -12 143 0T78 35T36 94T21 177Q21 218 30 269T60 362Q97 439 161 470T307 502Q350 502 385 490T447 454H449Q472 474 511 488T596 502Q640 502 677 491T741 457T783 403T798 327Q798 307 795 277T784 202Q782 192 772 192H495ZM611 302Q617 302 619 308Q622 318 622 327Q622 372 576 372Q555 372 540 362T517 335Q510 321 510 308Q510 302 515 302H611ZM248 143Q262 143 273 149T295 174Q299 183 304 201T313 240T319 278T322 306Q322 347 285 347Q271 347 259 341T238 316Q233 307 229 289T220 250T214 212T211 184Q211 143 248 143Z"  />
<glyph unicode="&#x160;" horiz-adv-x="595" d="M257 -12Q215 -12 174 -4T97 19T34 51T-10 89Q-13 93 -13 98T-8 107L112 224Q116 228 120 228T127 224Q151 198 190 180T275 162Q317 162 340 176T363 213Q363 227 351 237T306 252L271 257Q174 271 125 315T75 434Q75 491 95 538T154 620T246 673T368 692Q442 692 503 671T607 613Q615 607 606 596L499 475Q491 467 483 473Q455 495 423 507T353 519Q322 519 304 507T285 475Q285 461 296 452T343 437L377 432Q474 418 524 374T574 253Q574 191 552 142T488 59T388 6T257 -12ZM320 727Q307 727 301 737L217 880Q215 884 216 887T223 890H327Q340 890 348 880L383 835H385L437 880Q448 890 462 890H575Q580 890 581 887T578 880L443 737Q434 727 423 727H320Z"  />
<glyph unicode="&#x161;" horiz-adv-x="509" d="M247 535Q235 535 229 545L145 688Q143 692 144 695T151 698H255Q268 698 276 688L311 643H313L365 688Q376 698 390 698H503Q508 698 509 695T506 688L371 545Q362 535 351 535H247ZM224 -12Q146 -12 89 10T-7 66Q-15 72 -6 81L83 172Q90 179 99 173Q141 147 176 135T251 123Q275 123 289 132T303 152Q303 160 295 165T257 173L204 179Q136 187 98 218T59 306Q59 397 123 449T302 502Q371 502 425 483T510 437Q517 431 508 422L427 336Q419 328 412 333Q386 350 355 360T284 371Q262 371 250 364T238 346Q238 338 245 333T277 325L329 319Q414 310 450 276T486 191Q486 146 468 109T416 44T334 3T224 -12Z"  />
<glyph unicode="&#x178;" horiz-adv-x="605" d="M175 0Q164 0 166 10L209 255L77 669Q73 680 86 680H257Q269 680 272 670L334 449H337L477 670Q483 680 494 680H683Q696 680 689 669L411 255L368 10Q366 0 357 0H175ZM437 742Q426 742 428 752L450 872Q452 882 462 882H584Q594 882 592 872L570 752Q568 742 559 742H437ZM234 742Q223 742 225 752L247 872Q249 882 259 882H381Q391 882 389 872L367 752Q365 742 356 742H234Z"  />
<glyph unicode="&#x17D;" horiz-adv-x="578" d="M325 727Q312 727 306 737L222 880Q220 884 221 887T228 890H332Q345 890 353 880L388 835H390L442 880Q453 890 467 890H580Q585 890 586 887T583 880L448 737Q439 727 428 727H325ZM11 0Q0 0 2 10L30 166Q32 173 35 176L352 498L353 501H109Q99 501 101 511L130 670Q132 680 140 680H614Q625 680 623 670L595 515Q593 508 590 505L271 182L270 179H526Q536 179 534 169L506 10Q504 0 495 0H11Z"  />
<glyph unicode="&#x17E;" horiz-adv-x="484" d="M250 535Q238 535 232 545L148 688Q146 692 147 695T154 698H258Q271 698 279 688L314 643H316L368 688Q379 698 393 698H506Q511 698 512 695T509 688L374 545Q365 535 354 535H250ZM5 0Q-4 0 -2 10L20 138Q21 147 27 151L253 339V342H77Q68 342 70 352L93 480Q95 490 104 490H497Q506 490 504 480L482 352Q481 345 475 339L249 152V149H436Q446 149 444 139L421 10Q419 0 409 0H5Z"  />
<glyph unicode="&#x192;" horiz-adv-x="553" d="M384 292L292 8Q274 -46 251 -82T198 -140T130 -171T43 -180H3Q-7 -180 -5 -170L19 -33Q21 -23 30 -23H52Q75 -23 87 -13T108 22L196 292H143Q134 292 136 302L157 422Q159 432 168 432H242L262 492Q280 546 303 582T356 640T425 671T511 680H550Q560 680 558 670L535 533Q533 523 524 523H501Q478 523 465 513T444 478L429 432H486Q495 432 493 422L472 302Q470 292 461 292H384Z"  />
<glyph unicode="&#x2C6;" horiz-adv-x="513" d="M385 539Q371 539 364 549L329 595H327L275 549Q264 539 250 539H137Q132 539 131 542T134 549L269 692Q278 702 289 702H393Q405 702 411 692L495 549Q497 545 496 542T489 539H385Z"  />
<glyph unicode="&#x2C7;" horiz-adv-x="513" d="M261 535Q249 535 243 545L159 688Q157 692 158 695T165 698H269Q282 698 290 688L325 643H327L379 688Q390 698 404 698H517Q522 698 523 695T520 688L385 545Q376 535 365 535H261Z"  />
<glyph unicode="&#x2DA;" horiz-adv-x="513" d="M312 516Q266 516 238 541T209 610Q209 640 219 666T248 711T293 741T351 752Q397 752 425 727T454 658Q454 628 444 602T415 557T370 527T312 516ZM324 591Q344 591 357 606T371 644Q371 659 363 668T339 677Q319 677 306 662T292 624Q292 609 300 600T324 591Z"  />
<glyph unicode="&#x2DC;" horiz-adv-x="513" d="M389 539Q360 539 340 546T302 564Q286 573 274 577T246 581Q224 581 205 573T163 548Q158 545 155 546T152 553L168 642Q171 656 181 665Q202 682 224 693T271 704Q300 704 320 697T358 678Q374 669 386 665T414 661Q436 661 455 669T497 694Q502 697 505 696T508 689L492 600Q490 592 487 587T478 577Q457 559 436 549T389 539Z"  />
<glyph unicode="&#x3BC;" horiz-adv-x="548" d="M289 0Q278 0 280 10L286 47H285Q271 31 256 19T221 1Q207 -2 198 -1L168 -170Q166 -180 157 -180H-17Q-27 -180 -25 -170L89 480Q91 490 101 490H275Q284 490 282 480L232 200Q223 146 263 146Q304 146 313 200L362 480Q364 490 374 490H547Q557 490 555 480L472 10Q470 0 461 0H289Z"  />
<glyph unicode="&#x2013;" horiz-adv-x="552" d="M25 184Q15 184 17 194L42 336Q44 346 54 346H548Q557 346 555 336L530 194Q528 184 519 184H25Z"  />
<glyph unicode="&#x2014;" horiz-adv-x="923" d="M25 184Q15 184 17 194L42 336Q44 346 54 346H919Q928 346 926 336L900 194Q898 184 889 184H25Z"  />
<glyph unicode="&#x2018;" horiz-adv-x="240" d="M98 440Q87 440 89 450L111 575Q114 590 126 598L246 674Q259 682 265 682Q277 682 275 669L236 450Q234 440 225 440H98Z"  />
<glyph unicode="&#x2019;" horiz-adv-x="240" d="M99 438Q87 438 89 451L128 670Q130 680 139 680H266Q277 680 275 670L253 545Q250 530 238 522L118 446Q105 438 99 438Z"  />
<glyph unicode="&#x201A;" horiz-adv-x="240" d="M6 -89Q-6 -89 -4 -76L35 143Q37 153 46 153H173Q184 153 182 143L160 18Q157 3 145 -5L25 -81Q12 -89 6 -89Z"  />
<glyph unicode="&#x201C;" horiz-adv-x="446" d="M304 440Q293 440 295 450L317 575Q319 583 321 588T331 598L452 674Q465 682 470 682Q482 682 480 669L442 450Q440 440 431 440H304ZM98 440Q87 440 89 450L111 575Q114 590 126 598L246 674Q259 682 265 682Q277 682 275 669L236 450Q234 440 225 440H98Z"  />
<glyph unicode="&#x201D;" horiz-adv-x="446" d="M305 438Q293 438 295 451L333 670Q335 680 344 680H471Q482 680 480 670L459 545Q456 530 444 522L324 446Q311 438 305 438ZM99 438Q87 438 89 451L128 670Q130 680 139 680H266Q277 680 275 670L253 545Q250 530 238 522L118 446Q105 438 99 438Z"  />
<glyph unicode="&#x201E;" horiz-adv-x="446" d="M211 -89Q199 -89 201 -76L240 143Q242 153 251 153H378Q389 153 387 143L365 18Q362 3 350 -5L230 -81Q217 -89 211 -89ZM6 -89Q-6 -89 -4 -76L35 143Q37 153 46 153H173Q184 153 182 143L160 18Q157 3 145 -5L25 -81Q12 -89 6 -89Z"  />
<glyph unicode="&#x2020;" horiz-adv-x="564" d="M126 -180Q115 -180 118 -170L202 299Q202 305 197 305H57Q47 305 49 315L76 469Q78 479 86 479H226Q232 479 234 485L266 670Q268 680 277 680H453Q463 680 461 670L427 485Q425 479 431 479H571Q582 479 580 469L553 315Q551 305 542 305H402Q395 305 395 299L313 -170Q310 -180 302 -180H126Z"  />
<glyph unicode="&#x2021;" horiz-adv-x="564" d="M126 -180Q115 -180 118 -170L145 -25Q146 -19 140 -19H0Q-10 -19 -8 -9L19 145Q21 155 30 155H170Q175 155 177 161L209 339Q210 345 204 345H64Q54 345 56 355L83 509Q85 519 94 519H234Q239 519 241 525L266 670Q268 680 277 680H453Q463 680 461 670L434 525Q432 519 439 519H579Q589 519 587 509L560 355Q558 345 549 345H409Q403 345 402 339L370 161Q368 155 375 155H515Q525 155 523 145L496 -9Q494 -19 485 -19H345Q339 -19 338 -25L313 -170Q310 -180 302 -180H126Z"  />
<glyph unicode="&#x2022;" horiz-adv-x="444" d="M242 137Q205 137 174 150T119 186T83 240T70 309Q70 346 83 377T119 432T173 468T242 481Q279 481 310 468T365 432T401 378T414 309Q414 272 401 241T365 186T311 150T242 137Z"  />
<glyph unicode="&#x2026;" horiz-adv-x="741" d="M505 0Q494 0 496 10L522 165Q524 175 533 175H688Q699 175 697 165L670 10Q668 0 659 0H505ZM258 0Q247 0 249 10L275 165Q277 175 286 175H441Q452 175 450 165L423 10Q421 0 412 0H258ZM11 0Q0 0 2 10L28 165Q30 175 39 175H194Q205 175 203 165L176 10Q174 0 165 0H11Z"  />
<glyph unicode="&#x2030;" horiz-adv-x="1198" d="M134 -12Q129 -12 129 -9T132 -2L636 682Q643 692 654 692H772Q777 692 777 689T774 682L269 -2Q262 -12 251 -12H134ZM227 330Q174 330 140 359T105 446Q105 483 111 525T136 604Q177 688 291 688Q345 688 379 659T414 571Q414 526 407 488T383 414Q361 369 323 350T227 330ZM244 421Q251 421 256 424T266 437Q269 442 273 462T281 506T288 550T291 578Q291 597 274 597Q267 597 263 594T253 581Q250 576 246 556T238 512T231 468T228 440Q228 421 244 421ZM959 -8Q905 -8 871 21T836 108Q836 145 843 187T868 266Q908 350 1023 350Q1077 350 1111 321T1146 233Q1146 188 1139 150T1115 76Q1093 31 1055 12T959 -8ZM615 -8Q561 -8 527 21T492 108Q492 145 499 187T523 266Q564 350 679 350Q733 350 767 321T802 233Q802 188 795 150T771 76Q749 31 711 12T615 -8ZM976 83Q983 83 987 86T997 99Q1000 104 1004 124T1013 168T1020 212T1023 240Q1023 259 1006 259Q999 259 995 256T985 243Q982 238 978 218T970 174T963 130T960 102Q960 83 976 83ZM632 83Q639 83 643 86T653 99Q656 104 660 124T668 168T675 212T678 240Q678 259 662 259Q655 259 651 256T641 243Q638 238 634 218T625 174T618 130T615 102Q615 83 632 83Z"  />
<glyph unicode="&#x2039;" horiz-adv-x="325" d="M25 257Q19 265 27 271L319 518Q323 521 326 520T328 513L299 353Q297 345 295 341T285 330L204 258Q199 254 202 250L258 178Q267 168 264 156L239 13Q238 8 235 8T228 11L25 257Z"  />
<glyph unicode="&#x203A;" horiz-adv-x="325" d="M24 10Q20 7 17 8T15 15L44 175Q46 183 48 187T58 198L140 270Q145 274 142 278L85 350Q76 360 79 372L104 515Q105 520 108 520T115 517L318 271Q324 263 316 257L24 10Z"  />
<glyph unicode="&#x20AC;" horiz-adv-x="553" d="M282 -12Q238 -12 202 -2T139 29T99 84T84 164Q84 181 86 199T91 236Q92 242 86 242H48Q38 242 40 252L51 313Q53 323 63 323H101Q106 323 108 329L112 354Q113 360 107 360H69Q59 360 61 370L72 431Q74 441 83 441H121Q126 441 128 447Q133 479 141 503T160 549Q195 618 256 655T406 692Q490 692 535 657T594 566Q597 556 587 552L440 493Q435 491 431 492T425 500Q417 537 384 537Q354 537 337 503Q333 496 329 478T322 447Q320 441 327 441H457Q462 441 465 439T466 431L445 370Q442 360 433 360H313Q307 360 306 354L302 329Q300 323 307 323H417Q428 323 425 313L404 252Q401 242 392 242H292Q286 242 285 236Q281 215 280 203T278 185Q278 166 286 155T314 143Q332 143 345 153T369 181Q375 192 386 187L511 129Q521 125 515 114Q481 59 424 24T282 -12Z"  />
<glyph unicode="&#x2122;" horiz-adv-x="853" d="M755 286Q745 286 745 296V477H742L686 349Q682 339 672 339H626Q616 339 612 349L558 477H555V296Q555 286 545 286H459Q449 286 449 296V670Q449 680 459 680H552Q563 680 567 670L649 485H653L735 670Q739 680 750 680H841Q851 680 851 670V296Q851 286 841 286H755ZM204 286Q194 286 194 296V569Q194 575 188 575H98Q88 575 88 585V670Q88 680 98 680H407Q417 680 417 670V585Q417 575 407 575H318Q312 575 312 569V296Q312 286 302 286H204Z"  />

</font>
</defs>
</svg>
