<?xml  version="1.0" encoding="UTF-8"?>
<!DOCTYPE svg PUBLIC "-//W3C//DTD SVG 1.0//EN" "http://www.w3.org/TR/2001/REC-SVG-20010904/DTD/svg10.dtd" >
<svg xmlns="http://www.w3.org/2000/svg" >
<metadata>
<version>1.0</version>
<id><![CDATA[DIN Next W01 Bold Italic]]></id>
<vendor>Monotype Imaging Inc.</vendor>
<credits>
<name>Fonts.com WebFonts</name>
<URL>http://webfonts.fonts.com</URL>
<role>Home of the Web fonts</role>
</credits>
<license>
<URL>http://webfonts.fonts.com/Legal</URL>
</license>
<copyright><![CDATA[Copyright 2009 Monotype Imaging Inc. All rights reserved.]]></copyright>
<trademark><![CDATA[Felbridge! is a trademark of Monotype Imaging Inc. and may be registered in certain jurisdictions.]]></trademark>
<licensee>
<name></name>
</licensee>
</metadata>
<defs >
<font horiz-adv-x="499" id="58f54e11-a0ac-4cfa-852e-3c73b93d74a8">
<font-face font-family="" panose-1="2 11 8 3 2 2 3 12 2 3" ascent="850" descent="-350" units-per-em="1000" alphabetic="0">
</font-face>
<missing-glyph horiz-adv-x="229" />

<glyph unicode="&#xA;" />
<glyph unicode="&#xD;" />
<glyph unicode=" " horiz-adv-x="229" />
<glyph unicode="!" horiz-adv-x="299" d="M110 198Q100 198 102 208L161 670Q162 680 172 680H295Q305 680 303 670L200 208Q198 198 189 198H110ZM71 120Q73 130 82 130H195Q206 130 204 120L185 10Q183 0 174 0H60Q50 0 52 10L71 120Z"  />
<glyph unicode="&quot;" horiz-adv-x="359" d="M266 476Q256 476 258 486L291 670Q293 680 302 680H377Q388 680 386 670L353 486Q351 476 342 476H266ZM112 476Q102 476 104 486L137 670Q139 680 148 680H224Q234 680 232 670L199 486Q197 476 188 476H112Z"  />
<glyph unicode="#" horiz-adv-x="533" d="M101 197H40Q29 197 31 207L45 281Q47 291 56 291H130L163 399H101Q90 399 92 409L105 483Q107 493 116 493H192L247 670Q250 680 259 680H345Q356 680 353 670L298 493H400L455 670Q458 680 467 680H553Q563 680 560 670L505 493H569Q580 493 578 483L564 409Q562 399 554 399H476L443 291H509Q520 291 518 281L505 207Q503 197 494 197H414L356 10Q353 0 345 0H259Q248 0 251 10L309 197H207L149 10Q146 0 137 0H51Q41 0 44 10L101 197ZM338 291L371 399H269L236 291H338Z"  />
<glyph unicode="$" horiz-adv-x="536" d="M23 65Q17 73 24 80L100 158Q109 167 115 159Q132 141 160 125T223 106L255 285Q181 296 142 341T102 452Q102 502 118 544T164 617T235 668T326 690L336 747Q338 757 347 757H386Q396 757 394 747L384 689Q430 684 465 669T526 632Q532 626 525 617L459 541Q451 533 445 538Q426 552 406 560T363 573L333 404H335Q412 393 450 351T488 245Q488 189 471 145T424 68T352 16T261 -9L251 -67Q249 -77 239 -77H201Q191 -77 193 -67L203 -10Q142 -5 99 15T23 65ZM305 570Q275 560 257 535T238 475Q238 456 247 441T278 416L305 570ZM282 112Q315 125 333 152T351 214Q351 233 342 247T310 272L282 112Z"  />
<glyph unicode="%" horiz-adv-x="788" d="M622 681Q629 691 639 691H719Q724 691 724 688T722 681L220 -1Q213 -11 203 -11H124Q119 -11 119 -8T120 -1L622 681ZM219 330Q173 330 141 356T108 433Q108 446 110 469T117 518T128 568T142 608Q160 646 193 667T280 688Q327 688 359 662T391 584Q391 570 389 547T382 499T371 449T358 410Q338 372 306 351T219 330ZM231 406Q258 406 270 431Q274 438 279 460T288 506T296 552T299 581Q299 612 268 612Q241 612 229 587Q225 579 221 558T212 512T204 466T201 437Q201 406 231 406ZM451 95Q451 108 453 131T460 179T471 229T484 269Q503 307 536 328T623 349Q670 349 702 323T734 246Q734 232 732 209T725 160T714 111T701 72Q681 33 649 12T562 -9Q516 -9 484 17T451 95ZM543 98Q543 67 574 67Q600 67 612 93Q616 100 621 121T630 167T638 213T641 242Q641 273 610 273Q583 273 571 248Q568 240 563 219T554 173T546 127T543 98Z"  />
<glyph unicode="&amp;" horiz-adv-x="619" d="M32 140Q32 168 38 194T61 249T110 309T193 377Q170 417 158 447T146 508Q146 547 162 580T205 638T270 677T349 691Q418 691 456 654T494 560Q494 534 487 510T463 462T416 411T344 353L408 241L492 324Q499 330 506 324L564 265Q571 258 563 251L461 148L471 132Q484 110 509 110H530Q540 110 538 100L522 10Q520 0 511 0H474Q456 0 442 2T417 11T397 27T377 55L372 63Q323 23 281 6T190 -11Q152 -11 123 1T74 33T43 80T32 140ZM293 446Q319 465 335 479T360 504T372 526T375 546Q375 567 364 579T332 592Q305 592 286 573T267 524Q267 508 272 492T293 446ZM156 160Q156 135 172 118T218 101Q241 101 262 112T319 155L244 286Q191 248 174 220T156 160Z"  />
<glyph unicode="&apos;" horiz-adv-x="205" d="M112 476Q102 476 104 486L136 670Q138 680 147 680H223Q234 680 232 670L199 486Q197 476 188 476H112Z"  />
<glyph unicode="(" horiz-adv-x="301" d="M125 -74Q93 -10 78 60T62 205Q62 345 116 481T267 730Q274 740 284 740H354Q365 740 358 730Q278 604 232 459T186 158Q186 96 193 38T216 -74Q219 -84 209 -84H139Q129 -84 125 -74Z"  />
<glyph unicode=")" horiz-adv-x="301" d="M-15 -74Q64 52 110 197T157 498Q157 560 150 618T127 730Q124 740 134 740H204Q213 740 217 730Q250 666 265 596T281 451Q281 311 227 175T75 -74Q68 -84 59 -84H-11Q-22 -84 -15 -74Z"  />
<glyph unicode="*" horiz-adv-x="360" d="M182 376Q172 376 174 386L190 468L117 427Q107 421 103 430L85 475Q81 484 90 488L169 530L107 571Q98 576 105 585L136 626Q142 634 150 628L211 586L225 670Q227 680 236 680H288Q298 680 296 670L281 590L354 630Q364 636 368 627L386 581Q389 573 380 568L301 527L364 487Q373 482 366 473L335 431Q329 423 320 428L259 469L246 386Q244 376 234 376H182Z"  />
<glyph unicode="+" horiz-adv-x="536" d="M67 219Q57 219 57 229V323Q57 333 67 333H215Q221 333 221 339V491Q221 501 231 501H328Q338 501 338 491V339Q338 333 344 333H492Q502 333 502 323V229Q502 219 492 219H344Q338 219 338 213V61Q338 51 328 51H231Q221 51 221 61V213Q221 219 215 219H67Z"  />
<glyph unicode="&#x2c;" horiz-adv-x="244" d="M44 126Q46 136 55 136H161Q172 136 170 126L151 9Q149 1 147 -3T139 -12L31 -100Q22 -108 15 -108Q3 -108 5 -95L44 126Z"  />
<glyph unicode="-" horiz-adv-x="372" d="M50 207Q40 207 42 217L59 314Q61 324 70 324H347Q357 324 355 314L338 217Q336 207 327 207H50Z"  />
<glyph unicode="." horiz-adv-x="244" d="M41 126Q43 136 52 136H165Q176 136 174 126L154 10Q152 0 143 0H30Q19 0 21 10L41 126Z"  />
<glyph unicode="/" horiz-adv-x="408" d="M333 681Q337 691 347 691H453Q463 691 458 681L127 -1Q123 -11 113 -11H8Q-3 -11 2 -1L333 681Z"  />
<glyph unicode="0" horiz-adv-x="536" d="M56 153Q56 170 59 202T68 273T82 356T98 438T115 509T132 558Q165 626 220 658T350 691Q430 691 479 649T528 527Q528 510 525 478T516 407T502 324T486 242T469 170T452 122Q419 54 364 22T234 -11Q154 -11 105 31T56 153ZM191 164Q191 137 206 120T250 102Q276 102 294 114T324 150Q329 160 336 187T351 251T366 329T380 407T389 473T393 516Q393 543 378 560T334 578Q308 578 290 566T260 530Q255 520 248 493T233 429T218 351T204 273T195 207T191 164Z"  />
<glyph unicode="1" horiz-adv-x="536" d="M273 529H271L151 453Q146 450 143 452T141 460L161 577Q163 587 170 591L297 674Q307 680 315 680H423Q434 680 432 670L315 10Q313 0 304 0H190Q179 0 181 10L273 529Z"  />
<glyph unicode="2" horiz-adv-x="536" d="M43 98Q46 108 52 114L331 400Q361 432 375 458T390 516Q390 544 374 561T329 578Q295 578 271 557T235 495Q232 486 223 487L121 505Q113 507 116 516Q125 551 143 582T191 638T260 676T348 691Q389 691 422 680T478 647T513 598T526 535Q526 477 501 430T428 333L215 117V115H444Q455 115 453 105L436 10Q434 0 425 0H36Q25 0 27 10L43 98Z"  />
<glyph unicode="3" horiz-adv-x="536" d="M38 144Q38 154 49 157L155 177Q165 179 165 169Q169 141 186 122T240 102Q262 102 280 111T311 136T332 173T340 218Q340 254 320 274T263 294H236Q226 294 228 304L244 396Q246 406 256 406H281Q303 406 321 414T353 438T373 472T380 515Q380 544 364 561T319 578Q287 578 266 560T231 512Q228 503 219 505L117 525Q109 527 112 536Q124 569 145 597T196 646T263 679T344 691Q429 691 473 650T517 543Q517 486 491 439T414 363V361Q437 348 456 318T476 238Q476 182 457 137T405 58T326 7T226 -11Q141 -11 90 30T38 144Z"  />
<glyph unicode="4" horiz-adv-x="536" d="M31 103Q21 103 23 113L40 208Q41 214 47 223L318 672Q324 680 334 680H453Q458 680 459 678T458 670L189 220V218H305Q311 218 313 224L340 373Q342 383 351 383H462Q472 383 470 373L444 224Q442 218 448 218H490Q501 218 499 208L482 113Q480 103 471 103H428Q422 103 421 97L406 10Q404 0 395 0H284Q273 0 275 10L290 97Q291 103 285 103H31Z"  />
<glyph unicode="5" horiz-adv-x="536" d="M58 140Q58 149 66 151L173 170Q181 172 183 162Q186 136 201 119T249 102Q274 102 295 114T327 152Q333 163 337 179T345 213T351 246T353 274Q353 340 290 340Q264 340 245 327T216 297Q212 287 202 287H100Q92 287 93 297L159 670Q161 680 169 680H534Q545 680 543 670L526 575Q524 565 514 565H263Q257 565 256 559L231 417H233Q248 431 275 441T340 452Q410 452 448 417T487 306Q487 286 484 261T476 208T464 154T446 108Q416 46 363 18T234 -11Q149 -11 103 31T58 140Z"  />
<glyph unicode="6" horiz-adv-x="536" d="M46 158Q46 211 64 261T125 371L337 673Q342 680 350 680H471Q483 680 476 670L292 404L294 403Q299 406 311 408T337 410Q405 410 448 368T492 251Q492 195 473 148T420 65T338 9T232 -11Q190 -11 156 0T98 34T60 87T46 158ZM178 178Q178 144 197 123T251 102Q274 102 293 111T327 137T350 176T359 224Q359 259 340 279T286 300Q263 300 243 291T209 265T186 226T178 178Z"  />
<glyph unicode="7" horiz-adv-x="536" d="M395 561V563H256Q250 563 249 557L235 485Q233 475 224 475H117Q108 475 110 485L143 670Q145 680 154 680H546Q556 680 554 670L537 573Q536 567 531 556L227 9Q222 0 211 0H94Q83 0 88 11L395 561Z"  />
<glyph unicode="8" horiz-adv-x="536" d="M46 155Q46 214 74 268T156 355L157 357Q140 371 128 398T115 460Q115 503 131 544T178 618T254 671T356 691Q399 691 432 679T488 645T522 594T534 531Q534 479 510 434T442 357L441 355Q464 337 480 307T497 234Q497 184 478 140T425 62T343 9T238 -11Q195 -11 160 0T99 33T60 86T46 155ZM308 411Q327 411 344 419T374 441T394 473T402 513Q402 541 386 559T339 578Q319 578 302 570T273 548T253 516T245 476Q245 448 261 430T308 411ZM179 179Q179 144 199 123T255 102Q278 102 298 111T332 137T355 175T364 222Q364 257 344 278T289 299Q266 299 246 290T211 264T188 226T179 179Z"  />
<glyph unicode="9" horiz-adv-x="536" d="M291 276L290 277Q278 270 248 270Q213 270 185 282T136 316T105 368T93 435Q93 487 111 533T163 615T245 670T353 691Q395 691 429 680T488 646T526 593T540 522Q540 470 520 419T459 310L248 7Q244 0 235 0H114Q109 0 108 3T109 10L291 276ZM300 380Q324 380 344 390T378 416T400 454T408 500Q408 535 389 556T335 578Q311 578 291 568T257 542T235 503T227 457Q227 422 246 401T300 380Z"  />
<glyph unicode=":" horiz-adv-x="244" d="M91 348Q80 348 82 358L102 474Q104 484 113 484H227Q238 484 236 474L216 358Q214 348 205 348H91ZM41 126Q43 136 52 136H165Q176 136 174 126L154 10Q152 0 143 0H30Q19 0 21 10L41 126Z"  />
<glyph unicode=";" horiz-adv-x="244" d="M91 348Q80 348 82 358L102 474Q104 484 113 484H227Q238 484 236 474L216 358Q214 348 205 348H91ZM44 126Q46 136 55 136H162Q173 136 171 126L151 9Q148 -4 139 -12L31 -100Q22 -108 15 -108Q3 -108 6 -95L44 126Z"  />
<glyph unicode="&lt;" horiz-adv-x="536" d="M67 222Q57 227 57 236V316Q57 325 67 330L492 498Q502 501 502 492V389Q502 380 492 376L228 277V275L492 176Q502 172 502 163V60Q502 51 492 54L67 222Z"  />
<glyph unicode="=" horiz-adv-x="536" d="M74 323Q64 323 64 333V427Q64 437 74 437H499Q509 437 509 427V333Q509 323 499 323H74ZM74 115Q64 115 64 125V219Q64 229 74 229H499Q509 229 509 219V125Q509 115 499 115H74Z"  />
<glyph unicode="&gt;" horiz-adv-x="536" d="M70 163Q70 172 80 176L343 275V277L80 376Q70 380 70 389V492Q70 501 80 498L505 330Q515 325 515 316V236Q515 227 505 222L80 54Q70 51 70 60V163Z"  />
<glyph unicode="?" horiz-adv-x="462" d="M169 197Q159 197 161 207L169 249Q174 278 184 297T212 335L293 424Q323 456 335 477T348 523Q348 547 335 562T295 577Q265 577 243 557T207 504Q203 494 194 495L93 510Q84 512 87 522Q111 599 171 645T316 691Q355 691 386 680T438 650T471 603T483 544Q483 499 463 461T401 380L325 295Q311 279 305 267T294 232L289 207Q287 197 278 197H169ZM144 120Q146 130 155 130H268Q279 130 277 120L258 10Q256 0 247 0H133Q123 0 125 10L144 120Z"  />
<glyph unicode="@" horiz-adv-x="879" d="M43 195Q43 300 76 387T171 536T319 634T511 669Q588 669 651 646T758 579T827 477T851 346Q851 277 835 223T791 132T722 74T632 54Q586 54 558 71T519 120H518Q498 89 467 72T384 54Q330 54 293 88T256 186Q256 207 259 233T267 286T280 337T297 379Q343 475 443 475Q481 475 506 460T539 424H541L546 455Q548 465 555 465H647Q655 465 653 455L611 213Q605 178 617 163T651 148Q690 148 717 197T744 335Q744 450 677 512T494 575Q416 575 353 547T244 468T175 349T151 202Q151 146 168 101T217 25T295 -24T399 -41Q463 -41 508 -29T600 6Q609 11 612 2L642 -66Q647 -74 636 -79Q580 -111 519 -125T383 -139Q306 -139 244 -115T137 -46T68 59T43 195ZM365 209Q365 181 379 165T422 148Q470 148 494 197Q499 208 503 224T511 257T517 291T519 320Q519 348 505 364T462 381Q414 381 391 332Q386 321 381 305T373 271T367 237T365 209Z"  />
<glyph unicode="A" horiz-adv-x="624" d="M-16 0Q-26 0 -21 10L322 670Q327 680 337 680H458Q467 680 469 670L574 10Q576 0 567 0H445Q434 0 433 10L417 132H188L129 10Q125 0 116 0H-16ZM402 252L371 500H368L247 252H402Z"  />
<glyph unicode="B" horiz-adv-x="585" d="M145 670Q147 680 156 680H410Q504 680 547 641T591 534Q591 409 483 354V352Q509 341 529 311T549 233Q549 179 531 136T480 63T397 17T286 0H37Q26 0 28 10L145 670ZM342 400Q387 400 417 428T447 503Q447 567 372 567H272Q266 567 265 561L238 406Q236 400 243 400H342ZM188 119Q186 113 192 113H300Q348 113 378 143T408 224Q408 256 389 274T331 292H224Q218 292 217 286L188 119Z"  />
<glyph unicode="C" horiz-adv-x="555" d="M51 197Q51 220 56 265T71 360T93 458T119 534Q160 615 223 653T377 691Q458 691 509 651T577 540Q578 531 570 527L464 483Q455 478 451 489Q443 522 423 544T361 566Q320 566 292 545T247 486Q238 468 229 430T211 348T198 267T193 209Q193 165 216 140T283 114Q321 114 349 136T398 192Q404 201 413 197L508 146Q516 143 511 133Q464 57 404 23T262 -11Q215 -11 176 2T110 42T67 107T51 197Z"  />
<glyph unicode="D" horiz-adv-x="605" d="M145 670Q147 680 156 680H399Q499 680 547 631T595 487Q595 456 590 409T576 312T555 216T527 139Q488 60 427 30T280 0H37Q26 0 28 10L145 670ZM190 131Q188 125 195 125H271Q321 125 353 142T405 202Q414 219 422 253T438 326T450 400T455 456Q455 510 428 532T345 555H270Q265 555 264 549L190 131Z"  />
<glyph unicode="E" horiz-adv-x="542" d="M145 670Q147 680 156 680H574Q584 680 582 670L564 568Q562 558 553 558H271Q265 558 264 552L239 409Q237 403 244 403H478Q488 403 486 393L468 293Q466 283 456 283H222Q216 283 215 277L189 128Q187 122 194 122H476Q486 122 484 112L465 10Q463 0 454 0H37Q26 0 28 10L145 670Z"  />
<glyph unicode="F" horiz-adv-x="536" d="M145 670Q147 680 156 680H574Q584 680 582 670L564 568Q562 558 553 558H270Q265 558 264 552L237 401Q237 395 242 395H476Q487 395 485 385L467 285Q465 275 455 275H220Q215 275 214 269L168 10Q166 0 157 0H37Q26 0 28 10L145 670Z"  />
<glyph unicode="G" horiz-adv-x="601" d="M51 197Q51 220 56 265T71 362T93 460T119 535Q160 617 226 654T386 691Q428 691 462 680T523 650T567 604T591 547Q594 539 585 533L479 490Q470 486 466 495Q453 530 431 548T366 566Q324 566 294 545T247 486Q241 474 235 453T223 405T212 349T202 293T196 244T193 210Q193 165 218 140T288 114Q331 114 360 133T406 187Q412 201 417 217T426 258Q426 264 421 264H333Q324 264 326 274L342 366Q344 376 353 376H579Q588 376 586 366L576 311Q568 260 557 216T531 144Q489 62 425 26T268 -11Q220 -11 180 2T112 41T67 107T51 197Z"  />
<glyph unicode="H" horiz-adv-x="634" d="M145 670Q147 680 156 680H277Q287 680 285 670L240 412Q238 406 245 406H459Q464 406 466 412L512 670Q514 680 523 680H644Q655 680 653 670L536 10Q534 0 525 0H404Q393 0 395 10L442 275Q443 281 437 281H222Q216 281 215 275L168 10Q166 0 158 0H37Q26 0 28 10L145 670Z"  />
<glyph unicode="I" horiz-adv-x="266" d="M145 670Q147 680 156 680H277Q287 680 285 670L168 10Q166 0 158 0H37Q26 0 28 10L145 670Z"  />
<glyph unicode="J" horiz-adv-x="497" d="M-2 79Q-5 87 3 93L98 157Q106 162 111 155Q124 138 143 127T187 115Q235 115 262 143T301 234L378 670Q380 680 389 680H511Q521 680 519 670L443 241Q431 172 408 124T352 46T274 3T173 -11Q143 -11 116 -4T65 16T24 44T-2 79Z"  />
<glyph unicode="K" horiz-adv-x="619" d="M145 670Q147 680 156 680H277Q287 680 285 670L234 385L497 671Q505 680 515 680H659Q664 680 666 676T663 667L412 405L553 12Q556 0 544 0H421Q410 0 407 9L308 302L199 184L168 10Q166 0 158 0H37Q26 0 28 10L145 670Z"  />
<glyph unicode="L" horiz-adv-x="519" d="M145 670Q147 680 156 680H277Q287 680 285 670L190 131Q188 125 195 125H472Q482 125 480 115L461 10Q459 0 451 0H37Q26 0 28 10L145 670Z"  />
<glyph unicode="M" horiz-adv-x="737" d="M145 670Q147 680 156 680H263Q275 680 278 670L375 274H378L612 670Q618 680 628 680H747Q758 680 756 670L639 10Q637 0 628 0H520Q509 0 511 10L581 405H577L400 107Q393 94 380 94H316Q304 94 300 107L229 405H225L155 10Q153 0 145 0H37Q26 0 28 10L145 670Z"  />
<glyph unicode="N" horiz-adv-x="631" d="M145 670Q147 680 156 680H270Q282 680 285 670L440 233H444L522 670Q524 680 533 680H641Q652 680 650 670L533 10Q531 0 522 0H407Q397 0 393 10L237 447H232L155 10Q153 0 145 0H37Q26 0 28 10L145 670Z"  />
<glyph unicode="O" horiz-adv-x="602" d="M266 -11Q218 -11 179 2T111 41T67 107T51 197Q51 220 56 265T71 362T93 460T119 535Q160 617 226 654T383 691Q431 691 470 678T538 639T582 573T598 483Q598 460 593 415T578 318T556 220T530 145Q489 63 423 26T266 -11ZM285 114Q327 114 356 135T403 194Q412 212 421 250T438 331T451 413T456 470Q456 515 433 540T364 566Q322 566 293 545T247 486Q241 474 235 453T222 405T211 349T202 293T196 244T193 210Q193 165 217 140T285 114Z"  />
<glyph unicode="P" horiz-adv-x="582" d="M37 0Q27 0 29 10L146 670Q148 680 156 680H409Q505 680 554 634T604 508Q604 444 584 395T527 313T442 263T334 246H217Q210 246 210 240L169 10Q167 0 158 0H37ZM346 368Q397 368 429 399T462 485Q462 519 441 538T380 558H272Q266 558 265 552L233 374Q233 368 238 368H346Z"  />
<glyph unicode="Q" horiz-adv-x="605" d="M442 -51Q438 -54 434 -54T427 -50L388 9Q333 -11 266 -11Q218 -11 179 2T111 41T67 107T51 197Q51 220 56 265T71 362T93 460T119 535Q160 617 226 654T383 691Q431 691 470 678T538 639T582 573T598 483Q598 460 593 415T578 318T556 220T530 145Q521 128 512 113T491 84L530 24Q535 15 526 9L442 -51ZM285 114Q304 114 319 118L281 177Q276 185 286 191L370 251Q379 257 385 249L409 211Q418 235 426 272T441 348T452 419T456 470Q456 515 433 540T365 566Q323 566 294 545T247 486Q241 474 235 453T223 405T212 349T202 293T196 244T193 210Q193 165 216 140T285 114Z"  />
<glyph unicode="R" horiz-adv-x="600" d="M399 0Q389 0 386 10L317 262H219Q212 262 212 256L168 10Q166 0 158 0H37Q26 0 28 10L145 670Q147 680 156 680H414Q505 680 555 634T605 512Q605 428 562 368T448 281L526 12Q528 7 526 4T518 0H399ZM355 382Q400 383 431 411T463 491Q463 523 442 540T386 558H271Q265 558 264 552L235 388Q233 382 240 382H355Z"  />
<glyph unicode="S" horiz-adv-x="574" d="M250 -11Q212 -11 176 -4T107 16T50 45T8 81Q2 90 9 97L95 179Q103 187 109 180Q135 154 176 134T269 113Q297 113 320 121T359 143T385 175T394 215Q394 240 376 255T307 279L274 284Q188 297 143 339T97 454Q97 508 117 552T172 626T257 674T364 691Q429 691 485 671T576 619Q583 614 576 604L505 522Q497 514 491 519Q459 543 426 555T353 568Q305 568 275 541T244 475Q244 450 262 434T331 410L364 405Q450 392 496 352T542 242Q542 182 521 135T460 56T368 6T250 -11Z"  />
<glyph unicode="T" horiz-adv-x="538" d="M172 0Q162 0 164 10L259 549Q260 555 254 555H88Q77 555 79 565L98 670Q100 680 109 680H594Q605 680 603 670L584 565Q582 555 573 555H406Q400 555 399 549L304 10Q302 0 293 0H172Z"  />
<glyph unicode="U" horiz-adv-x="619" d="M286 -11Q227 -11 182 6T107 57T68 140T68 253L142 670Q144 680 152 680H273Q284 680 282 670L207 245Q196 181 221 148T298 114Q348 114 380 142T426 245L502 670Q504 680 513 680H633Q644 680 642 670L566 243Q554 172 530 124T470 45T389 2T286 -11Z"  />
<glyph unicode="V" horiz-adv-x="572" d="M194 0Q185 0 183 10L90 669Q88 680 100 680H219Q231 680 232 670L284 213H287L495 670Q498 675 501 677T510 680H638Q643 680 645 677T645 669L319 10Q314 0 306 0H194Z"  />
<glyph unicode="W" horiz-adv-x="833" d="M508 0Q499 0 497 10L459 444H457L265 10Q260 0 251 0H154Q146 0 144 10L91 670Q91 680 99 680H219Q230 680 230 670L247 231H249L439 670Q444 680 453 680H536Q545 680 547 670L585 231H587L757 670Q760 680 769 680H898Q908 680 905 670L617 10Q614 0 605 0H508Z"  />
<glyph unicode="X" horiz-adv-x="576" d="M396 0Q385 0 381 10L299 224H297L139 10Q135 5 132 3T123 0H-18Q-23 0 -24 3T-21 12L239 355L111 668Q109 673 111 676T119 680H247Q258 680 262 670L334 483H336L473 670Q480 680 491 680H625Q630 680 631 677T629 668L392 353L529 12Q531 7 529 4T522 0H396Z"  />
<glyph unicode="Y" horiz-adv-x="547" d="M177 0Q166 0 168 10L215 271L90 670Q86 680 99 680H216Q227 680 230 670L305 415H308L473 670Q479 680 488 680H613Q619 680 620 677T620 670L355 271L308 10Q306 0 297 0H177Z"  />
<glyph unicode="Z" horiz-adv-x="533" d="M15 0Q4 0 6 10L23 110Q25 118 31 126L386 553V555H122Q112 555 114 565L133 670Q135 680 143 680H565Q576 680 574 670L556 570Q555 562 550 556L191 127V125H468Q478 125 476 115L457 10Q455 0 446 0H15Z"  />
<glyph unicode="[" horiz-adv-x="287" d="M16 -84Q5 -84 7 -74L149 730Q151 740 161 740H343Q353 740 351 730L336 650Q334 640 326 640H257Q251 640 250 634L142 22Q142 16 147 16H215Q225 16 223 6L209 -74Q207 -84 199 -84H16Z"  />
<glyph unicode="\" horiz-adv-x="408" d="M220 -11Q209 -11 208 -1L114 681Q114 691 123 691H225Q235 691 236 681L330 -1Q332 -11 322 -11H220Z"  />
<glyph unicode="]" horiz-adv-x="287" d="M-14 -84Q-25 -84 -23 -74L-8 6Q-6 16 4 16H72Q76 16 78 22L186 634Q187 640 182 640H114Q103 640 105 650L119 730Q121 740 131 740H313Q324 740 322 730L180 -74Q178 -84 168 -84H-14Z"  />
<glyph unicode="^" horiz-adv-x="536" d="M384 255Q374 255 370 265L272 519H270L170 265Q167 255 157 255H53Q42 255 47 265L216 670Q221 680 230 680H312Q321 680 326 670L494 265Q499 255 488 255H384Z"  />
<glyph unicode="_" horiz-adv-x="505" d="M-60 -150L-45 -65H456L441 -150H-60Z"  />
<glyph unicode="`" horiz-adv-x="443" d="M303 551Q293 551 286 561L214 691Q212 695 214 698T221 701H325Q337 701 340 691L392 561Q395 551 384 551H303Z"  />
<glyph unicode="a" horiz-adv-x="509" d="M298 0Q288 0 290 10L295 43H294Q273 19 239 4T156 -11Q129 -11 105 -3T63 21T35 60T25 112Q25 200 83 245T248 291H332Q338 291 340 297L344 319Q350 354 334 370T259 387Q223 387 196 378T149 355Q140 349 137 358L107 433Q104 442 112 447Q145 469 193 482T294 495Q401 495 444 456T471 321L415 10Q413 0 404 0H298ZM215 89Q258 89 284 106T316 159L322 196Q323 202 317 202H249Q199 202 177 185T155 134Q155 114 170 102T215 89Z"  />
<glyph unicode="b" horiz-adv-x="530" d="M282 -11Q234 -11 207 6T168 48H167L160 10Q158 0 150 0H35Q24 0 26 10L143 670Q145 680 154 680H269Q279 680 277 670L236 437H237Q257 463 290 479T369 495Q438 495 473 453T508 336Q508 312 505 281T495 216T479 152T458 98Q429 39 386 14T282 -11ZM258 102Q313 102 340 157Q346 169 351 189T361 230T368 273T371 308Q371 343 357 362T307 382Q252 382 225 327Q219 315 214 296T204 254T197 211T194 176Q194 141 208 122T258 102Z"  />
<glyph unicode="c" horiz-adv-x="460" d="M214 -11Q132 -11 84 34T35 161Q35 179 37 204T45 256T58 312T78 365Q110 431 166 463T299 495Q360 495 400 469T457 398Q460 389 453 385L366 336Q361 333 357 334T350 339Q339 360 324 371T286 382Q260 382 239 369T203 327Q196 312 190 292T180 249T174 208T171 177Q171 102 235 102Q258 102 278 113T319 147Q326 155 332 150L408 95Q416 90 409 81Q343 -11 214 -11Z"  />
<glyph unicode="d" horiz-adv-x="531" d="M308 0Q298 0 300 10L306 47H305Q285 21 252 5T173 -11Q104 -11 69 31T34 148Q34 172 37 203T47 268T63 332T84 386Q113 445 156 470T260 495Q308 495 335 478T374 436H375L416 670Q418 680 427 680H542Q552 680 550 670L434 10Q432 0 423 0H308ZM235 102Q290 102 317 157Q323 169 328 188T338 230T345 273T348 308Q348 343 334 362T284 382Q229 382 202 327Q196 315 191 295T181 254T174 211T171 176Q171 141 185 122T235 102Z"  />
<glyph unicode="e" horiz-adv-x="503" d="M222 -11Q133 -11 84 34T35 166Q35 188 37 214T45 266T57 317T75 362Q107 427 161 461T300 495Q338 495 371 484T428 452T465 399T479 325Q479 305 477 280T466 212Q464 202 454 202H171Q165 202 164 196Q163 191 163 181Q163 135 185 116T250 97Q282 97 312 110T366 144Q374 151 381 144L430 85Q437 77 429 69Q391 34 340 12T222 -11ZM343 291Q348 291 350 297Q353 312 353 324Q353 392 283 392Q254 392 231 378T195 338Q190 329 188 320T183 298Q182 291 187 291H343Z"  />
<glyph unicode="f" horiz-adv-x="327" d="M52 0Q41 0 43 10L108 380Q109 386 104 386H74Q65 386 67 396L81 474Q83 484 91 484H121Q126 484 128 490L132 515Q148 604 194 642T324 680H377Q387 680 385 670L369 581Q367 571 358 571H330Q297 571 284 560T265 517L260 491Q259 484 265 484H341Q352 484 350 474L336 396Q334 386 324 386H248Q242 386 241 380L177 10Q175 0 167 0H52Z"  />
<glyph unicode="g" horiz-adv-x="521" d="M173 -191Q114 -191 70 -169T3 -112Q-4 -103 5 -96L79 -34Q88 -27 95 -34Q115 -54 135 -66T184 -78Q279 -78 298 32L306 76H305Q285 49 254 34T177 18Q106 18 73 60T39 173Q39 193 42 220T50 275T64 331T82 380Q136 495 257 495Q302 495 329 479T368 436H369L376 474Q378 484 387 484H499Q509 484 507 474L433 47Q422 -18 401 -63T348 -136T273 -178T173 -191ZM238 130Q289 130 315 184Q321 196 326 211T334 244T340 278T342 309Q342 344 328 363T279 382Q228 382 202 328Q196 316 191 301T183 268T177 233T175 203Q175 168 189 149T238 130Z"  />
<glyph unicode="h" horiz-adv-x="533" d="M315 0Q305 0 307 10L356 288Q363 331 350 356T300 381Q265 381 241 357T209 290L160 10Q158 0 150 0H35Q24 0 26 10L143 670Q145 680 154 680H269Q279 680 277 670L235 438H236Q257 462 290 478T368 495Q407 495 434 482T477 444T497 386T495 314L440 10Q438 0 429 0H315Z"  />
<glyph unicode="i" horiz-adv-x="255" d="M133 565Q123 565 125 575L143 670Q145 680 154 680H269Q279 680 277 670L260 575Q258 565 249 565H133ZM35 0Q24 0 26 10L108 474Q110 484 119 484H234Q244 484 242 474L160 10Q158 0 150 0H35Z"  />
<glyph unicode="j" horiz-adv-x="255" d="M133 565Q123 565 125 575L143 670Q145 680 154 680H269Q279 680 277 670L260 575Q258 565 249 565H133ZM-77 -180Q-87 -180 -84 -170L-67 -76Q-65 -66 -56 -66H-40Q-11 -66 3 -55T23 -9L108 474Q110 484 119 484H234Q244 484 242 474L157 -8Q148 -59 133 -92T94 -145T36 -172T-45 -180H-77Z"  />
<glyph unicode="k" horiz-adv-x="514" d="M333 0Q323 0 320 10L247 217L184 146L160 10Q158 0 149 0H34Q24 0 26 10L142 670Q144 680 153 680H267Q278 680 276 670L213 310L370 475Q378 484 390 484H516Q521 484 522 481T521 474L347 298L459 10Q463 0 452 0H333Z"  />
<glyph unicode="l" horiz-adv-x="292" d="M165 -6Q125 -6 100 3T61 31T45 78T49 145L143 670Q145 680 153 680H268Q279 680 277 670L183 153Q179 130 186 120T216 109H235Q245 109 243 99L227 4Q225 -6 215 -6H165Z"  />
<glyph unicode="m" horiz-adv-x="812" d="M595 0Q584 0 586 10L635 288Q643 331 630 356T579 381Q544 381 520 357T489 290L440 10Q438 0 429 0H315Q304 0 306 10L355 288Q363 331 350 356T299 381Q264 381 240 357T209 290L159 10Q157 0 149 0H34Q24 0 26 10L108 474Q110 484 119 484H233Q243 484 241 474L235 438H236Q256 462 289 478T367 495Q411 495 439 479T482 431H483Q513 460 552 477T642 495Q724 495 756 445T774 314L720 10Q718 0 709 0H595Z"  />
<glyph unicode="n" horiz-adv-x="533" d="M315 0Q305 0 307 10L356 288Q363 331 350 356T300 381Q265 381 241 357T209 290L160 10Q158 0 150 0H35Q24 0 26 10L108 474Q110 484 119 484H234Q244 484 242 474L235 438H236Q257 462 290 478T368 495Q407 495 434 482T477 444T497 387T495 315L440 10Q438 0 429 0H315Z"  />
<glyph unicode="o" horiz-adv-x="508" d="M217 -11Q133 -11 84 34T35 163Q35 184 38 211T46 265T60 319T78 366Q112 435 169 465T302 495Q386 495 435 450T484 321Q484 300 481 273T473 219T459 165T441 118Q407 49 350 19T217 -11ZM235 102Q290 102 317 157Q323 170 329 190T339 233T346 275T349 308Q349 343 334 362T284 382Q229 382 202 327Q196 314 190 294T180 251T173 209T170 176Q170 141 185 122T235 102Z"  />
<glyph unicode="p" horiz-adv-x="530" d="M3 -180Q-7 -180 -5 -170L108 474Q110 484 119 484H234Q244 484 242 474L236 437H237Q257 463 290 479T369 495Q438 495 473 453T508 336Q508 312 505 281T495 216T479 152T458 98Q429 39 386 14T282 -11Q234 -11 207 6T168 48H167L129 -170Q127 -180 118 -180H3ZM258 102Q313 102 340 157Q346 169 351 189T361 230T368 273T371 308Q371 343 357 362T307 382Q252 382 225 327Q219 315 214 296T204 254T197 211T194 176Q194 141 208 122T258 102Z"  />
<glyph unicode="q" horiz-adv-x="531" d="M277 -180Q267 -180 269 -170L307 47H306Q286 21 253 5T174 -11Q105 -11 70 31T35 148Q35 172 38 203T48 268T64 332T85 386Q114 445 157 470T261 495Q309 495 336 478T375 436H376L383 474Q385 484 394 484H509Q519 484 517 474L403 -170Q401 -180 392 -180H277ZM236 102Q291 102 318 157Q324 169 329 188T339 230T346 273T349 308Q349 343 335 362T285 382Q230 382 203 327Q197 315 192 295T182 254T175 211T172 176Q172 141 186 122T236 102Z"  />
<glyph unicode="r" horiz-adv-x="412" d="M35 0Q24 0 26 10L108 474Q110 484 119 484H234Q244 484 242 474L234 431H235Q257 461 290 478T365 495Q390 495 410 488T442 466Q448 458 443 452L375 355Q368 348 361 353Q347 363 332 369T299 375Q260 375 237 347T205 266L160 10Q158 0 150 0H35Z"  />
<glyph unicode="s" horiz-adv-x="487" d="M213 -11Q140 -11 89 12T9 65Q7 67 7 71T11 79L83 146Q91 152 97 146Q125 122 159 109T231 95Q271 95 293 113T316 153Q316 170 304 178T259 190L208 195Q144 202 110 233T76 316Q76 359 92 392T138 448T207 483T294 495Q351 495 398 477T473 434Q479 427 472 420L408 355Q401 348 394 353Q372 369 343 380T277 391Q243 391 225 376T206 341Q206 326 216 318T261 305L311 300Q383 292 415 261T447 180Q447 137 431 102T385 41T312 3T213 -11Z"  />
<glyph unicode="t" horiz-adv-x="319" d="M182 -6Q99 -6 73 33T61 154L103 380Q104 386 98 386H68Q59 386 61 396L75 474Q77 484 86 484H116Q121 484 123 490L146 620Q148 630 158 630H271Q281 630 279 620L256 490Q254 484 260 484H321Q331 484 329 474L316 396Q314 386 304 386H242Q237 386 236 380L195 159Q190 130 197 120T230 109H252Q262 109 260 99L243 4Q241 -6 232 -6H182Z"  />
<glyph unicode="u" horiz-adv-x="529" d="M228 484Q239 484 237 474L188 195Q180 153 194 128T243 103Q278 103 301 127T333 194L382 474Q384 484 392 484H507Q518 484 516 474L433 10Q431 0 422 0H308Q298 0 300 10L306 46H305Q282 21 251 5T175 -11Q136 -11 109 2T67 39T47 96T50 169L104 474Q106 484 114 484H228Z"  />
<glyph unicode="v" horiz-adv-x="492" d="M157 0Q148 0 146 10L61 474Q61 484 70 484H187Q197 484 198 474L237 180H239L381 474Q385 484 395 484H517Q528 484 523 474L275 10Q270 0 262 0H157Z"  />
<glyph unicode="w" horiz-adv-x="735" d="M426 0Q416 0 416 10L386 300H384L249 10Q244 0 236 0H142Q132 0 132 10L64 474Q64 484 74 484H184Q195 484 196 474L221 177H223L357 474Q361 484 370 484H453Q464 484 465 474L495 177H496L623 474Q627 484 637 484H758Q769 484 764 474L533 10Q528 0 520 0H426Z"  />
<glyph unicode="x" horiz-adv-x="497" d="M315 0Q305 0 301 9L240 144H239L131 9Q122 0 114 0H-13Q-18 0 -19 3T-19 10L184 253L78 474Q74 484 86 484H205Q210 484 213 483T219 476L271 358H272L366 476Q374 484 382 484H507Q512 484 513 481T512 474L327 251L441 10Q445 0 433 0H315Z"  />
<glyph unicode="y" horiz-adv-x="492" d="M21 -180Q10 -180 13 -170L29 -76Q31 -66 41 -66H62Q88 -66 104 -55T136 -14L154 23L60 474Q58 484 68 484H187Q196 484 197 474L241 187H243L383 474Q387 484 397 484H517Q529 484 524 474L241 -42Q220 -82 200 -108T157 -151T110 -173T54 -180H21Z"  />
<glyph unicode="z" horiz-adv-x="471" d="M18 0Q8 0 10 10L25 97Q26 102 31 107L296 373V375H95Q86 375 88 385L104 474Q106 484 115 484H468Q477 484 475 474L460 385Q459 380 454 373L192 113V110H402Q412 110 410 100L394 10Q392 0 382 0H18Z"  />
<glyph unicode="{" horiz-adv-x="342" d="M187 -84Q67 -84 88 37L115 194Q122 236 110 255T64 276Q54 276 56 286L71 374Q73 384 83 384Q148 384 163 466L190 619Q211 740 332 740H394Q404 740 402 730L388 650Q387 640 377 640H351Q310 640 302 596L277 455Q267 399 247 372T187 331V329Q222 315 232 288T233 204L208 60Q200 16 240 16H266Q277 16 275 6L260 -74Q258 -84 249 -84H187Z"  />
<glyph unicode="|" horiz-adv-x="328" d="M138 -84Q128 -84 128 -74V730Q128 740 138 740H232Q242 740 242 730V-74Q242 -84 232 -84H138Z"  />
<glyph unicode="}" horiz-adv-x="342" d="M-9 -84Q-19 -84 -17 -74L-3 6Q-2 16 8 16H34Q75 16 83 60L108 205Q113 233 120 253T138 288T163 312T198 329V331Q163 345 153 372T153 456L177 596Q185 640 145 640H119Q108 640 110 650L125 730Q127 740 136 740H198Q318 740 297 619L271 466Q263 424 275 405T322 384Q332 384 330 374L314 286Q312 276 303 276Q238 276 223 194L195 37Q174 -84 53 -84H-9Z"  />
<glyph unicode="~" horiz-adv-x="536" d="M363 194Q331 194 306 204T260 228Q243 239 228 246T195 253Q171 253 156 240T127 204Q122 196 113 202L49 241Q42 246 46 255Q67 301 105 329T190 357Q222 357 246 347T292 323Q309 312 325 305T358 298Q381 298 396 311T425 347Q430 356 440 349L503 310Q512 306 506 296Q486 250 448 222T363 194Z"  />
<glyph unicode="&#xA0;" horiz-adv-x="229" />
<glyph unicode="&#xA1;" horiz-adv-x="299" d="M206 286Q216 286 214 276L155 -186Q154 -196 144 -196H21Q11 -196 13 -186L116 276Q118 286 127 286H206ZM245 364Q243 354 234 354H121Q110 354 112 364L131 474Q133 484 142 484H256Q266 484 264 474L245 364Z"  />
<glyph unicode="&#xA2;" horiz-adv-x="536" d="M212 -98Q202 -98 204 -88L218 -9Q148 -1 108 41T67 158Q67 179 69 204T76 256T89 310T109 363Q138 423 188 455T306 494L320 572Q322 582 332 582H369Q379 582 377 572L363 493Q414 488 447 462T497 398Q498 395 498 391T492 385L405 336Q400 333 396 334T389 339Q380 356 370 366T343 380L294 104Q330 113 358 147Q361 152 365 152T372 149L448 93Q456 88 448 80Q419 40 377 18T274 -10L261 -88Q259 -98 249 -98H212ZM203 172Q203 123 238 108L285 376Q253 364 235 327Q227 311 222 290T212 248T205 206T203 172Z"  />
<glyph unicode="&#xA3;" horiz-adv-x="536" d="M56 0Q45 0 47 10L64 102Q65 109 71 115Q81 123 88 130T102 147T112 170T120 201L131 265Q132 271 126 271H87Q78 271 80 281L93 356Q95 366 104 366H142Q148 366 150 372L172 498Q189 595 246 643T389 691Q462 691 498 653T533 555Q533 546 524 543L420 521Q411 521 411 530Q411 551 401 564T371 578Q345 578 329 561T308 513L285 372Q283 366 289 366H406Q417 366 415 356L402 281Q400 271 390 271H272Q266 271 265 265L257 216Q251 181 240 157T213 116L212 114H451Q462 114 460 104L443 10Q441 0 432 0H56Z"  />
<glyph unicode="&#xA4;" horiz-adv-x="536" d="M432 70Q423 63 418 70L373 125Q350 114 324 108T270 101Q218 101 177 126L111 68Q102 61 97 68L42 134Q35 141 45 148L113 208Q104 235 104 266Q104 305 115 341T149 408L103 466Q97 472 105 480L178 541Q185 548 192 541L236 485Q283 510 339 510Q391 510 430 485L498 544Q507 551 512 544L568 478Q573 471 565 464L495 403Q500 389 502 375T505 344Q505 305 494 269T461 202L507 145Q513 137 505 131L432 70ZM285 199Q310 199 331 210T368 239T393 281T402 329Q402 365 381 388T325 412Q299 412 278 401T241 372T216 330T207 281Q207 246 228 223T285 199Z"  />
<glyph unicode="&#xA5;" horiz-adv-x="536" d="M175 0Q165 0 167 10L188 128Q189 134 183 134H70Q60 134 62 144L73 202Q75 212 84 212H197Q202 212 204 218L210 254Q211 260 205 260H92Q83 260 85 270L95 328Q97 338 106 338H197V340L112 670Q110 680 120 680H238Q249 680 251 670L301 406H304L446 670Q453 680 462 680H583Q593 680 589 670L388 340V338H478Q488 338 486 328L475 270Q473 260 464 260H351Q345 260 344 254L338 218Q336 212 343 212H456Q465 212 463 202L453 144Q451 134 442 134H328Q322 134 321 128L301 10Q299 0 290 0H175Z"  />
<glyph unicode="&#xA6;" horiz-adv-x="328" d="M138 388Q128 388 128 398V730Q128 740 138 740H232Q242 740 242 730V398Q242 388 232 388H138ZM138 -84Q128 -84 128 -74V262Q128 272 138 272H232Q242 272 242 262V-74Q242 -84 232 -84H138Z"  />
<glyph unicode="&#xA7;" horiz-adv-x="531" d="M192 -192Q150 -192 120 -181T71 -151T44 -106T37 -50Q37 -40 45 -38L146 -21Q154 -19 154 -29Q154 -58 165 -74T208 -90Q239 -90 260 -70T282 -14Q282 12 262 29T192 61Q72 95 72 206Q72 270 102 322T188 405V406Q165 423 155 447T144 497Q144 539 160 575T205 637T272 677T354 692Q397 692 427 680T476 648T502 602T506 549Q505 539 496 538L398 521Q390 519 390 529Q391 556 379 573T338 590Q306 590 287 569T267 515Q267 489 287 473T355 443Q475 408 475 297Q475 267 468 238T445 183T408 136T358 99V98Q383 83 394 58T405 5Q405 -39 389 -75T344 -137T276 -177T192 -192ZM258 165Q279 165 296 174T325 198T345 232T352 274Q352 305 336 322T289 339Q268 339 251 330T221 306T201 272T194 230Q194 199 211 182T258 165Z"  />
<glyph unicode="&#xA8;" horiz-adv-x="441" d="M336 566Q326 566 328 576L346 671Q348 681 357 681H446Q456 681 454 671L436 576Q434 566 425 566H336ZM143 566Q133 566 135 576L153 671Q155 681 164 681H252Q262 681 260 671L243 576Q241 566 232 566H143Z"  />
<glyph unicode="&#xA9;" horiz-adv-x="811" d="M424 -12Q349 -12 285 15T173 89T99 200T72 340Q72 415 99 479T173 590T284 664T424 691Q499 691 563 664T674 590T748 479T775 340Q775 265 748 201T674 89T563 15T424 -12ZM424 65Q482 65 532 85T618 143T674 230T695 340Q695 399 675 449T618 536T532 593T424 614Q365 614 316 594T230 537T174 450T153 340Q153 281 173 231T230 143T315 86T424 65ZM433 144Q373 144 329 171T267 253Q262 268 260 287T257 340Q257 373 259 392T267 428Q284 482 328 509T433 537Q482 537 519 518T576 467Q578 463 578 459T573 453L511 413Q504 407 498 415Q484 432 470 440T435 449Q383 449 368 403Q365 394 364 382T363 340Q363 311 364 299T368 278Q384 231 435 231Q456 231 470 239T498 265Q500 268 504 269T511 267L573 228Q582 222 576 214Q556 183 519 164T433 144Z"  />
<glyph unicode="&#xAA;" horiz-adv-x="344" d="M255 392Q244 392 246 402L249 416H248Q234 402 214 395T164 387Q128 387 104 404T79 460Q79 513 118 541T221 570H269Q274 570 276 576L278 583Q281 598 270 605T227 613Q207 613 190 608T158 597Q150 591 146 600L127 648Q123 657 133 662Q180 688 251 688Q327 688 354 663T371 584L338 402Q336 392 327 392H255ZM204 456Q229 456 243 464T261 492L263 503Q264 509 259 509H217Q196 509 184 500T172 477Q172 456 204 456Z"  />
<glyph unicode="&#xAB;" horiz-adv-x="544" d="M272 257Q266 265 274 271L524 487Q527 490 530 489T533 483L513 366Q511 355 499 345L405 262Q400 258 403 254L468 170Q477 161 474 149L456 45Q455 40 452 39T445 41L272 257ZM37 257Q31 265 39 271L289 487Q292 490 295 489T298 483L277 366Q275 359 273 355T264 345L170 262Q165 258 168 254L233 170Q242 161 239 149L221 45Q220 40 217 39T210 41L37 257Z"  />
<glyph unicode="&#xAC;" horiz-adv-x="536" d="M394 86Q384 86 384 96V213Q384 219 378 219H67Q57 219 57 229V323Q57 333 67 333H492Q502 333 502 323V96Q502 86 492 86H394Z"  />
<glyph unicode="&#xAD;" horiz-adv-x="378" d="M50 206Q40 206 42 216L60 316Q62 326 71 326H349Q359 326 357 316L339 216Q337 206 327 206H50Z"  />
<glyph unicode="&#xAE;" horiz-adv-x="443" d="M274 301Q233 301 198 315T138 356T97 417T82 493Q82 533 97 568T137 629T198 669T274 684Q315 684 350 670T411 629T452 568T467 493Q467 452 452 417T411 356T350 316T274 301ZM274 340Q306 340 333 351T381 383T412 431T424 493Q424 526 413 554T381 602T334 633T274 645Q242 645 215 634T167 602T136 554T124 493Q124 460 135 432T167 383T214 352T274 340ZM200 388Q193 388 193 395V593Q193 600 200 600H288Q326 600 346 583T367 533Q367 489 328 473L368 395Q371 388 363 388H320Q313 388 310 395L276 465H251Q247 465 247 461V395Q247 388 240 388H200ZM284 509Q313 509 313 533Q313 556 284 556H251Q247 556 247 552V514Q247 509 251 509H284Z"  />
<glyph unicode="&#xAF;" horiz-adv-x="441" d="M150 579Q140 579 142 589L154 660Q156 670 165 670H438Q448 670 446 660L433 589Q431 579 422 579H150Z"  />
<glyph unicode="&#xB0;" horiz-adv-x="437" d="M269 388Q236 388 208 399T160 431T129 479T117 540Q117 573 128 600T160 648T208 680T269 692Q301 692 329 681T377 649T409 601T421 540Q421 507 410 480T378 432T329 400T269 388ZM269 465Q300 465 320 486T341 540Q341 573 321 593T269 614Q237 614 217 594T197 540Q197 508 217 487T269 465Z"  />
<glyph unicode="&#xB1;" horiz-adv-x="536" d="M238 166Q228 166 228 176V326Q228 332 222 332H74Q64 332 64 342V436Q64 446 74 446H222Q228 446 228 452V603Q228 613 238 613H335Q345 613 345 603V452Q345 446 351 446H499Q509 446 509 436V342Q509 332 499 332H351Q345 332 345 326V176Q345 166 335 166H238ZM74 0Q64 0 64 10V104Q64 114 74 114H499Q509 114 509 104V10Q509 0 499 0H74Z"  />
<glyph unicode="&#xB2;" horiz-adv-x="343" d="M84 430Q74 430 76 440L88 503Q90 513 97 519L263 669Q283 686 290 700T298 731Q298 745 291 753T267 761Q234 761 218 720Q215 710 207 712L135 724Q127 726 129 735Q135 756 148 776T181 811T227 835T286 844Q340 844 369 817T399 745Q399 707 382 678T331 619L219 516V515H350Q360 515 358 505L347 440Q345 430 335 430H84Z"  />
<glyph unicode="&#xB3;" horiz-adv-x="343" d="M211 422Q157 422 125 447T88 519Q86 529 96 531L170 545Q178 546 181 537Q185 524 194 515T221 505Q242 505 257 521T273 560Q273 596 231 596H215Q205 596 207 606L218 668Q220 678 229 678H243Q266 678 280 692T294 730Q294 744 286 752T262 761Q233 761 217 733Q213 725 204 726L136 740Q127 742 130 751Q145 790 184 817T281 844Q338 844 367 818T397 750Q397 681 338 646V645Q352 637 362 619T373 575Q373 540 361 512T326 463T275 433T211 422Z"  />
<glyph unicode="&#xB4;" horiz-adv-x="441" d="M184 551Q173 551 180 561L275 691Q282 701 294 701H405Q410 701 411 698T408 690L290 561Q285 556 281 554T270 551H184Z"  />
<glyph unicode="&#xB5;" horiz-adv-x="534" d="M313 0Q303 0 305 10L312 49H311Q294 24 272 7T217 -11Q197 -11 183 -5T162 10H161L129 -170Q127 -180 119 -180H4Q-7 -180 -5 -170L109 474Q111 484 120 484H234Q244 484 242 474L193 195Q185 153 198 128T248 103Q283 103 306 128T338 195L387 474Q389 484 397 484H512Q523 484 521 474L438 10Q436 0 427 0H313Z"  />
<glyph unicode="&#xB6;" horiz-adv-x="630" d="M388 -180Q378 -180 380 -170L511 575Q512 581 506 581H438Q432 581 431 575L300 -170Q298 -180 289 -180H198Q189 -180 191 -170L262 240Q220 243 188 259T134 302T105 365T101 444Q107 493 128 536T184 611T265 661T368 680H630Q640 680 638 670L490 -170Q488 -180 479 -180H388Z"  />
<glyph unicode="&#xB7;" horiz-adv-x="244" d="M65 197Q54 197 56 207L76 322Q78 332 87 332H201Q212 332 210 322L190 207Q188 197 179 197H65Z"  />
<glyph unicode="&#xB8;" horiz-adv-x="441" d="M84 -159Q74 -159 79 -149L164 0Q170 10 179 10H258Q269 10 264 0L193 -149Q188 -159 175 -159H84Z"  />
<glyph unicode="&#xB9;" horiz-adv-x="343" d="M188 430Q178 430 180 440L231 727H229L160 687Q155 684 152 686T150 693L165 773Q166 783 177 788L243 829Q254 836 262 836H341Q351 836 349 826L281 440Q279 430 270 430H188Z"  />
<glyph unicode="&#xBA;" horiz-adv-x="358" d="M211 384Q154 384 121 411T87 494Q87 519 93 549T111 605Q133 648 172 668T263 688Q320 688 353 661T387 578Q387 553 381 523T363 467Q341 424 302 404T211 384ZM224 465Q255 465 272 496Q278 509 282 530T286 563Q286 583 278 595T250 607Q219 607 202 576Q196 563 192 542T188 509Q188 489 196 477T224 465Z"  />
<glyph unicode="&#xBB;" horiz-adv-x="545" d="M275 41Q271 38 268 39T266 45L286 162Q288 173 300 183L394 266Q399 270 396 274L331 358Q322 367 325 379L343 483Q344 488 347 489T354 487L527 271Q533 263 525 257L275 41ZM40 41Q36 38 33 39T31 45L51 162Q53 169 55 173T64 183L159 266Q164 270 161 274L96 358Q87 367 90 379L108 483Q109 488 112 489T119 487L291 271Q297 263 289 257L40 41Z"  />
<glyph unicode="&#xBC;" horiz-adv-x="837" d="M144 -11Q139 -11 138 -8T140 -1L641 681Q647 691 658 691H738Q743 691 743 688T741 681L241 -1Q234 -11 223 -11H144ZM179 274Q169 274 171 284L222 571H220L151 531Q146 528 143 530T141 537L156 617Q157 627 168 632L234 673Q245 680 253 680H332Q342 680 340 670L272 284Q270 274 261 274H179ZM616 0Q607 0 609 10L616 51Q617 57 611 57H453Q443 57 445 67L456 133Q457 143 464 151L619 396Q626 406 635 406H717Q727 406 722 396L567 143V142H626Q631 142 633 148L646 219Q648 229 657 229H731Q741 229 739 219L727 148Q725 142 731 142H747Q756 142 754 132L743 67Q741 57 732 57H716Q711 57 710 51L702 10Q700 0 691 0H616Z"  />
<glyph unicode="&#xBD;" horiz-adv-x="875" d="M144 -11Q139 -11 138 -8T140 -1L641 681Q647 691 658 691H738Q743 691 743 688T741 681L241 -1Q234 -11 223 -11H144ZM179 274Q169 274 171 284L222 571H220L151 531Q146 528 143 530T141 537L156 617Q157 627 168 632L234 673Q245 680 253 680H332Q342 680 340 670L272 284Q270 274 261 274H179ZM500 0Q490 0 492 10L504 73Q506 83 513 89L679 239Q699 256 706 270T714 301Q714 315 707 323T683 331Q650 331 634 290Q631 280 623 282L551 294Q543 296 545 305Q551 326 564 346T597 381T643 405T702 414Q756 414 785 387T815 315Q815 277 798 248T747 189L635 86V85H766Q776 85 774 75L763 10Q761 0 751 0H500Z"  />
<glyph unicode="&#xBE;" horiz-adv-x="894" d="M200 -11Q195 -11 194 -8T196 -1L697 681Q703 691 714 691H794Q799 691 799 688T797 681L297 -1Q290 -11 279 -11H200ZM673 0Q664 0 666 10L673 51Q674 57 668 57H510Q500 57 502 67L513 133Q514 143 521 151L676 396Q683 406 692 406H774Q784 406 779 396L624 143V142H683Q688 142 690 148L703 219Q705 229 714 229H788Q798 229 796 219L784 148Q782 142 788 142H804Q813 142 811 132L800 67Q798 57 789 57H773Q768 57 767 51L759 10Q757 0 748 0H673ZM234 266Q180 266 148 291T111 363Q109 373 119 375L193 389Q201 390 204 381Q208 368 217 359T244 349Q265 349 280 365T296 404Q296 440 254 440H238Q228 440 230 450L241 512Q243 522 252 522H266Q289 522 303 536T317 574Q317 588 309 596T285 605Q256 605 240 577Q236 569 227 570L159 584Q150 586 153 595Q168 634 207 661T304 688Q361 688 390 662T420 594Q420 525 361 490V489Q375 481 385 463T396 419Q396 384 384 356T349 307T298 277T234 266Z"  />
<glyph unicode="&#xBF;" horiz-adv-x="462" d="M311 287Q321 287 319 277L311 235Q306 206 296 187T268 149L187 60Q157 28 145 7T132 -39Q132 -63 145 -78T185 -93Q215 -93 237 -73T273 -20Q277 -10 286 -11L387 -26Q396 -28 393 -38Q369 -115 309 -161T164 -207Q125 -207 94 -196T42 -166T9 -119T-3 -60Q-3 -15 17 23T79 104L155 189Q169 205 175 217T186 252L191 277Q193 287 202 287H311ZM336 364Q334 354 325 354H212Q201 354 203 364L222 474Q224 484 233 484H347Q357 484 355 474L336 364Z"  />
<glyph unicode="&#xC0;" horiz-adv-x="624" d="M-16 0Q-26 0 -21 10L322 670Q327 680 337 680H458Q467 680 469 670L574 10Q576 0 567 0H445Q434 0 433 10L417 132H188L129 10Q125 0 116 0H-16ZM402 252L371 500H368L247 252H402ZM356 755Q350 755 347 756T339 763L243 878Q240 882 241 885T248 889H356Q369 889 376 879L449 765Q451 761 450 758T443 755H356Z"  />
<glyph unicode="&#xC1;" horiz-adv-x="624" d="M-16 0Q-26 0 -21 10L322 670Q327 680 337 680H458Q467 680 469 670L574 10Q576 0 567 0H445Q434 0 433 10L417 132H188L129 10Q125 0 116 0H-16ZM402 252L371 500H368L247 252H402ZM360 755Q355 755 354 758T355 765L464 879Q474 889 485 889H600Q605 889 606 886T604 879L467 763Q461 758 457 757T447 755H360Z"  />
<glyph unicode="&#xC2;" horiz-adv-x="624" d="M-16 0Q-26 0 -21 10L322 670Q327 680 337 680H458Q467 680 469 670L574 10Q576 0 567 0H445Q434 0 433 10L417 132H188L129 10Q125 0 116 0H-16ZM402 252L371 500H368L247 252H402ZM481 748Q469 748 462 758L421 815H419L358 758Q348 748 335 748H255Q250 748 249 751T252 758L374 889Q382 898 394 898H466Q477 898 482 889L558 758Q560 754 559 751T552 748H481Z"  />
<glyph unicode="&#xC3;" horiz-adv-x="624" d="M-16 0Q-26 0 -21 10L322 670Q327 680 337 680H458Q467 680 469 670L574 10Q576 0 567 0H445Q434 0 433 10L417 132H188L129 10Q125 0 116 0H-16ZM402 252L371 500H368L247 252H402ZM465 750Q442 750 427 756T396 772Q382 780 371 785T344 790Q323 790 306 782T269 758Q266 755 263 756T261 762L273 831Q275 839 277 842T285 851Q322 885 364 885Q387 885 402 879T434 863Q448 855 459 850T486 845Q507 845 524 853T560 877Q564 880 567 879T569 873L557 804Q555 796 553 793T545 784Q526 767 507 759T465 750Z"  />
<glyph unicode="&#xC4;" horiz-adv-x="624" d="M-16 0Q-26 0 -21 10L322 670Q327 680 337 680H458Q467 680 469 670L574 10Q576 0 567 0H445Q434 0 433 10L417 132H188L129 10Q125 0 116 0H-16ZM402 252L371 500H368L247 252H402ZM461 762Q451 762 453 772L471 866Q473 876 482 876H570Q580 876 578 866L561 772Q559 762 550 762H461ZM268 762Q257 762 259 772L277 866Q279 876 288 876H377Q387 876 385 866L368 772Q366 762 357 762H268Z"  />
<glyph unicode="&#xC5;" horiz-adv-x="624" d="M-16 0Q-26 0 -21 10L322 670Q327 680 337 680H458Q467 680 469 670L574 10Q576 0 567 0H445Q434 0 433 10L417 132H188L129 10Q125 0 116 0H-16ZM402 252L371 500H368L247 252H402ZM399 714Q360 714 336 737T311 799Q311 824 320 846T345 886T383 914T434 924Q473 924 497 901T521 840Q521 814 512 792T487 752T449 724T399 714ZM408 770Q430 770 446 787T462 830Q462 847 452 857T425 868Q402 868 387 851T371 808Q371 791 381 781T408 770Z"  />
<glyph unicode="&#xC6;" horiz-adv-x="898" d="M392 0Q382 0 384 10L404 126Q405 132 399 132H213L137 10Q131 0 122 0H-16Q-21 0 -22 2T-21 10L400 670Q407 680 415 680H929Q940 680 938 670L920 568Q918 558 908 558H626Q620 558 620 552L595 409Q593 403 599 403H834Q844 403 842 393L824 293Q822 283 812 283H577Q572 283 571 277L544 128Q544 122 549 122H831Q841 122 839 112L821 10Q819 0 810 0H392ZM287 252H420Q425 252 427 258L480 558H478L287 252Z"  />
<glyph unicode="&#xC7;" horiz-adv-x="550" d="M121 -159Q111 -159 116 -149L198 -4Q130 11 90 61T50 197Q50 220 55 265T70 360T92 458T118 534Q159 615 222 653T376 691Q457 691 508 651T576 540Q577 531 569 527L463 483Q454 478 450 489Q442 522 422 544T360 566Q319 566 292 545T246 486Q240 474 234 452T222 404T211 348T201 292T195 243T192 209Q192 165 215 140T282 114Q320 114 348 136T397 192Q403 201 412 197L507 146Q515 143 510 133Q468 65 417 31T296 -9L230 -149Q225 -159 212 -159H121Z"  />
<glyph unicode="&#xC8;" horiz-adv-x="542" d="M337 755Q331 755 328 756T320 763L224 878Q221 882 222 885T229 889H337Q350 889 357 879L430 765Q432 761 431 758T424 755H337ZM145 670Q147 680 156 680H574Q584 680 582 670L564 568Q562 558 553 558H271Q265 558 264 552L239 409Q237 403 244 403H478Q488 403 486 393L468 293Q466 283 456 283H222Q216 283 215 277L189 128Q187 122 194 122H476Q486 122 484 112L465 10Q463 0 454 0H37Q26 0 28 10L145 670Z"  />
<glyph unicode="&#xC9;" horiz-adv-x="542" d="M309 755Q304 755 303 758T304 765L413 879Q423 889 434 889H549Q554 889 555 886T553 879L416 763Q410 758 406 757T396 755H309ZM145 670Q147 680 156 680H574Q584 680 582 670L564 568Q562 558 553 558H271Q265 558 264 552L239 409Q237 403 244 403H478Q488 403 486 393L468 293Q466 283 456 283H222Q216 283 215 277L189 128Q187 122 194 122H476Q486 122 484 112L465 10Q463 0 454 0H37Q26 0 28 10L145 670Z"  />
<glyph unicode="&#xCA;" horiz-adv-x="542" d="M145 670Q147 680 156 680H574Q584 680 582 670L564 568Q562 558 553 558H271Q265 558 264 552L239 409Q237 403 244 403H478Q488 403 486 393L468 293Q466 283 456 283H222Q216 283 215 277L189 128Q187 122 194 122H476Q486 122 484 112L465 10Q463 0 454 0H37Q26 0 28 10L145 670ZM456 748Q444 748 437 758L396 815H394L333 758Q323 748 310 748H230Q225 748 224 751T227 758L349 889Q357 898 369 898H441Q452 898 457 889L533 758Q535 754 534 751T527 748H456Z"  />
<glyph unicode="&#xCB;" horiz-adv-x="542" d="M436 762Q426 762 428 772L446 866Q448 876 457 876H545Q555 876 553 866L536 772Q534 762 525 762H436ZM243 762Q232 762 234 772L252 866Q254 876 263 876H352Q362 876 360 866L343 772Q341 762 332 762H243ZM145 670Q147 680 156 680H574Q584 680 582 670L564 568Q562 558 553 558H271Q265 558 264 552L239 409Q237 403 244 403H478Q488 403 486 393L468 293Q466 283 456 283H222Q216 283 215 277L189 128Q187 122 194 122H476Q486 122 484 112L465 10Q463 0 454 0H37Q26 0 28 10L145 670Z"  />
<glyph unicode="&#xCC;" horiz-adv-x="266" d="M145 670Q147 680 156 680H277Q287 680 285 670L168 10Q166 0 158 0H37Q26 0 28 10L145 670ZM182 755Q176 755 173 756T165 763L69 878Q66 882 67 885T74 889H182Q195 889 202 879L275 765Q277 761 276 758T269 755H182Z"  />
<glyph unicode="&#xCD;" horiz-adv-x="266" d="M145 670Q147 680 156 680H277Q287 680 285 670L168 10Q166 0 158 0H37Q26 0 28 10L145 670ZM186 755Q181 755 180 758T181 765L290 879Q300 889 311 889H426Q431 889 432 886T430 879L293 763Q287 758 283 757T273 755H186Z"  />
<glyph unicode="&#xCE;" horiz-adv-x="266" d="M145 670Q147 680 156 680H277Q287 680 285 670L168 10Q166 0 158 0H37Q26 0 28 10L145 670ZM311 748Q299 748 292 758L251 815H249L188 758Q178 748 165 748H85Q80 748 79 751T82 758L204 889Q212 898 224 898H296Q307 898 312 889L388 758Q390 754 389 751T382 748H311Z"  />
<glyph unicode="&#xCF;" horiz-adv-x="266" d="M145 670Q147 680 156 680H277Q287 680 285 670L168 10Q166 0 158 0H37Q26 0 28 10L145 670ZM285 762Q275 762 277 772L295 866Q297 876 306 876H394Q404 876 402 866L385 772Q383 762 374 762H285ZM92 762Q81 762 83 772L101 866Q103 876 112 876H201Q211 876 209 866L192 772Q190 762 181 762H92Z"  />
<glyph unicode="&#xD0;" horiz-adv-x="605" d="M37 0Q26 0 28 10L77 285Q78 291 73 291H47Q37 291 39 301L54 385Q56 395 66 395H90Q95 395 97 401L145 670Q147 680 156 680H399Q499 680 547 631T595 487Q595 456 590 409T576 312T555 216T527 139Q488 60 427 30T280 0H37ZM271 125Q321 125 353 142T405 202Q414 219 422 253T438 326T450 400T455 456Q455 510 428 532T345 555H270Q265 555 264 549L238 401Q236 395 242 395H324Q334 395 332 385L317 301Q315 291 306 291H224Q218 291 217 285L190 131Q188 125 195 125H271Z"  />
<glyph unicode="&#xD1;" horiz-adv-x="631" d="M467 750Q444 750 429 756T398 772Q384 780 373 785T346 790Q325 790 308 782T271 758Q268 755 265 756T263 762L275 831Q277 839 279 842T287 851Q324 885 366 885Q389 885 404 879T436 863Q450 855 461 850T488 845Q509 845 526 853T562 877Q566 880 569 879T571 873L559 804Q557 796 555 793T547 784Q528 767 509 759T467 750ZM145 670Q147 680 156 680H270Q282 680 285 670L440 233H444L522 670Q524 680 533 680H641Q652 680 650 670L533 10Q531 0 522 0H407Q397 0 393 10L237 447H232L155 10Q153 0 145 0H37Q26 0 28 10L145 670Z"  />
<glyph unicode="&#xD2;" horiz-adv-x="602" d="M353 755Q347 755 344 756T336 763L240 878Q237 882 238 885T245 889H353Q366 889 373 879L446 765Q448 761 447 758T440 755H353ZM266 -11Q218 -11 179 2T111 41T67 107T51 197Q51 220 56 265T71 362T93 460T119 535Q160 617 226 654T383 691Q431 691 470 678T538 639T582 573T598 483Q598 460 593 415T578 318T556 220T530 145Q489 63 423 26T266 -11ZM285 114Q327 114 356 135T403 194Q412 212 421 250T438 331T451 413T456 470Q456 515 433 540T364 566Q322 566 293 545T247 486Q241 474 235 453T222 405T211 349T202 293T196 244T193 210Q193 165 217 140T285 114Z"  />
<glyph unicode="&#xD3;" horiz-adv-x="602" d="M346 755Q341 755 340 758T341 765L450 879Q460 889 471 889H586Q591 889 592 886T590 879L453 763Q447 758 443 757T433 755H346ZM266 -11Q218 -11 179 2T111 41T67 107T51 197Q51 220 56 265T71 362T93 460T119 535Q160 617 226 654T383 691Q431 691 470 678T538 639T582 573T598 483Q598 460 593 415T578 318T556 220T530 145Q489 63 423 26T266 -11ZM285 114Q327 114 356 135T403 194Q412 212 421 250T438 331T451 413T456 470Q456 515 433 540T364 566Q322 566 293 545T247 486Q241 474 235 453T222 405T211 349T202 293T196 244T193 210Q193 165 217 140T285 114Z"  />
<glyph unicode="&#xD4;" horiz-adv-x="602" d="M471 756Q459 756 452 766L411 823H410L348 766Q342 761 338 759T325 756H246Q241 756 240 759T242 766L364 897Q373 907 384 907H456Q466 907 472 897L548 766Q550 762 549 759T542 756H471ZM266 -11Q218 -11 179 2T111 41T67 107T51 197Q51 220 56 265T71 362T93 460T119 535Q160 617 226 654T383 691Q431 691 470 678T538 639T582 573T598 483Q598 460 593 415T578 318T556 220T530 145Q489 63 423 26T266 -11ZM285 114Q327 114 356 135T403 194Q412 212 421 250T438 331T451 413T456 470Q456 515 433 540T364 566Q322 566 293 545T247 486Q241 474 235 453T222 405T211 349T202 293T196 244T193 210Q193 165 217 140T285 114Z"  />
<glyph unicode="&#xD5;" horiz-adv-x="602" d="M449 750Q426 750 411 756T380 772Q366 780 355 785T328 790Q307 790 290 782T253 758Q250 755 247 756T245 762L257 831Q259 839 261 842T269 851Q306 885 348 885Q371 885 386 879T418 863Q432 855 443 850T470 845Q491 845 508 853T544 877Q548 880 551 879T553 873L541 804Q539 796 537 793T529 784Q510 767 491 759T449 750ZM266 -11Q218 -11 179 2T111 41T67 107T51 197Q51 220 56 265T71 362T93 460T119 535Q160 617 226 654T383 691Q431 691 470 678T538 639T582 573T598 483Q598 460 593 415T578 318T556 220T530 145Q489 63 423 26T266 -11ZM285 114Q327 114 356 135T403 194Q412 212 421 250T438 331T451 413T456 470Q456 515 433 540T364 566Q322 566 293 545T247 486Q241 474 235 453T222 405T211 349T202 293T196 244T193 210Q193 165 217 140T285 114Z"  />
<glyph unicode="&#xD6;" horiz-adv-x="602" d="M444 762Q434 762 436 772L454 866Q456 876 465 876H553Q563 876 561 866L544 772Q542 762 533 762H444ZM251 762Q240 762 242 772L260 866Q262 876 271 876H360Q370 876 368 866L351 772Q349 762 340 762H251ZM266 -11Q218 -11 179 2T111 41T67 107T51 197Q51 220 56 265T71 362T93 460T119 535Q160 617 226 654T383 691Q431 691 470 678T538 639T582 573T598 483Q598 460 593 415T578 318T556 220T530 145Q489 63 423 26T266 -11ZM285 114Q327 114 356 135T403 194Q412 212 421 250T438 331T451 413T456 470Q456 515 433 540T364 566Q322 566 293 545T247 486Q241 474 235 453T222 405T211 349T202 293T196 244T193 210Q193 165 217 140T285 114Z"  />
<glyph unicode="&#xD7;" horiz-adv-x="536" d="M408 76Q401 69 394 76L276 194Q272 198 268 194L150 76Q143 69 136 76L72 140Q65 147 72 154L189 272Q193 276 189 280L72 398Q65 405 72 412L136 476Q143 483 150 476L268 358Q272 355 277 358L394 476Q401 483 408 476L472 412Q479 405 472 398L354 281Q349 276 354 272L472 154Q479 147 472 140L408 76Z"  />
<glyph unicode="&#xD8;" horiz-adv-x="602" d="M9 -30Q4 -30 4 -27T6 -20L81 77Q51 123 51 197Q51 220 56 265T71 362T93 460T119 535Q160 617 226 654T383 691Q468 691 523 651L562 701Q567 710 578 710H645Q650 710 650 707T648 700L570 599Q598 551 598 483Q598 460 593 415T578 318T556 220T530 145Q489 63 423 26T266 -11Q225 -11 191 -2T129 26L92 -21Q85 -30 75 -30H9ZM245 487Q236 470 227 434T210 357T197 277T191 216L434 539Q409 567 364 567Q322 567 292 546T245 487ZM285 113Q327 113 357 134T405 193Q413 209 421 243T437 316T450 392T457 454L218 137Q244 113 285 113Z"  />
<glyph unicode="&#xD9;" horiz-adv-x="619" d="M355 755Q349 755 346 756T338 763L242 878Q239 882 240 885T247 889H355Q368 889 375 879L448 765Q450 761 449 758T442 755H355ZM286 -11Q227 -11 182 6T107 57T68 140T68 253L142 670Q144 680 152 680H273Q284 680 282 670L207 245Q196 181 221 148T298 114Q348 114 380 142T426 245L502 670Q504 680 513 680H633Q644 680 642 670L566 243Q554 172 530 124T470 45T389 2T286 -11Z"  />
<glyph unicode="&#xDA;" horiz-adv-x="619" d="M353 755Q348 755 347 758T348 765L457 879Q467 889 478 889H593Q598 889 599 886T597 879L460 763Q454 758 450 757T440 755H353ZM286 -11Q227 -11 182 6T107 57T68 140T68 253L142 670Q144 680 152 680H273Q284 680 282 670L207 245Q196 181 221 148T298 114Q348 114 380 142T426 245L502 670Q504 680 513 680H633Q644 680 642 670L566 243Q554 172 530 124T470 45T389 2T286 -11Z"  />
<glyph unicode="&#xDB;" horiz-adv-x="619" d="M286 -11Q227 -11 182 6T107 57T68 140T68 253L142 670Q144 680 152 680H273Q284 680 282 670L207 245Q196 181 221 148T298 114Q348 114 380 142T426 245L502 670Q504 680 513 680H633Q644 680 642 670L566 243Q554 172 530 124T470 45T389 2T286 -11ZM487 748Q475 748 468 758L427 815H425L364 758Q354 748 341 748H261Q256 748 255 751T258 758L380 889Q388 898 400 898H472Q483 898 488 889L564 758Q566 754 565 751T558 748H487Z"  />
<glyph unicode="&#xDC;" horiz-adv-x="619" d="M463 762Q453 762 455 772L473 866Q475 876 484 876H572Q582 876 580 866L563 772Q561 762 552 762H463ZM270 762Q259 762 261 772L279 866Q281 876 290 876H379Q389 876 387 866L370 772Q368 762 359 762H270ZM286 -11Q227 -11 182 6T107 57T68 140T68 253L142 670Q144 680 152 680H273Q284 680 282 670L207 245Q196 181 221 148T298 114Q348 114 380 142T426 245L502 670Q504 680 513 680H633Q644 680 642 670L566 243Q554 172 530 124T470 45T389 2T286 -11Z"  />
<glyph unicode="&#xDD;" horiz-adv-x="545" d="M177 0Q166 0 168 10L215 271L90 670Q86 680 99 680H216Q227 680 230 670L305 415H308L473 670Q479 680 488 680H613Q619 680 620 677T620 670L355 271L308 10Q306 0 297 0H177ZM314 755Q309 755 308 758T309 765L418 879Q428 889 439 889H554Q559 889 560 886T558 879L421 763Q415 758 411 757T401 755H314Z"  />
<glyph unicode="&#xDE;" horiz-adv-x="580" d="M37 0Q27 0 29 10L146 670Q148 680 157 680H278Q288 680 286 670L268 575Q266 569 273 569H390Q485 569 534 523T584 397Q584 333 564 284T507 202T422 152T314 135H197Q191 135 190 129L169 10Q167 0 158 0H37ZM327 257Q377 257 409 288T442 374Q442 408 421 427T360 447H252Q246 447 245 441L214 263Q212 257 218 257H327Z"  />
<glyph unicode="&#xDF;" horiz-adv-x="557" d="M238 -4Q228 -4 230 6L246 95Q248 105 258 105H282Q308 105 324 114T353 147Q357 155 362 176T371 222T378 269T381 300Q381 354 316 354H302Q292 354 294 364L311 453Q313 463 322 463H344Q378 463 396 482T415 534Q415 580 347 580Q301 580 277 559T244 489L159 10Q157 0 148 0H35Q24 0 26 10L110 486Q127 583 187 637T364 691Q457 691 503 656T550 559Q550 508 532 472T472 413V411Q515 384 515 322Q515 300 512 270T502 207T488 144T469 93Q443 39 395 18T272 -4H238Z"  />
<glyph unicode="&#xE0;" horiz-adv-x="509" d="M298 0Q288 0 290 10L295 43H294Q273 19 239 4T156 -11Q129 -11 105 -3T63 21T35 60T25 112Q25 200 83 245T248 291H332Q338 291 340 297L344 319Q350 354 334 370T259 387Q223 387 196 378T149 355Q140 349 137 358L107 433Q104 442 112 447Q145 469 193 482T294 495Q401 495 444 456T471 321L415 10Q413 0 404 0H298ZM215 89Q258 89 284 106T316 159L322 196Q323 202 317 202H249Q199 202 177 185T155 134Q155 114 170 102T215 89ZM278 551Q268 551 261 561L189 691Q187 695 189 698T196 701H300Q312 701 315 691L367 561Q370 551 359 551H278Z"  />
<glyph unicode="&#xE1;" horiz-adv-x="509" d="M298 0Q288 0 290 10L295 43H294Q273 19 239 4T156 -11Q129 -11 105 -3T63 21T35 60T25 112Q25 200 83 245T248 291H332Q338 291 340 297L344 319Q350 354 334 370T259 387Q223 387 196 378T149 355Q140 349 137 358L107 433Q104 442 112 447Q145 469 193 482T294 495Q401 495 444 456T471 321L415 10Q413 0 404 0H298ZM215 89Q258 89 284 106T316 159L322 196Q323 202 317 202H249Q199 202 177 185T155 134Q155 114 170 102T215 89ZM266 551Q255 551 262 561L357 691Q364 701 376 701H487Q492 701 493 698T490 690L372 561Q367 556 363 554T352 551H266Z"  />
<glyph unicode="&#xE2;" horiz-adv-x="509" d="M298 0Q288 0 290 10L295 43H294Q273 19 239 4T156 -11Q129 -11 105 -3T63 21T35 60T25 112Q25 200 83 245T248 291H332Q338 291 340 297L344 319Q350 354 334 370T259 387Q223 387 196 378T149 355Q140 349 137 358L107 433Q104 442 112 447Q145 469 193 482T294 495Q401 495 444 456T471 321L415 10Q413 0 404 0H298ZM215 89Q258 89 284 106T316 159L322 196Q323 202 317 202H249Q199 202 177 185T155 134Q155 114 170 102T215 89ZM392 550Q380 550 373 560L332 617H331L269 560Q263 555 259 553T246 550H167Q162 550 161 553T163 560L285 691Q294 701 305 701H377Q387 701 393 691L469 560Q471 556 470 553T463 550H392Z"  />
<glyph unicode="&#xE3;" horiz-adv-x="509" d="M298 0Q288 0 290 10L295 43H294Q273 19 239 4T156 -11Q129 -11 105 -3T63 21T35 60T25 112Q25 200 83 245T248 291H332Q338 291 340 297L344 319Q350 354 334 370T259 387Q223 387 196 378T149 355Q140 349 137 358L107 433Q104 442 112 447Q145 469 193 482T294 495Q401 495 444 456T471 321L415 10Q413 0 404 0H298ZM215 89Q258 89 284 106T316 159L322 196Q323 202 317 202H249Q199 202 177 185T155 134Q155 114 170 102T215 89ZM374 556Q351 556 336 562T305 577Q291 586 280 590T253 595Q232 595 215 587T178 564Q175 561 172 562T170 567L182 636Q184 644 186 648T194 657Q232 690 273 690Q296 690 311 684T343 668Q357 660 368 655T395 650Q416 650 433 658T469 682Q473 685 476 684T478 678L466 609Q464 602 462 598T454 589Q435 572 416 564T374 556Z"  />
<glyph unicode="&#xE4;" horiz-adv-x="509" d="M298 0Q288 0 290 10L295 43H294Q273 19 239 4T156 -11Q129 -11 105 -3T63 21T35 60T25 112Q25 200 83 245T248 291H332Q338 291 340 297L344 319Q350 354 334 370T259 387Q223 387 196 378T149 355Q140 349 137 358L107 433Q104 442 112 447Q145 469 193 482T294 495Q401 495 444 456T471 321L415 10Q413 0 404 0H298ZM215 89Q258 89 284 106T316 159L322 196Q323 202 317 202H249Q199 202 177 185T155 134Q155 114 170 102T215 89ZM367 566Q357 566 359 576L377 671Q379 681 388 681H477Q487 681 485 671L467 576Q465 566 456 566H367ZM174 566Q164 566 166 576L184 671Q186 681 195 681H283Q293 681 291 671L274 576Q272 566 263 566H174Z"  />
<glyph unicode="&#xE5;" horiz-adv-x="509" d="M298 0Q288 0 290 10L295 43H294Q273 19 239 4T156 -11Q129 -11 105 -3T63 21T35 60T25 112Q25 200 83 245T248 291H332Q338 291 340 297L344 319Q350 354 334 370T259 387Q223 387 196 378T149 355Q140 349 137 358L107 433Q104 442 112 447Q145 469 193 482T294 495Q401 495 444 456T471 321L415 10Q413 0 404 0H298ZM215 89Q258 89 284 106T316 159L322 196Q323 202 317 202H249Q199 202 177 185T155 134Q155 114 170 102T215 89ZM310 525Q271 525 247 548T222 610Q222 635 231 658T256 698T295 725T345 736Q384 736 408 713T433 651Q433 626 424 603T399 563T361 536T310 525ZM319 581Q342 581 357 598T373 641Q373 658 363 669T336 680Q314 680 298 663T282 620Q282 603 292 592T319 581Z"  />
<glyph unicode="&#xE6;" horiz-adv-x="786" d="M505 -11Q447 -11 410 10T355 62H354Q324 24 281 7T174 -11Q102 -11 64 22T25 115Q25 201 83 246T248 291H332Q338 291 340 297L344 319Q350 354 334 370T259 387Q223 387 196 378T149 355Q140 349 137 358L107 433Q104 442 112 447Q145 469 193 482T294 495Q345 495 383 482T442 446H444Q470 469 506 482T583 495Q621 495 654 484T711 452T748 399T762 325Q762 305 760 280T749 212Q747 202 737 202H454Q448 202 447 196Q446 191 446 181Q446 135 468 116T533 97Q565 97 595 110T649 144Q657 151 664 144L713 85Q720 77 712 69Q674 34 623 12T505 -11ZM626 291Q631 291 633 297Q636 312 636 324Q636 392 566 392Q537 392 514 378T478 338Q473 329 471 320T466 298Q465 291 470 291H626ZM215 89Q258 89 284 106T316 159L322 196Q323 202 317 202H249Q199 202 177 185T155 134Q155 114 170 102T215 89Z"  />
<glyph unicode="&#xE7;" horiz-adv-x="460" d="M76 -159Q66 -159 71 -149L154 -3Q98 11 67 53T35 161Q35 179 37 204T45 256T58 312T78 365Q110 431 166 463T299 495Q360 495 400 469T457 398Q460 389 453 385L366 336Q361 333 357 334T350 339Q339 360 324 371T286 382Q260 382 239 369T203 327Q196 312 190 292T180 249T174 208T171 177Q171 102 235 102Q258 102 278 113T319 147Q326 155 332 150L408 95Q416 90 409 81Q352 3 251 -9L185 -149Q180 -159 167 -159H76Z"  />
<glyph unicode="&#xE8;" horiz-adv-x="503" d="M222 -11Q133 -11 84 34T35 166Q35 188 37 214T45 266T57 317T75 362Q107 427 161 461T300 495Q338 495 371 484T428 452T465 399T479 325Q479 305 477 280T466 212Q464 202 454 202H171Q165 202 164 196Q163 191 163 181Q163 135 185 116T250 97Q282 97 312 110T366 144Q374 151 381 144L430 85Q437 77 429 69Q391 34 340 12T222 -11ZM343 291Q348 291 350 297Q353 312 353 324Q353 392 283 392Q254 392 231 378T195 338Q190 329 188 320T183 298Q182 291 187 291H343ZM261 551Q251 551 244 561L172 691Q170 695 172 698T179 701H283Q295 701 298 691L350 561Q353 551 342 551H261Z"  />
<glyph unicode="&#xE9;" horiz-adv-x="503" d="M244 551Q233 551 240 561L335 691Q342 701 354 701H465Q470 701 471 698T468 690L350 561Q345 556 341 554T330 551H244ZM222 -11Q133 -11 84 34T35 166Q35 188 37 214T45 266T57 317T75 362Q107 427 161 461T300 495Q338 495 371 484T428 452T465 399T479 325Q479 305 477 280T466 212Q464 202 454 202H171Q165 202 164 196Q163 191 163 181Q163 135 185 116T250 97Q282 97 312 110T366 144Q374 151 381 144L430 85Q437 77 429 69Q391 34 340 12T222 -11ZM343 291Q348 291 350 297Q353 312 353 324Q353 392 283 392Q254 392 231 378T195 338Q190 329 188 320T183 298Q182 291 187 291H343Z"  />
<glyph unicode="&#xEA;" horiz-adv-x="503" d="M375 550Q363 550 356 560L315 617H314L252 560Q246 555 242 553T229 550H150Q145 550 144 553T146 560L268 691Q277 701 288 701H360Q370 701 376 691L452 560Q454 556 453 553T446 550H375ZM222 -11Q133 -11 84 34T35 166Q35 188 37 214T45 266T57 317T75 362Q107 427 161 461T300 495Q338 495 371 484T428 452T465 399T479 325Q479 305 477 280T466 212Q464 202 454 202H171Q165 202 164 196Q163 191 163 181Q163 135 185 116T250 97Q282 97 312 110T366 144Q374 151 381 144L430 85Q437 77 429 69Q391 34 340 12T222 -11ZM343 291Q348 291 350 297Q353 312 353 324Q353 392 283 392Q254 392 231 378T195 338Q190 329 188 320T183 298Q182 291 187 291H343Z"  />
<glyph unicode="&#xEB;" horiz-adv-x="503" d="M358 566Q348 566 350 576L368 671Q370 681 379 681H468Q478 681 476 671L458 576Q456 566 447 566H358ZM165 566Q155 566 157 576L175 671Q177 681 186 681H274Q284 681 282 671L265 576Q263 566 254 566H165ZM222 -11Q133 -11 84 34T35 166Q35 188 37 214T45 266T57 317T75 362Q107 427 161 461T300 495Q338 495 371 484T428 452T465 399T479 325Q479 305 477 280T466 212Q464 202 454 202H171Q165 202 164 196Q163 191 163 181Q163 135 185 116T250 97Q282 97 312 110T366 144Q374 151 381 144L430 85Q437 77 429 69Q391 34 340 12T222 -11ZM343 291Q348 291 350 297Q353 312 353 324Q353 392 283 392Q254 392 231 378T195 338Q190 329 188 320T183 298Q182 291 187 291H343Z"  />
<glyph unicode="&#xEC;" horiz-adv-x="255" d="M35 0Q24 0 26 10L108 474Q110 484 119 484H234Q244 484 242 474L160 10Q158 0 150 0H35ZM144 551Q134 551 127 561L55 691Q53 695 55 698T62 701H166Q178 701 181 691L233 561Q236 551 225 551H144Z"  />
<glyph unicode="&#xED;" horiz-adv-x="255" d="M144 551Q133 551 140 561L235 691Q242 701 254 701H365Q370 701 371 698T368 690L250 561Q245 556 241 554T230 551H144ZM35 0Q24 0 26 10L108 474Q110 484 119 484H234Q244 484 242 474L160 10Q158 0 150 0H35Z"  />
<glyph unicode="&#xEE;" horiz-adv-x="255" d="M268 550Q256 550 249 560L208 617H207L145 560Q139 555 135 553T122 550H43Q38 550 37 553T39 560L161 691Q170 701 181 701H253Q263 701 269 691L345 560Q347 556 346 553T339 550H268ZM35 0Q24 0 26 10L108 474Q110 484 119 484H234Q244 484 242 474L160 10Q158 0 150 0H35Z"  />
<glyph unicode="&#xEF;" horiz-adv-x="255" d="M245 566Q235 566 237 576L255 671Q257 681 266 681H355Q365 681 363 671L345 576Q343 566 334 566H245ZM52 566Q42 566 44 576L62 671Q64 681 73 681H161Q171 681 169 671L152 576Q150 566 141 566H52ZM35 0Q24 0 26 10L108 474Q110 484 119 484H234Q244 484 242 474L160 10Q158 0 150 0H35Z"  />
<glyph unicode="&#xF0;" horiz-adv-x="510" d="M398 557L411 533Q453 452 467 394T482 288Q482 247 475 205T444 117Q412 51 356 20T220 -11Q132 -11 86 37T40 169Q40 211 46 249T72 329Q100 388 147 420T255 452Q275 452 293 448T320 435H322L277 522L180 494Q171 490 169 500L161 564Q159 574 170 577L238 597L200 670Q196 680 206 680H322Q333 680 339 670L359 632L448 658Q457 661 459 652L467 590Q469 578 458 575L398 557ZM238 102Q264 102 285 115T321 157Q334 183 340 212T347 270Q347 305 331 324T282 344Q256 344 235 331T199 289Q186 264 180 235T173 176Q173 141 189 122T238 102Z"  />
<glyph unicode="&#xF1;" horiz-adv-x="533" d="M315 0Q305 0 307 10L356 288Q363 331 350 356T300 381Q265 381 241 357T209 290L160 10Q158 0 150 0H35Q24 0 26 10L108 474Q110 484 119 484H234Q244 484 242 474L235 438H236Q257 462 290 478T368 495Q407 495 434 482T477 444T497 387T495 315L440 10Q438 0 429 0H315ZM375 556Q352 556 337 562T306 577Q292 586 281 590T254 595Q233 595 216 587T179 564Q176 561 173 562T171 567L183 636Q185 644 187 648T195 657Q233 690 274 690Q297 690 312 684T344 668Q358 660 369 655T396 650Q417 650 434 658T470 682Q474 685 477 684T479 678L467 609Q465 602 463 598T455 589Q436 572 417 564T375 556Z"  />
<glyph unicode="&#xF2;" horiz-adv-x="508" d="M217 -11Q133 -11 84 34T35 163Q35 184 38 211T46 265T60 319T78 366Q112 435 169 465T302 495Q386 495 435 450T484 321Q484 300 481 273T473 219T459 165T441 118Q407 49 350 19T217 -11ZM235 102Q290 102 317 157Q323 170 329 190T339 233T346 275T349 308Q349 343 334 362T284 382Q229 382 202 327Q196 314 190 294T180 251T173 209T170 176Q170 141 185 122T235 102ZM263 551Q253 551 246 561L174 691Q172 695 174 698T181 701H285Q297 701 300 691L352 561Q355 551 344 551H263Z"  />
<glyph unicode="&#xF3;" horiz-adv-x="508" d="M258 551Q247 551 254 561L349 691Q356 701 368 701H479Q484 701 485 698T482 690L364 561Q359 556 355 554T344 551H258ZM217 -11Q133 -11 84 34T35 163Q35 184 38 211T46 265T60 319T78 366Q112 435 169 465T302 495Q386 495 435 450T484 321Q484 300 481 273T473 219T459 165T441 118Q407 49 350 19T217 -11ZM235 102Q290 102 317 157Q323 170 329 190T339 233T346 275T349 308Q349 343 334 362T284 382Q229 382 202 327Q196 314 190 294T180 251T173 209T170 176Q170 141 185 122T235 102Z"  />
<glyph unicode="&#xF4;" horiz-adv-x="508" d="M382 550Q370 550 363 560L322 617H321L259 560Q253 555 249 553T236 550H157Q152 550 151 553T153 560L275 691Q284 701 295 701H367Q377 701 383 691L459 560Q461 556 460 553T453 550H382ZM217 -11Q133 -11 84 34T35 163Q35 184 38 211T46 265T60 319T78 366Q112 435 169 465T302 495Q386 495 435 450T484 321Q484 300 481 273T473 219T459 165T441 118Q407 49 350 19T217 -11ZM235 102Q290 102 317 157Q323 170 329 190T339 233T346 275T349 308Q349 343 334 362T284 382Q229 382 202 327Q196 314 190 294T180 251T173 209T170 176Q170 141 185 122T235 102Z"  />
<glyph unicode="&#xF5;" horiz-adv-x="508" d="M217 -11Q133 -11 84 34T35 163Q35 184 38 211T46 265T60 319T78 366Q112 435 169 465T302 495Q386 495 435 450T484 321Q484 300 481 273T473 219T459 165T441 118Q407 49 350 19T217 -11ZM235 102Q290 102 317 157Q323 170 329 190T339 233T346 275T349 308Q349 343 334 362T284 382Q229 382 202 327Q196 314 190 294T180 251T173 209T170 176Q170 141 185 122T235 102ZM369 556Q346 556 331 562T300 577Q286 586 275 590T248 595Q227 595 210 587T173 564Q170 561 167 562T165 567L177 636Q179 644 181 648T189 657Q227 690 268 690Q291 690 306 684T338 668Q352 660 363 655T390 650Q411 650 428 658T464 682Q468 685 471 684T473 678L461 609Q459 602 457 598T449 589Q430 572 411 564T369 556Z"  />
<glyph unicode="&#xF6;" horiz-adv-x="508" d="M359 566Q349 566 351 576L369 671Q371 681 380 681H469Q479 681 477 671L459 576Q457 566 448 566H359ZM166 566Q156 566 158 576L176 671Q178 681 187 681H275Q285 681 283 671L266 576Q264 566 255 566H166ZM217 -11Q133 -11 84 34T35 163Q35 184 38 211T46 265T60 319T78 366Q112 435 169 465T302 495Q386 495 435 450T484 321Q484 300 481 273T473 219T459 165T441 118Q407 49 350 19T217 -11ZM235 102Q290 102 317 157Q323 170 329 190T339 233T346 275T349 308Q349 343 334 362T284 382Q229 382 202 327Q196 314 190 294T180 251T173 209T170 176Q170 141 185 122T235 102Z"  />
<glyph unicode="&#xF7;" horiz-adv-x="536" d="M283 386Q252 386 231 407T209 460Q209 490 230 511T283 533Q314 533 335 512T356 460Q356 429 335 408T283 386ZM71 219Q61 219 61 229V323Q61 333 71 333H496Q506 333 506 323V229Q506 219 496 219H71ZM283 19Q252 19 231 40T209 92Q209 123 230 144T283 166Q314 166 335 145T356 92Q356 62 335 41T283 19Z"  />
<glyph unicode="&#xF8;" horiz-adv-x="508" d="M3 -30Q-2 -30 -2 -27T0 -20L66 55Q35 98 35 163Q35 184 38 211T46 265T60 319T78 366Q113 435 170 465T303 496Q373 496 418 463L453 503Q462 513 472 513H516Q521 513 521 510T519 503L454 428Q484 384 484 321Q484 300 481 273T473 219T459 165T441 118Q407 49 350 19T217 -11Q148 -11 102 20L67 -20Q58 -30 47 -30H3ZM168 170L332 367Q315 384 285 384Q229 384 200 328Q194 315 188 294T178 251T171 209T168 176V170ZM235 100Q291 100 319 156Q325 169 331 190T341 233T348 276T351 309V311L188 115Q204 100 235 100Z"  />
<glyph unicode="&#xF9;" horiz-adv-x="529" d="M228 484Q239 484 237 474L188 195Q180 153 194 128T243 103Q278 103 301 127T333 194L382 474Q384 484 392 484H507Q518 484 516 474L433 10Q431 0 422 0H308Q298 0 300 10L306 46H305Q282 21 251 5T175 -11Q136 -11 109 2T67 39T47 96T50 169L104 474Q106 484 114 484H228ZM275 551Q265 551 258 561L186 691Q184 695 186 698T193 701H297Q309 701 312 691L364 561Q367 551 356 551H275Z"  />
<glyph unicode="&#xFA;" horiz-adv-x="529" d="M268 551Q257 551 264 561L359 691Q366 701 378 701H489Q494 701 495 698T492 690L374 561Q369 556 365 554T354 551H268ZM228 484Q239 484 237 474L188 195Q180 153 194 128T243 103Q278 103 301 127T333 194L382 474Q384 484 392 484H507Q518 484 516 474L433 10Q431 0 422 0H308Q298 0 300 10L306 46H305Q282 21 251 5T175 -11Q136 -11 109 2T67 39T47 96T50 169L104 474Q106 484 114 484H228Z"  />
<glyph unicode="&#xFB;" horiz-adv-x="529" d="M397 550Q385 550 378 560L337 617H336L274 560Q268 555 264 553T251 550H172Q167 550 166 553T168 560L290 691Q299 701 310 701H382Q392 701 398 691L474 560Q476 556 475 553T468 550H397ZM228 484Q239 484 237 474L188 195Q180 153 194 128T243 103Q278 103 301 127T333 194L382 474Q384 484 392 484H507Q518 484 516 474L433 10Q431 0 422 0H308Q298 0 300 10L306 46H305Q282 21 251 5T175 -11Q136 -11 109 2T67 39T47 96T50 169L104 474Q106 484 114 484H228Z"  />
<glyph unicode="&#xFC;" horiz-adv-x="529" d="M372 566Q362 566 364 576L382 671Q384 681 393 681H482Q492 681 490 671L472 576Q470 566 461 566H372ZM179 566Q169 566 171 576L189 671Q191 681 200 681H288Q298 681 296 671L279 576Q277 566 268 566H179ZM228 484Q239 484 237 474L188 195Q180 153 194 128T243 103Q278 103 301 127T333 194L382 474Q384 484 392 484H507Q518 484 516 474L433 10Q431 0 422 0H308Q298 0 300 10L306 46H305Q282 21 251 5T175 -11Q136 -11 109 2T67 39T47 96T50 169L104 474Q106 484 114 484H228Z"  />
<glyph unicode="&#xFD;" horiz-adv-x="492" d="M21 -180Q10 -180 13 -170L29 -76Q31 -66 41 -66H62Q88 -66 104 -55T136 -14L154 23L60 474Q58 484 68 484H187Q196 484 197 474L241 187H243L383 474Q387 484 397 484H517Q529 484 524 474L241 -42Q220 -82 200 -108T157 -151T110 -173T54 -180H21ZM239 551Q228 551 235 561L330 691Q337 701 349 701H460Q465 701 466 698T463 690L345 561Q340 556 336 554T325 551H239Z"  />
<glyph unicode="&#xFE;" horiz-adv-x="530" d="M3 -180Q-7 -180 -5 -170L143 670Q145 680 154 680H269Q279 680 277 670L236 437H237Q257 463 290 479T369 495Q438 495 473 453T508 336Q508 312 505 281T495 216T479 152T458 98Q429 39 386 14T282 -11Q234 -11 207 6T168 48H167L129 -170Q127 -180 118 -180H3ZM258 102Q313 102 340 157Q346 169 351 189T361 230T368 273T371 308Q371 343 357 362T307 382Q252 382 225 327Q219 315 214 296T204 254T197 211T194 176Q194 141 208 122T258 102Z"  />
<glyph unicode="&#xFF;" horiz-adv-x="492" d="M21 -180Q10 -180 13 -170L29 -76Q31 -66 41 -66H62Q88 -66 104 -55T136 -14L154 23L60 474Q58 484 68 484H187Q196 484 197 474L241 187H243L383 474Q387 484 397 484H517Q529 484 524 474L241 -42Q220 -82 200 -108T157 -151T110 -173T54 -180H21ZM357 566Q347 566 349 576L367 671Q369 681 378 681H467Q477 681 475 671L457 576Q455 566 446 566H357ZM164 566Q154 566 156 576L174 671Q176 681 185 681H273Q283 681 281 671L264 576Q262 566 253 566H164Z"  />
<glyph unicode="&#x110;" horiz-adv-x="605" d="M37 0Q26 0 28 10L77 285Q78 291 73 291H47Q37 291 39 301L54 385Q56 395 66 395H90Q95 395 97 401L145 670Q147 680 156 680H399Q499 680 547 631T595 487Q595 456 590 409T576 312T555 216T527 139Q488 60 427 30T280 0H37ZM271 125Q321 125 353 142T405 202Q414 219 422 253T438 326T450 400T455 456Q455 510 428 532T345 555H270Q265 555 264 549L238 401Q236 395 242 395H324Q334 395 332 385L317 301Q315 291 306 291H224Q218 291 217 285L190 131Q188 125 195 125H271Z"  />
<glyph unicode="&#x131;" horiz-adv-x="255" d="M35 0Q24 0 26 10L108 474Q110 484 119 484H234Q244 484 242 474L160 10Q158 0 150 0H35Z"  />
<glyph unicode="&#x152;" horiz-adv-x="895" d="M389 0Q378 0 380 10L385 35H384Q360 14 326 2T252 -11Q159 -11 105 41T51 197Q51 220 56 265T72 362T94 460T120 535Q160 617 223 654T374 691Q412 691 443 680T492 645H493L497 670Q499 680 508 680H926Q937 680 935 670L916 568Q914 558 905 558H623Q617 558 617 552L592 409Q590 403 596 403H831Q841 403 839 393L821 293Q819 283 809 283H574Q569 283 568 277L541 128Q541 122 546 122H828Q838 122 836 112L818 10Q816 0 807 0H389ZM285 114Q327 114 356 135T403 194Q412 212 421 250T438 331T451 413T456 470Q456 515 433 540T365 566Q323 566 294 545T247 486Q241 474 235 453T223 405T212 349T203 293T197 244T194 210Q194 165 217 140T285 114Z"  />
<glyph unicode="&#x153;" horiz-adv-x="803" d="M523 -11Q472 -11 436 4T377 51H375Q341 18 302 4T217 -11Q133 -11 84 34T35 163Q35 184 38 211T46 265T60 319T78 366Q112 435 169 465T302 495Q348 495 383 481T441 434H443Q473 465 514 480T601 495Q639 495 672 484T729 452T766 399T780 325Q780 305 778 280T767 212Q765 202 755 202H472Q466 202 465 196Q464 191 464 181Q464 135 486 116T551 97Q583 97 613 110T667 144Q675 151 682 144L731 85Q738 77 730 69Q692 34 641 12T523 -11ZM496 338Q491 329 489 320T484 298Q483 291 488 291H644Q649 291 651 297Q654 312 654 324Q654 392 584 392Q555 392 532 378T496 338ZM235 102Q290 102 317 157Q323 170 329 190T339 233T346 275T349 308Q349 343 334 362T284 382Q229 382 202 327Q196 314 190 294T180 251T173 209T170 176Q170 141 185 122T235 102Z"  />
<glyph unicode="&#x160;" horiz-adv-x="574" d="M250 -11Q212 -11 176 -4T107 16T50 45T8 81Q2 90 9 97L95 179Q103 187 109 180Q135 154 176 134T269 113Q297 113 320 121T359 143T385 175T394 215Q394 240 376 255T307 279L274 284Q188 297 143 339T97 454Q97 508 117 552T172 626T257 674T364 691Q429 691 485 671T576 619Q583 614 576 604L505 522Q497 514 491 519Q459 543 426 555T353 568Q305 568 275 541T244 475Q244 450 262 434T331 410L364 405Q450 392 496 352T542 242Q542 182 521 135T460 56T368 6T250 -11ZM328 744Q317 744 312 753L236 884Q234 888 235 891T242 894H313Q324 894 332 884L373 827H374L436 884Q442 890 447 892T459 894H539Q544 894 545 891T542 884L420 753Q412 744 400 744H328Z"  />
<glyph unicode="&#x161;" horiz-adv-x="487" d="M261 548Q251 548 245 558L169 689Q167 693 168 696T175 699H246Q257 699 265 689L306 632H307L369 689Q380 699 392 699H471Q476 699 477 696T475 689L353 558Q344 548 333 548H261ZM213 -11Q140 -11 89 12T9 65Q7 67 7 71T11 79L83 146Q91 152 97 146Q125 122 159 109T231 95Q271 95 293 113T316 153Q316 170 304 178T259 190L208 195Q144 202 110 233T76 316Q76 359 92 392T138 448T207 483T294 495Q351 495 398 477T473 434Q479 427 472 420L408 355Q401 348 394 353Q372 369 343 380T277 391Q243 391 225 376T206 341Q206 326 216 318T261 305L311 300Q383 292 415 261T447 180Q447 137 431 102T385 41T312 3T213 -11Z"  />
<glyph unicode="&#x178;" horiz-adv-x="545" d="M177 0Q166 0 168 10L215 271L90 670Q86 680 99 680H216Q227 680 230 670L305 415H308L473 670Q479 680 488 680H613Q619 680 620 677T620 670L355 271L308 10Q306 0 297 0H177ZM415 762Q405 762 407 772L425 866Q427 876 436 876H524Q534 876 532 866L515 772Q513 762 504 762H415ZM222 762Q211 762 213 772L231 866Q233 876 242 876H331Q341 876 339 866L322 772Q320 762 311 762H222Z"  />
<glyph unicode="&#x17D;" horiz-adv-x="533" d="M317 744Q306 744 301 753L225 884Q223 888 224 891T231 894H302Q313 894 321 884L362 827H363L425 884Q431 890 436 892T448 894H528Q533 894 534 891T531 884L409 753Q401 744 389 744H317ZM15 0Q4 0 6 10L23 110Q25 118 31 126L386 553V555H122Q112 555 114 565L133 670Q135 680 143 680H565Q576 680 574 670L556 570Q555 562 550 556L191 127V125H468Q478 125 476 115L457 10Q455 0 446 0H15Z"  />
<glyph unicode="&#x17E;" horiz-adv-x="471" d="M255 548Q245 548 239 558L163 689Q161 693 162 696T169 699H240Q251 699 259 689L300 632H301L363 689Q374 699 386 699H465Q470 699 471 696T469 689L347 558Q338 548 327 548H255ZM18 0Q8 0 10 10L25 97Q26 102 31 107L296 373V375H95Q86 375 88 385L104 474Q106 484 115 484H468Q477 484 475 474L460 385Q459 380 454 373L192 113V110H402Q412 110 410 100L394 10Q392 0 382 0H18Z"  />
<glyph unicode="&#x192;" horiz-adv-x="536" d="M354 316L248 -14Q219 -103 171 -141T40 -180H8Q-3 -180 -1 -170L15 -78Q17 -68 27 -68H47Q76 -68 92 -55T120 -10L225 316H164Q154 316 156 326L170 405Q172 415 182 415H257L289 514Q317 603 366 641T497 680H529Q540 680 538 670L522 578Q520 568 510 568H490Q461 568 445 555T417 510L386 415H462Q471 415 469 405L455 326Q453 316 443 316H354Z"  />
<glyph unicode="&#x2C6;" horiz-adv-x="441" d="M356 550Q344 550 337 560L296 617H295L233 560Q227 555 223 553T210 550H131Q126 550 125 553T127 560L249 691Q258 701 269 701H341Q351 701 357 691L433 560Q435 556 434 553T427 550H356Z"  />
<glyph unicode="&#x2C7;" horiz-adv-x="441" d="M242 548Q232 548 226 558L150 689Q148 693 149 696T156 699H227Q238 699 246 689L287 632H288L350 689Q361 699 373 699H452Q457 699 458 696T456 689L334 558Q325 548 314 548H242Z"  />
<glyph unicode="&#x2DA;" horiz-adv-x="441" d="M277 525Q238 525 214 548T189 610Q189 635 198 658T223 698T262 725T312 736Q351 736 375 713T400 651Q400 626 391 603T366 563T328 536T277 525ZM286 581Q309 581 324 598T340 641Q340 658 330 669T303 680Q281 680 265 663T249 620Q249 603 259 592T286 581Z"  />
<glyph unicode="&#x2DC;" horiz-adv-x="441" d="M343 556Q320 556 305 562T274 577Q260 586 249 590T222 595Q201 595 184 587T147 564Q144 561 141 562T139 567L151 636Q153 644 155 648T163 657Q201 690 242 690Q265 690 280 684T312 668Q326 660 337 655T364 650Q385 650 402 658T438 682Q442 685 445 684T447 678L435 609Q433 602 431 598T423 589Q404 572 385 564T343 556Z"  />
<glyph unicode="&#x3BC;" horiz-adv-x="534" d="M313 0Q303 0 305 10L312 49H311Q294 24 272 7T217 -11Q197 -11 183 -5T162 10H161L129 -170Q127 -180 119 -180H4Q-7 -180 -5 -170L109 474Q111 484 120 484H234Q244 484 242 474L193 195Q185 153 198 128T248 103Q283 103 306 128T338 195L387 474Q389 484 397 484H512Q523 484 521 474L438 10Q436 0 427 0H313Z"  />
<glyph unicode="&#x2013;" horiz-adv-x="516" d="M30 210Q21 210 23 220L38 312Q40 322 50 322H507Q516 322 514 312L498 220Q496 210 487 210H30Z"  />
<glyph unicode="&#x2014;" horiz-adv-x="861" d="M30 210Q21 210 23 220L38 312Q40 322 50 322H852Q861 322 859 312L843 220Q841 210 832 210H30Z"  />
<glyph unicode="&#x2018;" horiz-adv-x="222" d="M112 476Q102 476 104 486L122 588Q125 602 134 609L224 675Q234 682 241 682Q251 682 249 671L216 486Q214 476 205 476H112Z"  />
<glyph unicode="&#x2019;" horiz-adv-x="222" d="M112 474Q102 474 104 485L136 670Q138 680 147 680H241Q251 680 249 670L231 567Q228 554 219 546L129 481Q119 474 112 474Z"  />
<glyph unicode="&#x201A;" horiz-adv-x="223" d="M13 -89Q2 -89 4 -78L37 107Q39 117 48 117H141Q152 117 150 107L132 5Q129 -9 120 -16L29 -82Q21 -89 13 -89Z"  />
<glyph unicode="&#x201C;" horiz-adv-x="400" d="M290 476Q280 476 282 486L299 588Q301 596 303 600T311 609L402 675Q412 682 418 682Q429 682 427 671L394 486Q392 476 383 476H290ZM112 476Q102 476 104 486L122 588Q125 602 134 609L224 675Q234 682 241 682Q251 682 249 671L216 486Q214 476 205 476H112Z"  />
<glyph unicode="&#x201D;" horiz-adv-x="400" d="M290 474Q280 474 282 485L314 670Q316 680 325 680H418Q429 680 427 670L409 567Q406 554 397 546L306 481Q298 474 290 474ZM112 474Q102 474 104 485L136 670Q138 680 147 680H241Q251 680 249 670L231 567Q228 554 219 546L129 481Q119 474 112 474Z"  />
<glyph unicode="&#x201E;" horiz-adv-x="400" d="M191 -89Q180 -89 182 -78L215 107Q217 117 226 117H319Q329 117 327 107L310 5Q308 -3 305 -7T297 -16L207 -82Q197 -89 191 -89ZM13 -89Q2 -89 4 -78L37 107Q39 117 48 117H141Q152 117 150 107L132 5Q129 -9 120 -16L29 -82Q21 -89 13 -89Z"  />
<glyph unicode="&#x2020;" horiz-adv-x="524" d="M135 -180Q124 -180 127 -170L217 336Q218 342 212 342H73Q63 342 65 352L83 448Q85 458 94 458H231Q237 458 239 464L275 670Q277 680 286 680H398Q409 680 407 670L370 464Q368 458 374 458H513Q523 458 521 448L504 352Q502 342 492 342H356Q349 342 348 336L259 -170Q256 -180 247 -180H135Z"  />
<glyph unicode="&#x2021;" horiz-adv-x="524" d="M141 -180Q130 -180 133 -170L164 3Q165 9 159 9H21Q11 9 13 19L30 115Q32 125 41 125H179Q185 125 187 131L228 369Q229 375 223 375H85Q75 375 77 385L94 481Q96 491 105 491H243Q249 491 251 497L281 670Q283 680 292 680H404Q415 680 413 670L382 497Q380 491 386 491H525Q535 491 533 481L516 385Q514 375 504 375H367Q361 375 360 369L317 131Q315 125 322 125H461Q471 125 469 115L452 19Q450 9 441 9H302Q296 9 295 3L265 -170Q262 -180 253 -180H141Z"  />
<glyph unicode="&#x2022;" horiz-adv-x="417" d="M231 159Q198 159 171 170T123 201T92 248T81 308Q81 341 92 368T123 416T170 447T231 458Q264 458 291 447T338 416T369 369T380 308Q380 275 369 248T338 201T291 170T231 159Z"  />
<glyph unicode="&#x2026;" horiz-adv-x="732" d="M518 0Q507 0 509 10L529 126Q531 136 540 136H653Q664 136 662 126L642 10Q640 0 631 0H518ZM274 0Q263 0 265 10L285 126Q287 136 296 136H409Q420 136 418 126L398 10Q396 0 387 0H274ZM30 0Q19 0 21 10L41 126Q43 136 52 136H165Q176 136 174 126L154 10Q152 0 143 0H30Z"  />
<glyph unicode="&#x2030;" horiz-adv-x="1102" d="M124 -11Q119 -11 119 -8T121 -1L623 681Q627 686 630 688T639 691H719Q724 691 724 688T723 681L221 -1Q214 -11 203 -11H124ZM220 330Q173 330 141 356T108 433Q108 446 110 469T117 518T128 568T142 608Q161 646 193 667T280 688Q327 688 359 662T392 584Q392 570 390 547T383 499T372 449T358 410Q339 372 307 351T220 330ZM232 406Q259 406 271 431Q275 438 279 460T288 506T296 552T299 581Q299 612 268 612Q242 612 230 587Q226 579 221 558T212 512T204 466T201 437Q201 406 232 406ZM875 -9Q829 -9 797 17T764 95Q764 108 766 131T773 179T784 229T798 269Q816 307 849 328T936 349Q983 349 1015 323T1048 246Q1048 232 1046 209T1039 160T1028 111T1014 72Q994 33 962 12T875 -9ZM563 -9Q516 -9 484 17T451 95Q451 108 453 131T460 179T471 229T485 269Q504 307 536 328T623 349Q670 349 702 323T735 246Q735 232 733 209T726 160T715 111T701 72Q682 33 650 12T563 -9ZM887 67Q913 67 925 93Q929 100 934 121T943 167T951 213T954 242Q954 273 923 273Q897 273 884 248Q881 240 876 219T867 173T859 127T856 98Q856 67 887 67ZM574 67Q601 67 613 93Q617 100 622 121T631 167T639 213T642 242Q642 273 611 273Q584 273 572 248Q568 240 563 219T554 173T546 127T543 98Q543 67 574 67Z"  />
<glyph unicode="&#x2039;" horiz-adv-x="309" d="M37 257Q31 265 39 271L289 487Q292 490 295 489T298 483L277 366Q275 359 273 355T264 345L170 262Q165 258 168 254L233 170Q242 161 239 149L221 45Q220 40 217 39T210 41L37 257Z"  />
<glyph unicode="&#x203A;" horiz-adv-x="309" d="M40 41Q36 38 33 39T31 45L51 162Q53 169 55 173T64 183L159 266Q164 270 161 274L96 358Q87 367 90 379L108 483Q109 488 112 489T119 487L291 271Q297 263 289 257L40 41Z"  />
<glyph unicode="&#x20AC;" horiz-adv-x="536" d="M269 -11Q183 -11 136 33T88 164Q88 178 89 195T95 233Q96 239 90 239H54Q44 239 46 249L56 308Q58 318 68 318H104Q109 318 111 324L117 361Q118 367 112 367H77Q67 367 69 377L79 435Q81 445 91 445H126Q131 445 133 451Q138 482 146 506T164 551Q198 621 256 656T393 691Q467 691 508 657T564 570Q567 561 557 556L459 515Q455 513 452 514T446 520Q436 547 421 562T375 578Q318 578 288 517Q283 506 278 489T269 451Q267 445 274 445H434Q445 445 443 435L422 377Q419 367 410 367H260Q254 367 253 361L247 324Q245 318 252 318H392Q402 318 400 308L380 249Q377 239 368 239H238Q232 239 231 233Q227 213 226 201T225 179Q225 144 239 123T290 102Q316 102 339 117T381 161Q388 169 396 166L482 123Q490 118 485 110Q450 55 397 22T269 -11Z"  />
<glyph unicode="&#x2122;" horiz-adv-x="843" d="M764 286Q754 286 754 296V498H751L685 352Q680 342 672 342H627Q619 342 614 352L548 498H546V296Q546 286 536 286H471Q461 286 461 296V670Q461 680 471 680H535Q544 680 549 670L650 449H653L751 670Q756 680 765 680H829Q839 680 839 670V296Q839 286 829 286H764ZM207 286Q197 286 197 296V593Q197 599 191 599H94Q84 599 84 609V670Q84 680 94 680H393Q403 680 403 670V609Q403 599 393 599H296Q290 599 290 593V296Q290 286 280 286H207Z"  />

</font>
</defs>
</svg>
